<?xml version="1.0" encoding="UTF-8" standalone="no"?><svg xmlns="http://www.w3.org/2000/svg" xmlns:xlink="http://www.w3.org/1999/xlink" contentScriptType="application/ecmascript" contentStyleType="text/css" height="872px" preserveAspectRatio="none" style="width:999px;height:872px;" version="1.1" viewBox="0 0 999 872" width="999px" zoomAndPan="magnify"><defs><filter height="300%" id="f1xtcb992x6ke9" width="300%" x="-1" y="-1"><feGaussianBlur result="blurOut" stdDeviation="2.0"/><feColorMatrix in="blurOut" result="blurOut2" type="matrix" values="0 0 0 0 0 0 0 0 0 0 0 0 0 0 0 0 0 0 .4 0"/><feOffset dx="4.0" dy="4.0" in="blurOut2" result="blurOut3"/><feBlend in="SourceGraphic" in2="blurOut3" mode="normal"/></filter></defs><g><!--MD5=[153973e0405221f6a20dc6ad197c532d]
class MasterMind--><rect codeLine="1" fill="#FEFECE" filter="url(#f1xtcb992x6ke9)" height="61.8359" id="MasterMind" style="stroke:#A80036;stroke-width:1.5;" width="95" x="7" y="7"/><ellipse cx="22" cy="23" fill="#ADD1B2" rx="11" ry="11" style="stroke:#A80036;stroke-width:1.0;"/><path d="M24,19.5 Q24.2031,19 24.4375,18.75 Q24.6719,18.5 24.9375,18.5 Q25.4063,18.5 25.7031,18.7813 Q26,19.0625 26,19.7188 L26,21.2813 Q26,21.9375 25.7188,22.2188 Q25.4375,22.5 25,22.5 Q24.6094,22.5 24.3594,22.3281 Q24.1094,22.1563 24,21.7031 Q23.9531,21.3906 23.7813,21.2188 Q23.4688,20.8906 22.9063,20.7031 Q22.3438,20.5 21.7813,20.5 Q21.0781,20.5 20.4844,20.7813 Q19.9063,21.0625 19.4531,21.6875 Q19,22.3125 19,23.1719 L19,24.0938 Q19,25.125 19.8438,25.8125 Q20.6875,26.5 22.1875,26.5 Q23.0781,26.5 23.7031,26.2969 Q24.0625,26.1875 24.4688,25.8281 Q24.7344,25.625 24.875,25.5625 Q25.0156,25.5 25.1875,25.5 Q25.5156,25.5 25.75,25.7656 Q26,26.0156 26,26.375 Q26,26.7188 25.6563,27.125 Q25.1563,27.7188 24.3594,28.0469 Q23.3125,28.5 22.0313,28.5 Q20.5313,28.5 19.3281,27.9063 Q18.3594,27.4375 17.6719,26.4219 Q17,25.4063 17,24.2031 L17,23.1094 Q17,21.8594 17.5938,20.7656 Q18.2031,19.6719 19.25,19.0938 Q20.3125,18.5 21.5,18.5 Q22.2188,18.5 22.8438,18.75 Q23.4688,19 24,19.5 Z " fill="#000000"/><text fill="#000000" font-family="sans-serif" font-size="12" lengthAdjust="spacing" textLength="63" x="36" y="27.9102">MasterMind</text><line style="stroke:#A80036;stroke-width:1.5;" x1="8" x2="101" y1="39" y2="39"/><line style="stroke:#A80036;stroke-width:1.5;" x1="8" x2="101" y1="47" y2="47"/><ellipse cx="18" cy="58" fill="#84BE84" rx="3" ry="3" style="stroke:#038048;stroke-width:1.0;"/><text fill="#000000" font-family="sans-serif" font-size="11" lengthAdjust="spacing" textLength="28" x="27" y="62.4189">play()</text><!--MD5=[b6dcce5e5ef3c84b0b048d11301373dd]
class Game--><rect codeLine="5" fill="#FEFECE" filter="url(#f1xtcb992x6ke9)" height="61.8359" id="Game" style="stroke:#A80036;stroke-width:1.5;" width="66" x="133.5" y="129"/><ellipse cx="148.5" cy="145" fill="#ADD1B2" rx="11" ry="11" style="stroke:#A80036;stroke-width:1.0;"/><path d="M150.5,141.5 Q150.7031,141 150.9375,140.75 Q151.1719,140.5 151.4375,140.5 Q151.9063,140.5 152.2031,140.7813 Q152.5,141.0625 152.5,141.7188 L152.5,143.2813 Q152.5,143.9375 152.2188,144.2188 Q151.9375,144.5 151.5,144.5 Q151.1094,144.5 150.8594,144.3281 Q150.6094,144.1563 150.5,143.7031 Q150.4531,143.3906 150.2813,143.2188 Q149.9688,142.8906 149.4063,142.7031 Q148.8438,142.5 148.2813,142.5 Q147.5781,142.5 146.9844,142.7813 Q146.4063,143.0625 145.9531,143.6875 Q145.5,144.3125 145.5,145.1719 L145.5,146.0938 Q145.5,147.125 146.3438,147.8125 Q147.1875,148.5 148.6875,148.5 Q149.5781,148.5 150.2031,148.2969 Q150.5625,148.1875 150.9688,147.8281 Q151.2344,147.625 151.375,147.5625 Q151.5156,147.5 151.6875,147.5 Q152.0156,147.5 152.25,147.7656 Q152.5,148.0156 152.5,148.375 Q152.5,148.7188 152.1563,149.125 Q151.6563,149.7188 150.8594,150.0469 Q149.8125,150.5 148.5313,150.5 Q147.0313,150.5 145.8281,149.9063 Q144.8594,149.4375 144.1719,148.4219 Q143.5,147.4063 143.5,146.2031 L143.5,145.1094 Q143.5,143.8594 144.0938,142.7656 Q144.7031,141.6719 145.75,141.0938 Q146.8125,140.5 148,140.5 Q148.7188,140.5 149.3438,140.75 Q149.9688,141 150.5,141.5 Z " fill="#000000"/><text fill="#000000" font-family="sans-serif" font-size="12" lengthAdjust="spacing" textLength="34" x="162.5" y="149.9102">Game</text><line style="stroke:#A80036;stroke-width:1.5;" x1="134.5" x2="198.5" y1="161" y2="161"/><line style="stroke:#A80036;stroke-width:1.5;" x1="134.5" x2="198.5" y1="169" y2="169"/><ellipse cx="144.5" cy="180" fill="#84BE84" rx="3" ry="3" style="stroke:#038048;stroke-width:1.0;"/><text fill="#000000" font-family="sans-serif" font-size="11" lengthAdjust="spacing" textLength="30" x="153.5" y="184.4189">start()</text><!--MD5=[28491d17d5ee38c9c116625a5ffc259a]
class Combination--><rect codeLine="9" fill="#FEFECE" filter="url(#f1xtcb992x6ke9)" height="61.8359" id="Combination" style="stroke:#A80036;stroke-width:1.5;" width="104" x="676.5" y="271.5"/><ellipse cx="691.5" cy="287.5" fill="#A9DCDF" rx="11" ry="11" style="stroke:#A80036;stroke-width:1.0;"/><path d="M693.25,289 L689.9531,289 L689.5156,290 L689.5156,290 L689.9844,290 L690.5,290.625 L690.5,291 L690.5,291.375 L689.9844,292 L689.5156,292 L687.625,292 L687.0156,292 L686.5,291.375 L686.5,291 L686.5,290.625 L687.0156,290 L687.625,290 L689.9375,284 L689.0625,284 L688.0156,284 L687.5,283.375 L687.5,283 L687.5,282.625 L688.0156,282 L689.0625,282 L692.7344,282 L695.4219,290 L695.9844,290 L695.9844,290 L696.5,290.625 L696.5,291 L696.5,291.375 L695.9844,292 L695.4219,292 L693.5313,292 L693.0156,292 L692.5,291.375 L692.5,291 L692.5,290.625 L693.0156,290 L693.5313,290 L693.5313,290 L693.25,289 Z M692.7031,287 L691.5,283.4219 L690.4688,287 L692.7031,287 Z " fill="#000000"/><text fill="#000000" font-family="sans-serif" font-size="12" font-style="italic" lengthAdjust="spacing" textLength="72" x="705.5" y="292.4102">Combination</text><line style="stroke:#A80036;stroke-width:1.5;" x1="677.5" x2="779.5" y1="303.5" y2="303.5"/><line style="stroke:#A80036;stroke-width:1.5;" x1="677.5" x2="779.5" y1="311.5" y2="311.5"/><ellipse cx="687.5" cy="322.5" fill="#84BE84" rx="3" ry="3" style="stroke:#038048;stroke-width:1.0;"/><text fill="#000000" font-family="sans-serif" font-size="11" lengthAdjust="spacing" textLength="29" x="696.5" y="326.9189">print()</text><!--MD5=[e370ee5c0c15ce04544d5f5a73174d72]
class SecretCombination--><rect codeLine="12" fill="#FEFECE" filter="url(#f1xtcb992x6ke9)" height="75.6719" id="SecretCombination" style="stroke:#A80036;stroke-width:1.5;" width="232" x="277.5" y="462.5"/><ellipse cx="336.25" cy="478.5" fill="#ADD1B2" rx="11" ry="11" style="stroke:#A80036;stroke-width:1.0;"/><path d="M338.25,475 Q338.4531,474.5 338.6875,474.25 Q338.9219,474 339.1875,474 Q339.6563,474 339.9531,474.2813 Q340.25,474.5625 340.25,475.2188 L340.25,476.7813 Q340.25,477.4375 339.9688,477.7188 Q339.6875,478 339.25,478 Q338.8594,478 338.6094,477.8281 Q338.3594,477.6563 338.25,477.2031 Q338.2031,476.8906 338.0313,476.7188 Q337.7188,476.3906 337.1563,476.2031 Q336.5938,476 336.0313,476 Q335.3281,476 334.7344,476.2813 Q334.1563,476.5625 333.7031,477.1875 Q333.25,477.8125 333.25,478.6719 L333.25,479.5938 Q333.25,480.625 334.0938,481.3125 Q334.9375,482 336.4375,482 Q337.3281,482 337.9531,481.7969 Q338.3125,481.6875 338.7188,481.3281 Q338.9844,481.125 339.125,481.0625 Q339.2656,481 339.4375,481 Q339.7656,481 340,481.2656 Q340.25,481.5156 340.25,481.875 Q340.25,482.2188 339.9063,482.625 Q339.4063,483.2188 338.6094,483.5469 Q337.5625,484 336.2813,484 Q334.7813,484 333.5781,483.4063 Q332.6094,482.9375 331.9219,481.9219 Q331.25,480.9063 331.25,479.7031 L331.25,478.6094 Q331.25,477.3594 331.8438,476.2656 Q332.4531,475.1719 333.5,474.5938 Q334.5625,474 335.75,474 Q336.4688,474 337.0938,474.25 Q337.7188,474.5 338.25,475 Z " fill="#000000"/><text fill="#000000" font-family="sans-serif" font-size="12" lengthAdjust="spacing" textLength="106" x="356.75" y="483.4102">SecretCombination</text><line style="stroke:#A80036;stroke-width:1.5;" x1="278.5" x2="508.5" y1="494.5" y2="494.5"/><line style="stroke:#A80036;stroke-width:1.5;" x1="278.5" x2="508.5" y1="502.5" y2="502.5"/><ellipse cx="288.5" cy="513.5" fill="#84BE84" rx="3" ry="3" style="stroke:#038048;stroke-width:1.0;"/><text fill="#000000" font-family="sans-serif" font-size="11" lengthAdjust="spacing" textLength="29" x="297.5" y="517.9189">print()</text><ellipse cx="288.5" cy="527.3359" fill="#84BE84" rx="3" ry="3" style="stroke:#038048;stroke-width:1.0;"/><text fill="#000000" font-family="sans-serif" font-size="11" lengthAdjust="spacing" textLength="206" x="297.5" y="531.7549">match(ProposedCombination): MatchResult</text><!--MD5=[cf489b19c51ee25e76ddca093e62e620]
class ProposedCombination--><rect codeLine="16" fill="#FEFECE" filter="url(#f1xtcb992x6ke9)" height="75.6719" id="ProposedCombination" style="stroke:#A80036;stroke-width:1.5;" width="157" x="545" y="462.5"/><ellipse cx="560" cy="478.5" fill="#ADD1B2" rx="11" ry="11" style="stroke:#A80036;stroke-width:1.0;"/><path d="M562,475 Q562.2031,474.5 562.4375,474.25 Q562.6719,474 562.9375,474 Q563.4063,474 563.7031,474.2813 Q564,474.5625 564,475.2188 L564,476.7813 Q564,477.4375 563.7188,477.7188 Q563.4375,478 563,478 Q562.6094,478 562.3594,477.8281 Q562.1094,477.6563 562,477.2031 Q561.9531,476.8906 561.7813,476.7188 Q561.4688,476.3906 560.9063,476.2031 Q560.3438,476 559.7813,476 Q559.0781,476 558.4844,476.2813 Q557.9063,476.5625 557.4531,477.1875 Q557,477.8125 557,478.6719 L557,479.5938 Q557,480.625 557.8438,481.3125 Q558.6875,482 560.1875,482 Q561.0781,482 561.7031,481.7969 Q562.0625,481.6875 562.4688,481.3281 Q562.7344,481.125 562.875,481.0625 Q563.0156,481 563.1875,481 Q563.5156,481 563.75,481.2656 Q564,481.5156 564,481.875 Q564,482.2188 563.6563,482.625 Q563.1563,483.2188 562.3594,483.5469 Q561.3125,484 560.0313,484 Q558.5313,484 557.3281,483.4063 Q556.3594,482.9375 555.6719,481.9219 Q555,480.9063 555,479.7031 L555,478.6094 Q555,477.3594 555.5938,476.2656 Q556.2031,475.1719 557.25,474.5938 Q558.3125,474 559.5,474 Q560.2188,474 560.8438,474.25 Q561.4688,474.5 562,475 Z " fill="#000000"/><text fill="#000000" font-family="sans-serif" font-size="12" lengthAdjust="spacing" textLength="125" x="574" y="483.4102">ProposedCombination</text><line style="stroke:#A80036;stroke-width:1.5;" x1="546" x2="701" y1="494.5" y2="494.5"/><line style="stroke:#A80036;stroke-width:1.5;" x1="546" x2="701" y1="502.5" y2="502.5"/><ellipse cx="556" cy="513.5" fill="#84BE84" rx="3" ry="3" style="stroke:#038048;stroke-width:1.0;"/><text fill="#000000" font-family="sans-serif" font-size="11" lengthAdjust="spacing" textLength="30" x="565" y="517.9189">read()</text><ellipse cx="556" cy="527.3359" fill="#84BE84" rx="3" ry="3" style="stroke:#038048;stroke-width:1.0;"/><text fill="#000000" font-family="sans-serif" font-size="11" lengthAdjust="spacing" textLength="84" x="565" y="531.7549">isValid(): boolean</text><!--MD5=[18eee71c88ab61f27581b8cbdd3ef5ee]
class Color--><rect codeLine="21" fill="#FEFECE" filter="url(#f1xtcb992x6ke9)" height="172.5234" id="Color" style="stroke:#A80036;stroke-width:1.5;" width="192" x="737.5" y="414"/><ellipse cx="814.25" cy="430" fill="#EB937F" rx="11" ry="11" style="stroke:#A80036;stroke-width:1.0;"/><path d="M812.75,431 L812.75,433 L816.75,433 L816.75,432 L816.75,431.5156 L817.375,431 L817.75,431 L818.125,431 L818.75,431.5156 L818.75,432 L818.75,435 L810.75,435 L810.2656,435 L809.75,434.375 L809.75,434 L809.75,433.625 L810.2656,433 L810.75,433 L810.75,433 L810.75,427 L810.75,427 L810.2656,427 L809.75,426.375 L809.75,426 L809.75,425.625 L810.2656,425 L810.75,425 L818.75,425 L818.75,428 L818.75,428.4844 L818.125,429 L817.75,429 L817.375,429 L816.75,428.4844 L816.75,428 L816.75,427 L812.75,427 L812.75,429 L813.75,429 L813.75,428.5156 L813.75,428.5156 L814.375,428 L814.75,428 L815.125,428 L815.75,428.5156 L815.75,429 L815.75,431 L815.75,431.4844 L815.125,432 L815.125,432 L814.75,432 L814.375,432 L813.75,431.4844 L813.75,431.4844 L813.75,431 L812.75,431 Z " fill="#000000"/><text fill="#000000" font-family="sans-serif" font-size="12" lengthAdjust="spacing" textLength="30" x="834.75" y="434.9102">Color</text><line style="stroke:#A80036;stroke-width:1.5;" x1="738.5" x2="928.5" y1="446" y2="446"/><ellipse cx="748.5" cy="457" rx="3" ry="3" style="stroke:#038048;stroke-width:1.0;fill:none;"/><text fill="#000000" font-family="sans-serif" font-size="11" lengthAdjust="spacing" textLength="20" x="757.5" y="461.4189">RED</text><ellipse cx="748.5" cy="470.8359" rx="3" ry="3" style="stroke:#038048;stroke-width:1.0;fill:none;"/><text fill="#000000" font-family="sans-serif" font-size="11" lengthAdjust="spacing" textLength="26" x="757.5" y="475.2549">BLUE</text><ellipse cx="748.5" cy="484.6719" rx="3" ry="3" style="stroke:#038048;stroke-width:1.0;fill:none;"/><text fill="#000000" font-family="sans-serif" font-size="11" lengthAdjust="spacing" textLength="44" x="757.5" y="489.0908">YELLOW</text><ellipse cx="748.5" cy="498.5078" rx="3" ry="3" style="stroke:#038048;stroke-width:1.0;fill:none;"/><text fill="#000000" font-family="sans-serif" font-size="11" lengthAdjust="spacing" textLength="34" x="757.5" y="502.9268">GREEN</text><ellipse cx="748.5" cy="512.3438" rx="3" ry="3" style="stroke:#038048;stroke-width:1.0;fill:none;"/><text fill="#000000" font-family="sans-serif" font-size="11" lengthAdjust="spacing" textLength="44" x="757.5" y="516.7627">ORANGE</text><ellipse cx="748.5" cy="526.1797" rx="3" ry="3" style="stroke:#038048;stroke-width:1.0;fill:none;"/><text fill="#000000" font-family="sans-serif" font-size="11" lengthAdjust="spacing" textLength="38" x="757.5" y="530.5986">PURPLE</text><line style="stroke:#A80036;stroke-width:1.5;" x1="738.5" x2="928.5" y1="537.0156" y2="537.0156"/><ellipse cx="748.5" cy="548.0156" fill="#84BE84" rx="3" ry="3" style="stroke:#038048;stroke-width:1.0;"/><text fill="#000000" font-family="sans-serif" font-size="11" lengthAdjust="spacing" text-decoration="underline" textLength="124" x="757.5" y="552.4346">parseSymbol(char): Color</text><ellipse cx="748.5" cy="561.8516" fill="#84BE84" rx="3" ry="3" style="stroke:#038048;stroke-width:1.0;"/><text fill="#000000" font-family="sans-serif" font-size="11" lengthAdjust="spacing" text-decoration="underline" textLength="166" x="757.5" y="566.2705">getAllowedSymbolsString(): String</text><ellipse cx="748.5" cy="575.6875" fill="#84BE84" rx="3" ry="3" style="stroke:#038048;stroke-width:1.0;"/><text fill="#000000" font-family="sans-serif" font-size="11" lengthAdjust="spacing" textLength="86" x="757.5" y="580.1064">getSymbol(): char</text><!--MD5=[9bcb9a691789609c473493f37f542ed0]
class Attempt--><rect codeLine="34" fill="#FEFECE" filter="url(#f1xtcb992x6ke9)" height="103.3438" id="Attempt" style="stroke:#A80036;stroke-width:1.5;" width="202" x="135.5" y="251"/><ellipse cx="211.75" cy="267" fill="#ADD1B2" rx="11" ry="11" style="stroke:#A80036;stroke-width:1.0;"/><path d="M213.75,263.5 Q213.9531,263 214.1875,262.75 Q214.4219,262.5 214.6875,262.5 Q215.1563,262.5 215.4531,262.7813 Q215.75,263.0625 215.75,263.7188 L215.75,265.2813 Q215.75,265.9375 215.4688,266.2188 Q215.1875,266.5 214.75,266.5 Q214.3594,266.5 214.1094,266.3281 Q213.8594,266.1563 213.75,265.7031 Q213.7031,265.3906 213.5313,265.2188 Q213.2188,264.8906 212.6563,264.7031 Q212.0938,264.5 211.5313,264.5 Q210.8281,264.5 210.2344,264.7813 Q209.6563,265.0625 209.2031,265.6875 Q208.75,266.3125 208.75,267.1719 L208.75,268.0938 Q208.75,269.125 209.5938,269.8125 Q210.4375,270.5 211.9375,270.5 Q212.8281,270.5 213.4531,270.2969 Q213.8125,270.1875 214.2188,269.8281 Q214.4844,269.625 214.625,269.5625 Q214.7656,269.5 214.9375,269.5 Q215.2656,269.5 215.5,269.7656 Q215.75,270.0156 215.75,270.375 Q215.75,270.7188 215.4063,271.125 Q214.9063,271.7188 214.1094,272.0469 Q213.0625,272.5 211.7813,272.5 Q210.2813,272.5 209.0781,271.9063 Q208.1094,271.4375 207.4219,270.4219 Q206.75,269.4063 206.75,268.2031 L206.75,267.1094 Q206.75,265.8594 207.3438,264.7656 Q207.9531,263.6719 209,263.0938 Q210.0625,262.5 211.25,262.5 Q211.9688,262.5 212.5938,262.75 Q213.2188,263 213.75,263.5 Z " fill="#000000"/><text fill="#000000" font-family="sans-serif" font-size="12" lengthAdjust="spacing" textLength="41" x="232.25" y="271.9102">Attempt</text><line style="stroke:#A80036;stroke-width:1.5;" x1="136.5" x2="336.5" y1="283" y2="283"/><line style="stroke:#A80036;stroke-width:1.5;" x1="136.5" x2="336.5" y1="291" y2="291"/><ellipse cx="146.5" cy="302" fill="#84BE84" rx="3" ry="3" style="stroke:#038048;stroke-width:1.0;"/><text fill="#000000" font-family="sans-serif" font-size="11" lengthAdjust="spacing" textLength="103" x="155.5" y="306.4189">requestCombination()</text><ellipse cx="146.5" cy="315.8359" fill="#84BE84" rx="3" ry="3" style="stroke:#038048;stroke-width:1.0;"/><text fill="#000000" font-family="sans-serif" font-size="11" lengthAdjust="spacing" textLength="176" x="155.5" y="320.2549">validateMatches(SecretCombination)</text><ellipse cx="146.5" cy="329.6719" fill="#84BE84" rx="3" ry="3" style="stroke:#038048;stroke-width:1.0;"/><text fill="#000000" font-family="sans-serif" font-size="11" lengthAdjust="spacing" textLength="118" x="155.5" y="334.0908">hasFourBlack(): boolean</text><ellipse cx="146.5" cy="343.5078" fill="#84BE84" rx="3" ry="3" style="stroke:#038048;stroke-width:1.0;"/><text fill="#000000" font-family="sans-serif" font-size="11" lengthAdjust="spacing" textLength="29" x="155.5" y="347.9268">print()</text><!--MD5=[4d9851fd6c39f6d400629d5b527788a4]
class MatchResult--><rect codeLine="41" fill="#FEFECE" filter="url(#f1xtcb992x6ke9)" height="75.6719" id="MatchResult" style="stroke:#A80036;stroke-width:1.5;" width="100" x="223.5" y="647"/><ellipse cx="238.5" cy="663" fill="#ADD1B2" rx="11" ry="11" style="stroke:#A80036;stroke-width:1.0;"/><path d="M240.5,659.5 Q240.7031,659 240.9375,658.75 Q241.1719,658.5 241.4375,658.5 Q241.9063,658.5 242.2031,658.7813 Q242.5,659.0625 242.5,659.7188 L242.5,661.2813 Q242.5,661.9375 242.2188,662.2188 Q241.9375,662.5 241.5,662.5 Q241.1094,662.5 240.8594,662.3281 Q240.6094,662.1563 240.5,661.7031 Q240.4531,661.3906 240.2813,661.2188 Q239.9688,660.8906 239.4063,660.7031 Q238.8438,660.5 238.2813,660.5 Q237.5781,660.5 236.9844,660.7813 Q236.4063,661.0625 235.9531,661.6875 Q235.5,662.3125 235.5,663.1719 L235.5,664.0938 Q235.5,665.125 236.3438,665.8125 Q237.1875,666.5 238.6875,666.5 Q239.5781,666.5 240.2031,666.2969 Q240.5625,666.1875 240.9688,665.8281 Q241.2344,665.625 241.375,665.5625 Q241.5156,665.5 241.6875,665.5 Q242.0156,665.5 242.25,665.7656 Q242.5,666.0156 242.5,666.375 Q242.5,666.7188 242.1563,667.125 Q241.6563,667.7188 240.8594,668.0469 Q239.8125,668.5 238.5313,668.5 Q237.0313,668.5 235.8281,667.9063 Q234.8594,667.4375 234.1719,666.4219 Q233.5,665.4063 233.5,664.2031 L233.5,663.1094 Q233.5,661.8594 234.0938,660.7656 Q234.7031,659.6719 235.75,659.0938 Q236.8125,658.5 238,658.5 Q238.7188,658.5 239.3438,658.75 Q239.9688,659 240.5,659.5 Z " fill="#000000"/><text fill="#000000" font-family="sans-serif" font-size="12" lengthAdjust="spacing" textLength="68" x="252.5" y="667.9102">MatchResult</text><line style="stroke:#A80036;stroke-width:1.5;" x1="224.5" x2="322.5" y1="679" y2="679"/><line style="stroke:#A80036;stroke-width:1.5;" x1="224.5" x2="322.5" y1="687" y2="687"/><ellipse cx="234.5" cy="698" fill="#84BE84" rx="3" ry="3" style="stroke:#038048;stroke-width:1.0;"/><text fill="#000000" font-family="sans-serif" font-size="11" lengthAdjust="spacing" textLength="72" x="243.5" y="702.4189">getBlacks(): int</text><ellipse cx="234.5" cy="711.8359" fill="#84BE84" rx="3" ry="3" style="stroke:#038048;stroke-width:1.0;"/><text fill="#000000" font-family="sans-serif" font-size="11" lengthAdjust="spacing" textLength="29" x="243.5" y="716.2549">print()</text><!--MD5=[315b61b427ec618d6861d47eee00cca3]
class Console--><rect codeLine="46" fill="#FEFECE" filter="url(#f1xtcb992x6ke9)" height="75.6719" id="Console" style="stroke:#A80036;stroke-width:1.5;" width="146" x="200.5" y="783"/><ellipse cx="245.75" cy="799" fill="#ADD1B2" rx="11" ry="11" style="stroke:#A80036;stroke-width:1.0;"/><path d="M247.75,795.5 Q247.9531,795 248.1875,794.75 Q248.4219,794.5 248.6875,794.5 Q249.1563,794.5 249.4531,794.7813 Q249.75,795.0625 249.75,795.7188 L249.75,797.2813 Q249.75,797.9375 249.4688,798.2188 Q249.1875,798.5 248.75,798.5 Q248.3594,798.5 248.1094,798.3281 Q247.8594,798.1563 247.75,797.7031 Q247.7031,797.3906 247.5313,797.2188 Q247.2188,796.8906 246.6563,796.7031 Q246.0938,796.5 245.5313,796.5 Q244.8281,796.5 244.2344,796.7813 Q243.6563,797.0625 243.2031,797.6875 Q242.75,798.3125 242.75,799.1719 L242.75,800.0938 Q242.75,801.125 243.5938,801.8125 Q244.4375,802.5 245.9375,802.5 Q246.8281,802.5 247.4531,802.2969 Q247.8125,802.1875 248.2188,801.8281 Q248.4844,801.625 248.625,801.5625 Q248.7656,801.5 248.9375,801.5 Q249.2656,801.5 249.5,801.7656 Q249.75,802.0156 249.75,802.375 Q249.75,802.7188 249.4063,803.125 Q248.9063,803.7188 248.1094,804.0469 Q247.0625,804.5 245.7813,804.5 Q244.2813,804.5 243.0781,803.9063 Q242.1094,803.4375 241.4219,802.4219 Q240.75,801.4063 240.75,800.2031 L240.75,799.1094 Q240.75,797.8594 241.3438,796.7656 Q241.9531,795.6719 243,795.0938 Q244.0625,794.5 245.25,794.5 Q245.9688,794.5 246.5938,794.75 Q247.2188,795 247.75,795.5 Z " fill="#000000"/><text fill="#000000" font-family="sans-serif" font-size="12" lengthAdjust="spacing" textLength="47" x="266.25" y="803.9102">Console</text><line style="stroke:#A80036;stroke-width:1.5;" x1="201.5" x2="345.5" y1="815" y2="815"/><line style="stroke:#A80036;stroke-width:1.5;" x1="201.5" x2="345.5" y1="823" y2="823"/><ellipse cx="211.5" cy="834" fill="#84BE84" rx="3" ry="3" style="stroke:#038048;stroke-width:1.0;"/><text fill="#000000" font-family="sans-serif" font-size="11" lengthAdjust="spacing" textLength="120" x="220.5" y="838.4189">readString(String): String</text><ellipse cx="211.5" cy="847.8359" fill="#84BE84" rx="3" ry="3" style="stroke:#038048;stroke-width:1.0;"/><text fill="#000000" font-family="sans-serif" font-size="11" lengthAdjust="spacing" textLength="61" x="220.5" y="852.2549">write(String)</text><!--MD5=[e652dd51867338aabfcdb642f721cbe3]
link MasterMind to Game--><path codeLine="52" d="M90.9502,78.0505 C90.9502,78.0505 117.29,106.28 129.34,119.18 " fill="none" id="MasterMind-Game" style="stroke:#A80036;stroke-width:1.0;"/><polygon fill="#A80036" points="138.25,128.73,135.0309,119.4221,134.8374,125.0756,129.1839,124.8822,138.25,128.73" style="stroke:#A80036;stroke-width:1.0;"/><line style="stroke:#A80036;stroke-width:1.0;" x1="134.8374" x2="129.375" y1="125.0756" y2="119.225"/><polygon fill="#A80036" points="82.76,69.28,83.9316,76.3953,90.9502,78.0505,89.7786,70.9352,82.76,69.28" style="stroke:#A80036;stroke-width:1.0;"/><text fill="#000000" font-family="sans-serif" font-size="13" lengthAdjust="spacing" textLength="20" x="110.3609" y="118.1789">1..*</text><!--MD5=[b43168cd7d4ff6983073b36bca2f3f94]
link MasterMind to Console--><path codeLine="53" d="M46.31,69.05 C33.83,117.56 11.5,216.3 11.5,301.5 C11.5,301.5 11.5,301.5 11.5,501.5 C11.5,624.88 130.21,726.47 207.82,779.7 " fill="none" id="MasterMind-to-Console" style="stroke:#A80036;stroke-width:1.0;stroke-dasharray:7.0,7.0;"/><polygon fill="#A80036" points="212.4,782.82,207.203,774.454,208.264,780.0104,202.7076,781.0715,212.4,782.82" style="stroke:#A80036;stroke-width:1.0;"/><text fill="#000000" font-family="sans-serif" font-size="13" lengthAdjust="spacing" textLength="21" x="178.6463" y="772.1498">use</text><!--MD5=[946164e5d44554f35a8e38217ba623f1]
link Game to SecretCombination--><path codeLine="55" d="M211.3638,169.8904 C211.3638,169.8904 320.23,204.97 354.5,251 C397.42,308.64 401.27,394.85 398.55,449.09 " fill="none" id="Game-SecretCombination" style="stroke:#A80036;stroke-width:1.0;"/><polygon fill="#A80036" points="397.74,462.16,402.2864,453.4233,398.0478,457.1695,394.3016,452.9308,397.74,462.16" style="stroke:#A80036;stroke-width:1.0;"/><line style="stroke:#A80036;stroke-width:1.0;" x1="398.0478" x2="398.55" y1="457.1695" y2="449.18"/><polygon fill="#A80036" points="199.7,167.07,204.5918,172.3682,211.3638,169.8904,206.4721,164.5923,199.7,167.07" style="stroke:#A80036;stroke-width:1.0;"/><text fill="#000000" font-family="sans-serif" font-size="13" lengthAdjust="spacing" textLength="7" x="390.8672" y="451.7488">1</text><!--MD5=[f983c79fcb9797e92f2db8cdb4bf532e]
link Game to Attempt--><path codeLine="56" d="M186.8707,201.881 C186.8707,201.881 199.33,226.89 205.36,239 " fill="none" id="Game-Attempt" style="stroke:#A80036;stroke-width:1.0;"/><polygon fill="#A80036" points="211.32,250.96,210.8825,241.1209,209.0883,246.4857,203.7235,244.6915,211.32,250.96" style="stroke:#A80036;stroke-width:1.0;"/><line style="stroke:#A80036;stroke-width:1.0;" x1="209.0883" x2="205.52" y1="246.4857" y2="239.32"/><polygon fill="#A80036" points="181.52,191.14,180.615,198.2941,186.8707,201.881,187.7757,194.7269,181.52,191.14" style="stroke:#A80036;stroke-width:1.0;"/><text fill="#000000" font-family="sans-serif" font-size="13" lengthAdjust="spacing" textLength="29" x="176.74" y="240.0829">1..10</text><!--MD5=[7097ac6fc1fcdb4b130fcdb2d13eddb0]
link Game to Console--><path codeLine="57" d="M145.19,191.06 C134.61,207.84 122.94,229.62 117.5,251 C106.21,295.36 113.51,308.4 117.5,354 C132,519.89 107.99,574.08 182.5,723 C192.87,743.73 209.11,763.13 225.01,779.04 " fill="none" id="Game-to-Console" style="stroke:#A80036;stroke-width:1.0;stroke-dasharray:7.0,7.0;"/><polygon fill="#A80036" points="228.61,782.59,225.0188,773.4192,225.0531,779.076,219.3964,779.1102,228.61,782.59" style="stroke:#A80036;stroke-width:1.0;"/><text fill="#000000" font-family="sans-serif" font-size="13" lengthAdjust="spacing" textLength="21" x="222.6992" y="772.1668">use</text><!--MD5=[ed81d3472c9069d2de3c2f5cd308846f]
reverse link Combination to SecretCombination--><path codeLine="59" d="M658.67,340.44 C619.72,361.41 570.52,388.49 527.5,414 C501.63,429.34 473.49,447.12 449.72,462.48 " fill="none" id="Combination-backto-SecretCombination" style="stroke:#A80036;stroke-width:1.0;"/><polygon fill="none" points="655.4,334.25,676.34,330.97,662.02,346.59,655.4,334.25" style="stroke:#A80036;stroke-width:1.0;"/><!--MD5=[2f10888865b2f559cc24db01ac34cee3]
reverse link Combination to ProposedCombination--><path codeLine="60" d="M702.86,351.36 C684.57,385.51 660.32,430.76 643.46,462.23 " fill="none" id="Combination-backto-ProposedCombination" style="stroke:#A80036;stroke-width:1.0;"/><polygon fill="none" points="696.71,348.02,712.32,333.7,709.05,354.63,696.71,348.02" style="stroke:#A80036;stroke-width:1.0;"/><!--MD5=[6e8433e42d71f9427401b78cd95c6f0c]
link Combination to Color--><path codeLine="61" d="M750.3346,344.2842 C750.3346,344.2842 770.64,382.16 781.42,402.28 " fill="none" id="Combination-Color" style="stroke:#A80036;stroke-width:1.0;"/><polygon fill="#A80036" points="787.56,413.75,786.842,403.9273,785.2016,409.3411,779.7879,407.7007,787.56,413.75" style="stroke:#A80036;stroke-width:1.0;"/><line style="stroke:#A80036;stroke-width:1.0;" x1="785.2016" x2="781.43" y1="409.3411" y2="402.295"/><polygon fill="#FFFFFF" points="744.68,333.7,743.9792,340.877,750.3346,344.2842,751.0354,337.1072,744.68,333.7" style="stroke:#A80036;stroke-width:1.0;"/><text fill="#000000" font-family="sans-serif" font-size="13" lengthAdjust="spacing" textLength="7" x="776.3113" y="403.1381">4</text><!--MD5=[c18c22d16d6b613a1103e7c45447464d]
link Combination to Console--><path codeLine="62" d="M780.77,313.49 C833.24,326.6 911.34,355.25 947.5,414 C987.8,479.48 992.11,524.38 947.5,587 C809.24,781.08 497.9,815.03 351.88,819.93 " fill="none" id="Combination-to-Console" style="stroke:#A80036;stroke-width:1.0;stroke-dasharray:7.0,7.0;"/><polygon fill="#A80036" points="346.76,820.09,355.8815,823.8045,351.7575,819.9325,355.6295,815.8085,346.76,820.09" style="stroke:#A80036;stroke-width:1.0;"/><text fill="#000000" font-family="sans-serif" font-size="13" lengthAdjust="spacing" textLength="21" x="354.4816" y="816.7951">use</text><!--MD5=[6bfe31e80e6e77060baa4b8d6064148a]
link ProposedCombination to Console--><path codeLine="64" d="M582.67,538.66 C516.63,598.75 386.9,716.81 318.37,779.17 " fill="none" id="ProposedCombination-to-Console" style="stroke:#A80036;stroke-width:1.0;stroke-dasharray:7.0,7.0;"/><polygon fill="#A80036" points="314.34,782.83,323.6866,779.7249,318.0358,779.4624,318.2984,773.8116,314.34,782.83" style="stroke:#A80036;stroke-width:1.0;"/><text fill="#000000" font-family="sans-serif" font-size="13" lengthAdjust="spacing" textLength="21" x="323.4849" y="772.1616">use</text><!--MD5=[c3de1c6f8df7a39e1e4f7a2198796db0]
link SecretCombination to MatchResult--><path codeLine="66" d="M368.93,538.87 C349.12,568.99 321.3,611.3 300.8,642.47 " fill="none" id="SecretCombination-to-MatchResult" style="stroke:#A80036;stroke-width:1.0;stroke-dasharray:7.0,7.0;"/><polygon fill="#A80036" points="297.84,646.99,306.1269,641.6676,300.587,642.8122,299.4424,637.2724,297.84,646.99" style="stroke:#A80036;stroke-width:1.0;"/><text fill="#000000" font-family="sans-serif" font-size="13" lengthAdjust="spacing" textLength="33" x="305.3699" y="636.0647">return</text><!--MD5=[336a78eb14894e486e0ed36e439320b7]
link SecretCombination to Console--><path codeLine="67" d="M388.91,538.52 C382.36,583.62 367.97,661.43 340.5,723 C331.81,742.47 319.1,762.16 307.08,778.66 " fill="none" id="SecretCombination-to-Console" style="stroke:#A80036;stroke-width:1.0;stroke-dasharray:7.0,7.0;"/><polygon fill="#A80036" points="304.04,782.78,312.6014,777.9114,307.0079,778.7562,306.1632,773.1627,304.04,782.78" style="stroke:#A80036;stroke-width:1.0;"/><text fill="#000000" font-family="sans-serif" font-size="13" lengthAdjust="spacing" textLength="21" x="286.6096" y="772.1027">use</text><!--MD5=[c3b6e9141ca66a2df45be84a2594994a]
link Attempt to ProposedCombination--><path codeLine="69" d="M349.049,335.5595 C349.049,335.5595 472.52,380.65 527.5,414 C545.5,424.92 563.27,439.4 578.54,453.34 " fill="none" id="Attempt-ProposedCombination" style="stroke:#A80036;stroke-width:1.0;"/><polygon fill="#A80036" points="588.18,462.37,584.3463,453.2979,584.5309,458.9518,578.8771,459.1364,588.18,462.37" style="stroke:#A80036;stroke-width:1.0;"/><line style="stroke:#A80036;stroke-width:1.0;" x1="584.5309" x2="578.7" y1="458.9518" y2="453.49"/><polygon fill="#A80036" points="337.64,331.84,342.1047,337.5027,349.049,335.5595,344.5843,329.8967,337.64,331.84" style="stroke:#A80036;stroke-width:1.0;"/><text fill="#000000" font-family="sans-serif" font-size="13" lengthAdjust="spacing" textLength="7" x="574.2652" y="451.7087">1</text><!--MD5=[bc993912527ebd2ac39a20bf274f2aa6]
link Attempt to MatchResult--><path codeLine="70" d="M240.4444,366.003 C240.4444,366.003 251.02,511.7 259.5,587 C261.21,602.15 263.43,618.57 265.61,633.52 " fill="none" id="Attempt-MatchResult" style="stroke:#A80036;stroke-width:1.0;"/><polygon fill="#A80036" points="267.57,646.76,270.201,637.2691,266.8337,641.8145,262.2882,638.4472,267.57,646.76" style="stroke:#A80036;stroke-width:1.0;"/><line style="stroke:#A80036;stroke-width:1.0;" x1="266.8337" x2="265.66" y1="641.8145" y2="633.9"/><polygon fill="#FFFFFF" points="239.64,354.03,236.0512,360.2846,240.4444,366.003,244.0332,359.7484,239.64,354.03" style="stroke:#A80036;stroke-width:1.0;"/><text fill="#000000" font-family="sans-serif" font-size="13" lengthAdjust="spacing" textLength="7" x="258.8903" y="636.0792">1</text><!--MD5=[77aabc52e3a95fdad3c43e0de7f60d95]
link Attempt to SecretCombination--><path codeLine="71" d="M277.14,354.23 C303.05,386.58 336.2,427.96 360.48,458.28 " fill="none" id="Attempt-to-SecretCombination" style="stroke:#A80036;stroke-width:1.0;stroke-dasharray:7.0,7.0;"/><polygon fill="#A80036" points="363.7,462.29,361.1885,452.7668,360.5713,458.3898,354.9482,457.7727,363.7,462.29" style="stroke:#A80036;stroke-width:1.0;"/><text fill="#000000" font-family="sans-serif" font-size="13" lengthAdjust="spacing" textLength="21" x="335.5216" y="451.6145">use</text><!--MD5=[eecf70faa83866d3cc3af0d7cf835631]
link Attempt to Console--><path codeLine="72" d="M220.84,354.3 C198.67,434.64 165.11,595.03 205.5,723 C211.83,743.07 223.97,762.59 236.26,778.8 " fill="none" id="Attempt-to-Console" style="stroke:#A80036;stroke-width:1.0;stroke-dasharray:7.0,7.0;"/><polygon fill="#A80036" points="239.38,782.85,237.0431,773.2824,236.3232,778.8933,230.7123,778.1733,239.38,782.85" style="stroke:#A80036;stroke-width:1.0;"/><text fill="#000000" font-family="sans-serif" font-size="13" lengthAdjust="spacing" textLength="21" x="210.4321" y="772.1852">use</text><!--MD5=[e1b778e8facf4ddce7b670d83095f7b2]
link MatchResult to Console--><path codeLine="74" d="M273.5,723.33 C273.5,740.17 273.5,760.15 273.5,777.56 " fill="none" id="MatchResult-to-Console" style="stroke:#A80036;stroke-width:1.0;stroke-dasharray:7.0,7.0;"/><polygon fill="#A80036" points="273.5,782.87,277.5,773.87,273.5,777.87,269.5,773.87,273.5,782.87" style="stroke:#A80036;stroke-width:1.0;"/><text fill="#000000" font-family="sans-serif" font-size="13" lengthAdjust="spacing" textLength="21" x="250.6297" y="772.2087">use</text><!--MD5=[6b272f98fe7a77b0b2d25e29df4e9a6d]
@startuml
class MasterMind {
    +play()
}

class Game {
    +start()
}

abstract class Combination {
    +print()
}
class SecretCombination {
    +print()
    +match(ProposedCombination): MatchResult
}
class ProposedCombination {
    +read()
    +isValid(): boolean
}

enum Color {
    +RED
    +BLUE
    +YELLOW
    +GREEN
    +ORANGE
    +PURPLE

    +{static}parseSymbol(char): Color
    +{static}getAllowedSymbolsString(): String
    +getSymbol(): char
}

class Attempt {
    +requestCombination()
    +validateMatches(SecretCombination)
    +hasFourBlack(): boolean
    +print()
}

class MatchResult {
    +getBlacks(): int
    +print()
}

class Console {
    +readString(String): String
    +write(String)
}


MasterMind *- -> "1..*" Game
MasterMind ..> "use" Console

Game *- -> "1" SecretCombination
Game *- -> "1..10" Attempt
Game ..> "use" Console

Combination <|- - SecretCombination
Combination <|- - ProposedCombination
Combination o- -> "4" Color
Combination ..> "use" Console

ProposedCombination ..> "use" Console

SecretCombination ..> "return" MatchResult
SecretCombination ..> "use" Console

Attempt *- -> "1" ProposedCombination
Attempt o- -> "1" MatchResult
Attempt ..> "use" SecretCombination
Attempt ..> "use" Console

MatchResult ..> "use" Console

@enduml

PlantUML version 1.2021.4(Sun Apr 04 03:49:39 CDT 2021)
(GPL source distribution)
Java Runtime: OpenJDK Runtime Environment
JVM: Dynamic Code Evolution 64-Bit Server VM
Default Encoding: Cp1252
Language: en
Country: US
--></g></svg>