<?xml version="1.0" encoding="UTF-8" standalone="no"?><svg xmlns="http://www.w3.org/2000/svg" xmlns:xlink="http://www.w3.org/1999/xlink" contentScriptType="application/ecmascript" contentStyleType="text/css" height="1634px" preserveAspectRatio="none" style="width:2463px;height:1634px;" version="1.1" viewBox="0 0 2463 1634" width="2463px" zoomAndPan="magnify"><defs><filter height="300%" id="ftu0tqhjtkmew" width="300%" x="-1" y="-1"><feGaussianBlur result="blurOut" stdDeviation="2.0"/><feColorMatrix in="blurOut" result="blurOut2" type="matrix" values="0 0 0 0 0 0 0 0 0 0 0 0 0 0 0 0 0 0 .4 0"/><feOffset dx="4.0" dy="4.0" in="blurOut2" result="blurOut3"/><feBlend in="SourceGraphic" in2="blurOut3" mode="normal"/></filter></defs><g><!--MD5=[b56d8ef9af079015670ad96965866810]
cluster mastermind--><polygon fill="#FFFFFF" filter="url(#ftu0tqhjtkmew)" points="1893.57,6,1981.57,6,1988.57,29.6094,2244.57,29.6094,2244.57,279,1893.57,279,1893.57,6" style="stroke:#000000;stroke-width:1.5;"/><line style="stroke:#000000;stroke-width:1.5;" x1="1893.57" x2="1988.57" y1="29.6094" y2="29.6094"/><text fill="#000000" font-family="sans-serif" font-size="14" font-weight="bold" lengthAdjust="spacing" textLength="82" x="1897.57" y="22.5332">mastermind</text><!--MD5=[e2a75efa8a0f57c2afae8bf75386f79c]
cluster views--><polygon fill="#FFFFFF" filter="url(#ftu0tqhjtkmew)" points="20.57,151,67.57,151,74.57,174.6094,1869.57,174.6094,1869.57,648,20.57,648,20.57,151" style="stroke:#000000;stroke-width:1.5;"/><line style="stroke:#000000;stroke-width:1.5;" x1="20.57" x2="74.57" y1="174.6094" y2="174.6094"/><text fill="#000000" font-family="sans-serif" font-size="14" font-weight="bold" lengthAdjust="spacing" textLength="41" x="24.57" y="167.5332">views</text><!--MD5=[dfaa60d7dfb362bcb244f130379075fa]
cluster v.c--><polygon fill="#FFFFFF" filter="url(#ftu0tqhjtkmew)" points="998.57,349,1060.57,349,1067.57,372.6094,1837.57,372.6094,1837.57,616,998.57,616,998.57,349" style="stroke:#000000;stroke-width:1.5;"/><line style="stroke:#000000;stroke-width:1.5;" x1="998.57" x2="1067.57" y1="372.6094" y2="372.6094"/><text fill="#000000" font-family="sans-serif" font-size="14" font-weight="bold" lengthAdjust="spacing" textLength="56" x="1002.57" y="365.5332">console</text><!--MD5=[5c7f87173935b24fa84626a0ac4e4222]
cluster views.graphic--><polygon fill="#FFFFFF" filter="url(#ftu0tqhjtkmew)" points="44.57,371,103.57,371,110.57,394.6094,581.57,394.6094,581.57,601,44.57,601,44.57,371" style="stroke:#000000;stroke-width:1.5;"/><line style="stroke:#000000;stroke-width:1.5;" x1="44.57" x2="110.57" y1="394.6094" y2="394.6094"/><text fill="#000000" font-family="sans-serif" font-size="14" font-weight="bold" lengthAdjust="spacing" textLength="53" x="48.57" y="387.5332">graphic</text><!--MD5=[a60570e4b426f702ccbb0d459e3b9417]
cluster models--><polygon fill="#FFFFFF" filter="url(#ftu0tqhjtkmew)" points="1005.57,681,1062.57,681,1069.57,704.6094,1369.57,704.6094,1369.57,1592,1005.57,1592,1005.57,681" style="stroke:#000000;stroke-width:1.5;"/><line style="stroke:#000000;stroke-width:1.5;" x1="1005.57" x2="1069.57" y1="704.6094" y2="704.6094"/><text fill="#000000" font-family="sans-serif" font-size="14" font-weight="bold" lengthAdjust="spacing" textLength="51" x="1009.57" y="697.5332">models</text><!--MD5=[67cd15ce44b6dd54f77054b62c31bf42]
cluster types--><polygon fill="#FFFFFF" filter="url(#ftu0tqhjtkmew)" points="1393.57,1402,1437.57,1402,1444.57,1425.6094,1617.57,1425.6094,1617.57,1627,1393.57,1627,1393.57,1402" style="stroke:#000000;stroke-width:1.5;"/><line style="stroke:#000000;stroke-width:1.5;" x1="1393.57" x2="1444.57" y1="1425.6094" y2="1425.6094"/><text fill="#000000" font-family="sans-serif" font-size="14" font-weight="bold" lengthAdjust="spacing" textLength="38" x="1397.57" y="1418.5332">types</text><!--MD5=[c52f45833d539af9e29a9d34b8b7302b]
cluster utils--><polygon fill="#FFFFFF" filter="url(#ftu0tqhjtkmew)" points="2268.57,158,2304.57,158,2311.57,181.6094,2446.57,181.6094,2446.57,286,2268.57,286,2268.57,158" style="stroke:#000000;stroke-width:1.5;"/><line style="stroke:#000000;stroke-width:1.5;" x1="2268.57" x2="2311.57" y1="181.6094" y2="181.6094"/><text fill="#000000" font-family="sans-serif" font-size="14" font-weight="bold" lengthAdjust="spacing" textLength="30" x="2272.57" y="174.5332">utils</text><!--MD5=[3690083fa3c0b91189e580515c0d9fca]
class mastermind.Mastermind--><rect codeLine="2" fill="#FEFECE" filter="url(#ftu0tqhjtkmew)" height="61.8359" id="mastermind.Mastermind" style="stroke:#A80036;stroke-width:1.5;" width="96" x="1931.57" y="42"/><ellipse cx="1946.57" cy="58" fill="#A9DCDF" rx="11" ry="11" style="stroke:#A80036;stroke-width:1.0;"/><path d="M1948.32,59.5 L1945.0231,59.5 L1944.5856,60.5 L1944.5856,60.5 L1945.0544,60.5 L1945.57,61.125 L1945.57,61.5 L1945.57,61.875 L1945.0544,62.5 L1944.5856,62.5 L1942.695,62.5 L1942.0856,62.5 L1941.57,61.875 L1941.57,61.5 L1941.57,61.125 L1942.0856,60.5 L1942.695,60.5 L1945.0075,54.5 L1944.1325,54.5 L1943.0856,54.5 L1942.57,53.875 L1942.57,53.5 L1942.57,53.125 L1943.0856,52.5 L1944.1325,52.5 L1947.8044,52.5 L1950.4919,60.5 L1951.0544,60.5 L1951.0544,60.5 L1951.57,61.125 L1951.57,61.5 L1951.57,61.875 L1951.0544,62.5 L1950.4919,62.5 L1948.6013,62.5 L1948.0856,62.5 L1947.57,61.875 L1947.57,61.5 L1947.57,61.125 L1948.0856,60.5 L1948.6013,60.5 L1948.6013,60.5 L1948.32,59.5 Z M1947.7731,57.5 L1946.57,53.9219 L1945.5388,57.5 L1947.7731,57.5 Z " fill="#000000"/><text fill="#000000" font-family="sans-serif" font-size="12" font-style="italic" lengthAdjust="spacing" textLength="64" x="1960.57" y="62.9102">Mastermind</text><line style="stroke:#A80036;stroke-width:1.5;" x1="1932.57" x2="2026.57" y1="74" y2="74"/><line style="stroke:#A80036;stroke-width:1.5;" x1="1932.57" x2="2026.57" y1="82" y2="82"/><ellipse cx="1942.57" cy="93" fill="#84BE84" rx="3" ry="3" style="stroke:#038048;stroke-width:1.0;"/><text fill="#000000" font-family="sans-serif" font-size="11" lengthAdjust="spacing" textLength="28" x="1951.57" y="97.4189">play()</text><!--MD5=[9d86695c102c0f315477fb61b956f99d]
class mastermind.ConsoleMastermind--><rect codeLine="7" fill="#FEFECE" filter="url(#ftu0tqhjtkmew)" height="61.8359" id="mastermind.ConsoleMastermind" style="stroke:#A80036;stroke-width:1.5;" width="144" x="2084.57" y="201"/><ellipse cx="2099.57" cy="217" fill="#ADD1B2" rx="11" ry="11" style="stroke:#A80036;stroke-width:1.0;"/><path d="M2101.57,213.5 Q2101.7731,213 2102.0075,212.75 Q2102.2419,212.5 2102.5075,212.5 Q2102.9763,212.5 2103.2731,212.7813 Q2103.57,213.0625 2103.57,213.7188 L2103.57,215.2813 Q2103.57,215.9375 2103.2888,216.2188 Q2103.0075,216.5 2102.57,216.5 Q2102.1794,216.5 2101.9294,216.3281 Q2101.6794,216.1563 2101.57,215.7031 Q2101.5231,215.3906 2101.3513,215.2188 Q2101.0388,214.8906 2100.4763,214.7031 Q2099.9138,214.5 2099.3513,214.5 Q2098.6481,214.5 2098.0544,214.7813 Q2097.4763,215.0625 2097.0231,215.6875 Q2096.57,216.3125 2096.57,217.1719 L2096.57,218.0938 Q2096.57,219.125 2097.4138,219.8125 Q2098.2575,220.5 2099.7575,220.5 Q2100.6481,220.5 2101.2731,220.2969 Q2101.6325,220.1875 2102.0388,219.8281 Q2102.3044,219.625 2102.445,219.5625 Q2102.5856,219.5 2102.7575,219.5 Q2103.0856,219.5 2103.32,219.7656 Q2103.57,220.0156 2103.57,220.375 Q2103.57,220.7188 2103.2263,221.125 Q2102.7263,221.7188 2101.9294,222.0469 Q2100.8825,222.5 2099.6013,222.5 Q2098.1013,222.5 2096.8981,221.9063 Q2095.9294,221.4375 2095.2419,220.4219 Q2094.57,219.4063 2094.57,218.2031 L2094.57,217.1094 Q2094.57,215.8594 2095.1638,214.7656 Q2095.7731,213.6719 2096.82,213.0938 Q2097.8825,212.5 2099.07,212.5 Q2099.7888,212.5 2100.4138,212.75 Q2101.0388,213 2101.57,213.5 Z " fill="#000000"/><text fill="#000000" font-family="sans-serif" font-size="12" lengthAdjust="spacing" textLength="112" x="2113.57" y="221.9102">ConsoleMastermind</text><line style="stroke:#A80036;stroke-width:1.5;" x1="2085.57" x2="2227.57" y1="233" y2="233"/><line style="stroke:#A80036;stroke-width:1.5;" x1="2085.57" x2="2227.57" y1="241" y2="241"/><ellipse cx="2095.57" cy="252" fill="#84BE84" rx="3" ry="3" style="stroke:#038048;stroke-width:1.0;"/><text fill="#000000" font-family="sans-serif" font-size="11" lengthAdjust="spacing" text-decoration="underline" textLength="92" x="2104.57" y="256.4189">main(args: String[])</text><!--MD5=[c5584fdde75c159822f491248b465f9f]
class mastermind.GraphicMastermind--><rect codeLine="11" fill="#FEFECE" filter="url(#ftu0tqhjtkmew)" height="61.8359" id="mastermind.GraphicMastermind" style="stroke:#A80036;stroke-width:1.5;" width="140" x="1909.57" y="201"/><ellipse cx="1924.57" cy="217" fill="#ADD1B2" rx="11" ry="11" style="stroke:#A80036;stroke-width:1.0;"/><path d="M1926.57,213.5 Q1926.7731,213 1927.0075,212.75 Q1927.2419,212.5 1927.5075,212.5 Q1927.9763,212.5 1928.2731,212.7813 Q1928.57,213.0625 1928.57,213.7188 L1928.57,215.2813 Q1928.57,215.9375 1928.2888,216.2188 Q1928.0075,216.5 1927.57,216.5 Q1927.1794,216.5 1926.9294,216.3281 Q1926.6794,216.1563 1926.57,215.7031 Q1926.5231,215.3906 1926.3513,215.2188 Q1926.0388,214.8906 1925.4763,214.7031 Q1924.9138,214.5 1924.3513,214.5 Q1923.6481,214.5 1923.0544,214.7813 Q1922.4763,215.0625 1922.0231,215.6875 Q1921.57,216.3125 1921.57,217.1719 L1921.57,218.0938 Q1921.57,219.125 1922.4138,219.8125 Q1923.2575,220.5 1924.7575,220.5 Q1925.6481,220.5 1926.2731,220.2969 Q1926.6325,220.1875 1927.0388,219.8281 Q1927.3044,219.625 1927.445,219.5625 Q1927.5856,219.5 1927.7575,219.5 Q1928.0856,219.5 1928.32,219.7656 Q1928.57,220.0156 1928.57,220.375 Q1928.57,220.7188 1928.2263,221.125 Q1927.7263,221.7188 1926.9294,222.0469 Q1925.8825,222.5 1924.6013,222.5 Q1923.1013,222.5 1921.8981,221.9063 Q1920.9294,221.4375 1920.2419,220.4219 Q1919.57,219.4063 1919.57,218.2031 L1919.57,217.1094 Q1919.57,215.8594 1920.1638,214.7656 Q1920.7731,213.6719 1921.82,213.0938 Q1922.8825,212.5 1924.07,212.5 Q1924.7888,212.5 1925.4138,212.75 Q1926.0388,213 1926.57,213.5 Z " fill="#000000"/><text fill="#000000" font-family="sans-serif" font-size="12" lengthAdjust="spacing" textLength="108" x="1938.57" y="221.9102">GraphicMastermind</text><line style="stroke:#A80036;stroke-width:1.5;" x1="1910.57" x2="2048.57" y1="233" y2="233"/><line style="stroke:#A80036;stroke-width:1.5;" x1="1910.57" x2="2048.57" y1="241" y2="241"/><ellipse cx="1920.57" cy="252" fill="#84BE84" rx="3" ry="3" style="stroke:#038048;stroke-width:1.0;"/><text fill="#000000" font-family="sans-serif" font-size="11" lengthAdjust="spacing" text-decoration="underline" textLength="92" x="1929.57" y="256.4189">main(args: String[])</text><!--MD5=[c08510981353a076a393ca6699f69b3d]
class views.MainView--><rect codeLine="80" fill="#FEFECE" filter="url(#ftu0tqhjtkmew)" height="89.5078" id="views.MainView" style="stroke:#A80036;stroke-width:1.5;" width="114" x="775.57" y="187"/><ellipse cx="804.07" cy="203" fill="#A9DCDF" rx="11" ry="11" style="stroke:#A80036;stroke-width:1.0;"/><path d="M805.82,204.5 L802.5231,204.5 L802.0856,205.5 L802.0856,205.5 L802.5544,205.5 L803.07,206.125 L803.07,206.5 L803.07,206.875 L802.5544,207.5 L802.0856,207.5 L800.195,207.5 L799.5856,207.5 L799.07,206.875 L799.07,206.5 L799.07,206.125 L799.5856,205.5 L800.195,205.5 L802.5075,199.5 L801.6325,199.5 L800.5856,199.5 L800.07,198.875 L800.07,198.5 L800.07,198.125 L800.5856,197.5 L801.6325,197.5 L805.3044,197.5 L807.9919,205.5 L808.5544,205.5 L808.5544,205.5 L809.07,206.125 L809.07,206.5 L809.07,206.875 L808.5544,207.5 L807.9919,207.5 L806.1013,207.5 L805.5856,207.5 L805.07,206.875 L805.07,206.5 L805.07,206.125 L805.5856,205.5 L806.1013,205.5 L806.1013,205.5 L805.82,204.5 Z M805.2731,202.5 L804.07,198.9219 L803.0388,202.5 L805.2731,202.5 Z " fill="#000000"/><text fill="#000000" font-family="sans-serif" font-size="12" font-style="italic" lengthAdjust="spacing" textLength="52" x="821.07" y="207.9102">MainView</text><line style="stroke:#A80036;stroke-width:1.5;" x1="776.57" x2="888.57" y1="219" y2="219"/><line style="stroke:#A80036;stroke-width:1.5;" x1="776.57" x2="888.57" y1="227" y2="227"/><ellipse cx="786.57" cy="238" fill="#84BE84" rx="3" ry="3" style="stroke:#038048;stroke-width:1.0;"/><text fill="#000000" font-family="sans-serif" font-size="11" lengthAdjust="spacing" textLength="30" x="795.57" y="242.4189">start()</text><ellipse cx="786.57" cy="251.8359" fill="#84BE84" rx="3" ry="3" style="stroke:#038048;stroke-width:1.0;"/><text fill="#000000" font-family="sans-serif" font-size="11" lengthAdjust="spacing" textLength="88" x="795.57" y="256.2549">resume(): boolean</text><ellipse cx="786.57" cy="265.6719" fill="#84BE84" rx="3" ry="3" style="stroke:#038048;stroke-width:1.0;"/><text fill="#000000" font-family="sans-serif" font-size="11" lengthAdjust="spacing" textLength="71" x="795.57" y="270.0908">sayGoodBye()</text><!--MD5=[0e9cede7ddd4e4e36ab8b254b2681755]
class views.GameView--><rect codeLine="89" fill="#FEFECE" filter="url(#ftu0tqhjtkmew)" height="61.8359" id="views.GameView" style="stroke:#A80036;stroke-width:1.5;" width="92" x="597.57" y="400"/><ellipse cx="612.57" cy="416" fill="#B4A7E5" rx="11" ry="11" style="stroke:#A80036;stroke-width:1.0;"/><path d="M613.57,413 L613.57,419 L615.57,419 L616.0544,419 L616.57,419.625 L616.57,420 L616.57,420.375 L616.0544,421 L615.57,421 L609.57,421 L609.0856,421 L608.57,420.375 L608.57,420 L608.57,419.625 L609.0856,419 L609.57,419 L611.57,419 L611.57,413 L609.57,413 L609.0856,413 L608.57,412.375 L608.57,412 L608.57,411.625 L609.0856,411 L609.57,411 L615.57,411 L616.0544,411 L616.57,411.625 L616.57,412 L616.57,412.375 L616.0544,413 L615.57,413 L613.57,413 Z " fill="#000000"/><text fill="#000000" font-family="sans-serif" font-size="12" font-style="italic" lengthAdjust="spacing" textLength="60" x="626.57" y="420.9102">GameView</text><line style="stroke:#A80036;stroke-width:1.5;" x1="598.57" x2="688.57" y1="432" y2="432"/><line style="stroke:#A80036;stroke-width:1.5;" x1="598.57" x2="688.57" y1="440" y2="440"/><ellipse cx="608.57" cy="451" fill="#84BE84" rx="3" ry="3" style="stroke:#038048;stroke-width:1.0;"/><text fill="#000000" font-family="sans-serif" font-size="11" lengthAdjust="spacing" textLength="36" x="617.57" y="455.4189">show()</text><!--MD5=[efe083823ff420907f2c8e105cba547e]
class views.ResumeView--><rect codeLine="93" fill="#FEFECE" filter="url(#ftu0tqhjtkmew)" height="61.8359" id="views.ResumeView" style="stroke:#A80036;stroke-width:1.5;" width="105" x="725.07" y="400"/><ellipse cx="740.07" cy="416" fill="#B4A7E5" rx="11" ry="11" style="stroke:#A80036;stroke-width:1.0;"/><path d="M741.07,413 L741.07,419 L743.07,419 L743.5544,419 L744.07,419.625 L744.07,420 L744.07,420.375 L743.5544,421 L743.07,421 L737.07,421 L736.5856,421 L736.07,420.375 L736.07,420 L736.07,419.625 L736.5856,419 L737.07,419 L739.07,419 L739.07,413 L737.07,413 L736.5856,413 L736.07,412.375 L736.07,412 L736.07,411.625 L736.5856,411 L737.07,411 L743.07,411 L743.5544,411 L744.07,411.625 L744.07,412 L744.07,412.375 L743.5544,413 L743.07,413 L741.07,413 Z " fill="#000000"/><text fill="#000000" font-family="sans-serif" font-size="12" font-style="italic" lengthAdjust="spacing" textLength="73" x="754.07" y="420.9102">ResumeView</text><line style="stroke:#A80036;stroke-width:1.5;" x1="726.07" x2="829.07" y1="432" y2="432"/><line style="stroke:#A80036;stroke-width:1.5;" x1="726.07" x2="829.07" y1="440" y2="440"/><text fill="#000000" font-family="sans-serif" font-size="11" lengthAdjust="spacing" textLength="88" x="731.07" y="455.4189">interact(): boolean</text><!--MD5=[11ccf0efc881f7dbbe0bbf00a4409984]
class views.GoodbyeView--><rect codeLine="97" fill="#FEFECE" filter="url(#ftu0tqhjtkmew)" height="48" id="views.GoodbyeView" style="stroke:#A80036;stroke-width:1.5;" width="109" x="865.07" y="407"/><ellipse cx="880.07" cy="423" fill="#B4A7E5" rx="11" ry="11" style="stroke:#A80036;stroke-width:1.0;"/><path d="M881.07,420 L881.07,426 L883.07,426 L883.5544,426 L884.07,426.625 L884.07,427 L884.07,427.375 L883.5544,428 L883.07,428 L877.07,428 L876.5856,428 L876.07,427.375 L876.07,427 L876.07,426.625 L876.5856,426 L877.07,426 L879.07,426 L879.07,420 L877.07,420 L876.5856,420 L876.07,419.375 L876.07,419 L876.07,418.625 L876.5856,418 L877.07,418 L883.07,418 L883.5544,418 L884.07,418.625 L884.07,419 L884.07,419.375 L883.5544,420 L883.07,420 L881.07,420 Z " fill="#000000"/><text fill="#000000" font-family="sans-serif" font-size="12" font-style="italic" lengthAdjust="spacing" textLength="77" x="894.07" y="427.9102">GoodbyeView</text><line style="stroke:#A80036;stroke-width:1.5;" x1="866.07" x2="973.07" y1="439" y2="439"/><line style="stroke:#A80036;stroke-width:1.5;" x1="866.07" x2="973.07" y1="447" y2="447"/><!--MD5=[54880d877ae1e2a2c0863afcfe858e72]
class ConsoleMainView--><rect codeLine="100" fill="#FEFECE" filter="url(#ftu0tqhjtkmew)" height="75.6719" id="ConsoleMainView" style="stroke:#A80036;stroke-width:1.5;" width="131" x="1241.07" y="393"/><ellipse cx="1256.07" cy="409" fill="#ADD1B2" rx="11" ry="11" style="stroke:#A80036;stroke-width:1.0;"/><path d="M1258.07,405.5 Q1258.2731,405 1258.5075,404.75 Q1258.7419,404.5 1259.0075,404.5 Q1259.4763,404.5 1259.7731,404.7813 Q1260.07,405.0625 1260.07,405.7188 L1260.07,407.2813 Q1260.07,407.9375 1259.7888,408.2188 Q1259.5075,408.5 1259.07,408.5 Q1258.6794,408.5 1258.4294,408.3281 Q1258.1794,408.1563 1258.07,407.7031 Q1258.0231,407.3906 1257.8513,407.2188 Q1257.5388,406.8906 1256.9763,406.7031 Q1256.4138,406.5 1255.8513,406.5 Q1255.1481,406.5 1254.5544,406.7813 Q1253.9763,407.0625 1253.5231,407.6875 Q1253.07,408.3125 1253.07,409.1719 L1253.07,410.0938 Q1253.07,411.125 1253.9138,411.8125 Q1254.7575,412.5 1256.2575,412.5 Q1257.1481,412.5 1257.7731,412.2969 Q1258.1325,412.1875 1258.5388,411.8281 Q1258.8044,411.625 1258.945,411.5625 Q1259.0856,411.5 1259.2575,411.5 Q1259.5856,411.5 1259.82,411.7656 Q1260.07,412.0156 1260.07,412.375 Q1260.07,412.7188 1259.7263,413.125 Q1259.2263,413.7188 1258.4294,414.0469 Q1257.3825,414.5 1256.1013,414.5 Q1254.6013,414.5 1253.3981,413.9063 Q1252.4294,413.4375 1251.7419,412.4219 Q1251.07,411.4063 1251.07,410.2031 L1251.07,409.1094 Q1251.07,407.8594 1251.6638,406.7656 Q1252.2731,405.6719 1253.32,405.0938 Q1254.3825,404.5 1255.57,404.5 Q1256.2888,404.5 1256.9138,404.75 Q1257.5388,405 1258.07,405.5 Z " fill="#000000"/><text fill="#000000" font-family="sans-serif" font-size="12" lengthAdjust="spacing" textLength="99" x="1270.07" y="413.9102">ConsoleMainView</text><line style="stroke:#A80036;stroke-width:1.5;" x1="1242.07" x2="1371.07" y1="425" y2="425"/><line style="stroke:#A80036;stroke-width:1.5;" x1="1242.07" x2="1371.07" y1="433" y2="433"/><ellipse cx="1252.07" cy="444" fill="#84BE84" rx="3" ry="3" style="stroke:#038048;stroke-width:1.0;"/><text fill="#000000" font-family="sans-serif" font-size="11" lengthAdjust="spacing" textLength="36" x="1261.07" y="448.4189">show()</text><ellipse cx="1252.07" cy="457.8359" fill="#84BE84" rx="3" ry="3" style="stroke:#038048;stroke-width:1.0;"/><text fill="#000000" font-family="sans-serif" font-size="11" lengthAdjust="spacing" textLength="105" x="1261.07" y="462.2549">isResumed(): boolean</text><!--MD5=[adfe7246d3496e52783de8f8b21ca93e]
class ConsoleGameView--><rect codeLine="110" fill="#FEFECE" filter="url(#ftu0tqhjtkmew)" height="48" id="ConsoleGameView" style="stroke:#A80036;stroke-width:1.5;" width="139" x="1023.07" y="537"/><ellipse cx="1038.07" cy="553" fill="#ADD1B2" rx="11" ry="11" style="stroke:#A80036;stroke-width:1.0;"/><path d="M1040.07,549.5 Q1040.2731,549 1040.5075,548.75 Q1040.7419,548.5 1041.0075,548.5 Q1041.4763,548.5 1041.7731,548.7813 Q1042.07,549.0625 1042.07,549.7188 L1042.07,551.2813 Q1042.07,551.9375 1041.7888,552.2188 Q1041.5075,552.5 1041.07,552.5 Q1040.6794,552.5 1040.4294,552.3281 Q1040.1794,552.1563 1040.07,551.7031 Q1040.0231,551.3906 1039.8513,551.2188 Q1039.5388,550.8906 1038.9763,550.7031 Q1038.4138,550.5 1037.8513,550.5 Q1037.1481,550.5 1036.5544,550.7813 Q1035.9763,551.0625 1035.5231,551.6875 Q1035.07,552.3125 1035.07,553.1719 L1035.07,554.0938 Q1035.07,555.125 1035.9138,555.8125 Q1036.7575,556.5 1038.2575,556.5 Q1039.1481,556.5 1039.7731,556.2969 Q1040.1325,556.1875 1040.5388,555.8281 Q1040.8044,555.625 1040.945,555.5625 Q1041.0856,555.5 1041.2575,555.5 Q1041.5856,555.5 1041.82,555.7656 Q1042.07,556.0156 1042.07,556.375 Q1042.07,556.7188 1041.7263,557.125 Q1041.2263,557.7188 1040.4294,558.0469 Q1039.3825,558.5 1038.1013,558.5 Q1036.6013,558.5 1035.3981,557.9063 Q1034.4294,557.4375 1033.7419,556.4219 Q1033.07,555.4063 1033.07,554.2031 L1033.07,553.1094 Q1033.07,551.8594 1033.6638,550.7656 Q1034.2731,549.6719 1035.32,549.0938 Q1036.3825,548.5 1037.57,548.5 Q1038.2888,548.5 1038.9138,548.75 Q1039.5388,549 1040.07,549.5 Z " fill="#000000"/><text fill="#000000" font-family="sans-serif" font-size="12" lengthAdjust="spacing" textLength="107" x="1052.07" y="557.9102">ConsoleGameView</text><line style="stroke:#A80036;stroke-width:1.5;" x1="1024.07" x2="1161.07" y1="569" y2="569"/><line style="stroke:#A80036;stroke-width:1.5;" x1="1024.07" x2="1161.07" y1="577" y2="577"/><!--MD5=[faca49fe2a0c9047530816f2f9385f77]
class ConsoleResumeView--><rect codeLine="120" fill="#FEFECE" filter="url(#ftu0tqhjtkmew)" height="48" id="ConsoleResumeView" style="stroke:#A80036;stroke-width:1.5;" width="153" x="1463.07" y="537"/><ellipse cx="1478.07" cy="553" fill="#ADD1B2" rx="11" ry="11" style="stroke:#A80036;stroke-width:1.0;"/><path d="M1480.07,549.5 Q1480.2731,549 1480.5075,548.75 Q1480.7419,548.5 1481.0075,548.5 Q1481.4763,548.5 1481.7731,548.7813 Q1482.07,549.0625 1482.07,549.7188 L1482.07,551.2813 Q1482.07,551.9375 1481.7888,552.2188 Q1481.5075,552.5 1481.07,552.5 Q1480.6794,552.5 1480.4294,552.3281 Q1480.1794,552.1563 1480.07,551.7031 Q1480.0231,551.3906 1479.8513,551.2188 Q1479.5388,550.8906 1478.9763,550.7031 Q1478.4138,550.5 1477.8513,550.5 Q1477.1481,550.5 1476.5544,550.7813 Q1475.9763,551.0625 1475.5231,551.6875 Q1475.07,552.3125 1475.07,553.1719 L1475.07,554.0938 Q1475.07,555.125 1475.9138,555.8125 Q1476.7575,556.5 1478.2575,556.5 Q1479.1481,556.5 1479.7731,556.2969 Q1480.1325,556.1875 1480.5388,555.8281 Q1480.8044,555.625 1480.945,555.5625 Q1481.0856,555.5 1481.2575,555.5 Q1481.5856,555.5 1481.82,555.7656 Q1482.07,556.0156 1482.07,556.375 Q1482.07,556.7188 1481.7263,557.125 Q1481.2263,557.7188 1480.4294,558.0469 Q1479.3825,558.5 1478.1013,558.5 Q1476.6013,558.5 1475.3981,557.9063 Q1474.4294,557.4375 1473.7419,556.4219 Q1473.07,555.4063 1473.07,554.2031 L1473.07,553.1094 Q1473.07,551.8594 1473.6638,550.7656 Q1474.2731,549.6719 1475.32,549.0938 Q1476.3825,548.5 1477.57,548.5 Q1478.2888,548.5 1478.9138,548.75 Q1479.5388,549 1480.07,549.5 Z " fill="#000000"/><text fill="#000000" font-family="sans-serif" font-size="12" lengthAdjust="spacing" textLength="121" x="1492.07" y="557.9102">ConsoleResumeView</text><line style="stroke:#A80036;stroke-width:1.5;" x1="1464.07" x2="1615.07" y1="569" y2="569"/><line style="stroke:#A80036;stroke-width:1.5;" x1="1464.07" x2="1615.07" y1="577" y2="577"/><!--MD5=[95e6103a6d71fde28938de44ea50e092]
class ConsoleGoodbyeView--><rect codeLine="121" fill="#FEFECE" filter="url(#ftu0tqhjtkmew)" height="48" id="ConsoleGoodbyeView" style="stroke:#A80036;stroke-width:1.5;" width="154" x="1651.57" y="537"/><ellipse cx="1666.57" cy="553" fill="#ADD1B2" rx="11" ry="11" style="stroke:#A80036;stroke-width:1.0;"/><path d="M1668.57,549.5 Q1668.7731,549 1669.0075,548.75 Q1669.2419,548.5 1669.5075,548.5 Q1669.9763,548.5 1670.2731,548.7813 Q1670.57,549.0625 1670.57,549.7188 L1670.57,551.2813 Q1670.57,551.9375 1670.2888,552.2188 Q1670.0075,552.5 1669.57,552.5 Q1669.1794,552.5 1668.9294,552.3281 Q1668.6794,552.1563 1668.57,551.7031 Q1668.5231,551.3906 1668.3513,551.2188 Q1668.0388,550.8906 1667.4763,550.7031 Q1666.9138,550.5 1666.3513,550.5 Q1665.6481,550.5 1665.0544,550.7813 Q1664.4763,551.0625 1664.0231,551.6875 Q1663.57,552.3125 1663.57,553.1719 L1663.57,554.0938 Q1663.57,555.125 1664.4138,555.8125 Q1665.2575,556.5 1666.7575,556.5 Q1667.6481,556.5 1668.2731,556.2969 Q1668.6325,556.1875 1669.0388,555.8281 Q1669.3044,555.625 1669.445,555.5625 Q1669.5856,555.5 1669.7575,555.5 Q1670.0856,555.5 1670.32,555.7656 Q1670.57,556.0156 1670.57,556.375 Q1670.57,556.7188 1670.2263,557.125 Q1669.7263,557.7188 1668.9294,558.0469 Q1667.8825,558.5 1666.6013,558.5 Q1665.1013,558.5 1663.8981,557.9063 Q1662.9294,557.4375 1662.2419,556.4219 Q1661.57,555.4063 1661.57,554.2031 L1661.57,553.1094 Q1661.57,551.8594 1662.1638,550.7656 Q1662.7731,549.6719 1663.82,549.0938 Q1664.8825,548.5 1666.07,548.5 Q1666.7888,548.5 1667.4138,548.75 Q1668.0388,549 1668.57,549.5 Z " fill="#000000"/><text fill="#000000" font-family="sans-serif" font-size="12" lengthAdjust="spacing" textLength="122" x="1680.57" y="557.9102">ConsoleGoodbyeView</text><line style="stroke:#A80036;stroke-width:1.5;" x1="1652.57" x2="1804.57" y1="569" y2="569"/><line style="stroke:#A80036;stroke-width:1.5;" x1="1652.57" x2="1804.57" y1="577" y2="577"/><!--MD5=[818e41de441100b03fc9d5bd7fa6b79a]
class ConsoleProposedCombinationView--><rect codeLine="114" fill="#FEFECE" filter="url(#ftu0tqhjtkmew)" height="61.8359" id="ConsoleProposedCombinationView" style="stroke:#A80036;stroke-width:1.5;" width="230" x="1197.57" y="530"/><ellipse cx="1212.57" cy="546" fill="#ADD1B2" rx="11" ry="11" style="stroke:#A80036;stroke-width:1.0;"/><path d="M1214.57,542.5 Q1214.7731,542 1215.0075,541.75 Q1215.2419,541.5 1215.5075,541.5 Q1215.9763,541.5 1216.2731,541.7813 Q1216.57,542.0625 1216.57,542.7188 L1216.57,544.2813 Q1216.57,544.9375 1216.2888,545.2188 Q1216.0075,545.5 1215.57,545.5 Q1215.1794,545.5 1214.9294,545.3281 Q1214.6794,545.1563 1214.57,544.7031 Q1214.5231,544.3906 1214.3513,544.2188 Q1214.0388,543.8906 1213.4763,543.7031 Q1212.9138,543.5 1212.3513,543.5 Q1211.6481,543.5 1211.0544,543.7813 Q1210.4763,544.0625 1210.0231,544.6875 Q1209.57,545.3125 1209.57,546.1719 L1209.57,547.0938 Q1209.57,548.125 1210.4138,548.8125 Q1211.2575,549.5 1212.7575,549.5 Q1213.6481,549.5 1214.2731,549.2969 Q1214.6325,549.1875 1215.0388,548.8281 Q1215.3044,548.625 1215.445,548.5625 Q1215.5856,548.5 1215.7575,548.5 Q1216.0856,548.5 1216.32,548.7656 Q1216.57,549.0156 1216.57,549.375 Q1216.57,549.7188 1216.2263,550.125 Q1215.7263,550.7188 1214.9294,551.0469 Q1213.8825,551.5 1212.6013,551.5 Q1211.1013,551.5 1209.8981,550.9063 Q1208.9294,550.4375 1208.2419,549.4219 Q1207.57,548.4063 1207.57,547.2031 L1207.57,546.1094 Q1207.57,544.8594 1208.1638,543.7656 Q1208.7731,542.6719 1209.82,542.0938 Q1210.8825,541.5 1212.07,541.5 Q1212.7888,541.5 1213.4138,541.75 Q1214.0388,542 1214.57,542.5 Z " fill="#000000"/><text fill="#000000" font-family="sans-serif" font-size="12" lengthAdjust="spacing" textLength="198" x="1226.57" y="550.9102">ConsoleProposedCombinationView</text><line style="stroke:#A80036;stroke-width:1.5;" x1="1198.57" x2="1426.57" y1="562" y2="562"/><line style="stroke:#A80036;stroke-width:1.5;" x1="1198.57" x2="1426.57" y1="570" y2="570"/><ellipse cx="1208.57" cy="581" fill="#84BE84" rx="3" ry="3" style="stroke:#038048;stroke-width:1.0;"/><text fill="#000000" font-family="sans-serif" font-size="11" lengthAdjust="spacing" textLength="191" x="1217.57" y="585.4189">getProposedCombination(): Combination</text><!--MD5=[5dcf5c6484ccbdf420e97c97927d7e99]
class views.graphic.GraphicMainView--><rect codeLine="126" fill="#FEFECE" filter="url(#ftu0tqhjtkmew)" height="48" id="views.graphic.GraphicMainView" style="stroke:#A80036;stroke-width:1.5;" width="127" x="427.07" y="407"/><ellipse cx="442.07" cy="423" fill="#ADD1B2" rx="11" ry="11" style="stroke:#A80036;stroke-width:1.0;"/><path d="M444.07,419.5 Q444.2731,419 444.5075,418.75 Q444.7419,418.5 445.0075,418.5 Q445.4763,418.5 445.7731,418.7813 Q446.07,419.0625 446.07,419.7188 L446.07,421.2813 Q446.07,421.9375 445.7888,422.2188 Q445.5075,422.5 445.07,422.5 Q444.6794,422.5 444.4294,422.3281 Q444.1794,422.1563 444.07,421.7031 Q444.0231,421.3906 443.8513,421.2188 Q443.5388,420.8906 442.9763,420.7031 Q442.4138,420.5 441.8513,420.5 Q441.1481,420.5 440.5544,420.7813 Q439.9763,421.0625 439.5231,421.6875 Q439.07,422.3125 439.07,423.1719 L439.07,424.0938 Q439.07,425.125 439.9138,425.8125 Q440.7575,426.5 442.2575,426.5 Q443.1481,426.5 443.7731,426.2969 Q444.1325,426.1875 444.5388,425.8281 Q444.8044,425.625 444.945,425.5625 Q445.0856,425.5 445.2575,425.5 Q445.5856,425.5 445.82,425.7656 Q446.07,426.0156 446.07,426.375 Q446.07,426.7188 445.7263,427.125 Q445.2263,427.7188 444.4294,428.0469 Q443.3825,428.5 442.1013,428.5 Q440.6013,428.5 439.3981,427.9063 Q438.4294,427.4375 437.7419,426.4219 Q437.07,425.4063 437.07,424.2031 L437.07,423.1094 Q437.07,421.8594 437.6638,420.7656 Q438.2731,419.6719 439.32,419.0938 Q440.3825,418.5 441.57,418.5 Q442.2888,418.5 442.9138,418.75 Q443.5388,419 444.07,419.5 Z " fill="#000000"/><text fill="#000000" font-family="sans-serif" font-size="12" lengthAdjust="spacing" textLength="95" x="456.07" y="427.9102">GraphicMainView</text><line style="stroke:#A80036;stroke-width:1.5;" x1="428.07" x2="553.07" y1="439" y2="439"/><line style="stroke:#A80036;stroke-width:1.5;" x1="428.07" x2="553.07" y1="447" y2="447"/><!--MD5=[e640c3267f52fdb2a83d1bf89fc1c6c8]
class views.graphic.GraphicGameView--><rect codeLine="132" fill="#FEFECE" filter="url(#ftu0tqhjtkmew)" height="48" id="views.graphic.GraphicGameView" style="stroke:#A80036;stroke-width:1.5;" width="135" x="61.07" y="537"/><ellipse cx="76.07" cy="553" fill="#ADD1B2" rx="11" ry="11" style="stroke:#A80036;stroke-width:1.0;"/><path d="M78.07,549.5 Q78.2731,549 78.5075,548.75 Q78.7419,548.5 79.0075,548.5 Q79.4763,548.5 79.7731,548.7813 Q80.07,549.0625 80.07,549.7188 L80.07,551.2813 Q80.07,551.9375 79.7888,552.2188 Q79.5075,552.5 79.07,552.5 Q78.6794,552.5 78.4294,552.3281 Q78.1794,552.1563 78.07,551.7031 Q78.0231,551.3906 77.8513,551.2188 Q77.5388,550.8906 76.9763,550.7031 Q76.4138,550.5 75.8513,550.5 Q75.1481,550.5 74.5544,550.7813 Q73.9763,551.0625 73.5231,551.6875 Q73.07,552.3125 73.07,553.1719 L73.07,554.0938 Q73.07,555.125 73.9138,555.8125 Q74.7575,556.5 76.2575,556.5 Q77.1481,556.5 77.7731,556.2969 Q78.1325,556.1875 78.5388,555.8281 Q78.8044,555.625 78.945,555.5625 Q79.0856,555.5 79.2575,555.5 Q79.5856,555.5 79.82,555.7656 Q80.07,556.0156 80.07,556.375 Q80.07,556.7188 79.7263,557.125 Q79.2263,557.7188 78.4294,558.0469 Q77.3825,558.5 76.1013,558.5 Q74.6013,558.5 73.3981,557.9063 Q72.4294,557.4375 71.7419,556.4219 Q71.07,555.4063 71.07,554.2031 L71.07,553.1094 Q71.07,551.8594 71.6638,550.7656 Q72.2731,549.6719 73.32,549.0938 Q74.3825,548.5 75.57,548.5 Q76.2888,548.5 76.9138,548.75 Q77.5388,549 78.07,549.5 Z " fill="#000000"/><text fill="#000000" font-family="sans-serif" font-size="12" lengthAdjust="spacing" textLength="103" x="90.07" y="557.9102">GraphicGameView</text><line style="stroke:#A80036;stroke-width:1.5;" x1="62.07" x2="195.07" y1="569" y2="569"/><line style="stroke:#A80036;stroke-width:1.5;" x1="62.07" x2="195.07" y1="577" y2="577"/><!--MD5=[502e793792f102a1b84034cceaff5b90]
class views.graphic.GraphicGoodbyeView--><rect codeLine="133" fill="#FEFECE" filter="url(#ftu0tqhjtkmew)" height="48" id="views.graphic.GraphicGoodbyeView" style="stroke:#A80036;stroke-width:1.5;" width="150" x="415.57" y="537"/><ellipse cx="430.57" cy="553" fill="#ADD1B2" rx="11" ry="11" style="stroke:#A80036;stroke-width:1.0;"/><path d="M432.57,549.5 Q432.7731,549 433.0075,548.75 Q433.2419,548.5 433.5075,548.5 Q433.9763,548.5 434.2731,548.7813 Q434.57,549.0625 434.57,549.7188 L434.57,551.2813 Q434.57,551.9375 434.2888,552.2188 Q434.0075,552.5 433.57,552.5 Q433.1794,552.5 432.9294,552.3281 Q432.6794,552.1563 432.57,551.7031 Q432.5231,551.3906 432.3513,551.2188 Q432.0388,550.8906 431.4763,550.7031 Q430.9138,550.5 430.3513,550.5 Q429.6481,550.5 429.0544,550.7813 Q428.4763,551.0625 428.0231,551.6875 Q427.57,552.3125 427.57,553.1719 L427.57,554.0938 Q427.57,555.125 428.4138,555.8125 Q429.2575,556.5 430.7575,556.5 Q431.6481,556.5 432.2731,556.2969 Q432.6325,556.1875 433.0388,555.8281 Q433.3044,555.625 433.445,555.5625 Q433.5856,555.5 433.7575,555.5 Q434.0856,555.5 434.32,555.7656 Q434.57,556.0156 434.57,556.375 Q434.57,556.7188 434.2263,557.125 Q433.7263,557.7188 432.9294,558.0469 Q431.8825,558.5 430.6013,558.5 Q429.1013,558.5 427.8981,557.9063 Q426.9294,557.4375 426.2419,556.4219 Q425.57,555.4063 425.57,554.2031 L425.57,553.1094 Q425.57,551.8594 426.1638,550.7656 Q426.7731,549.6719 427.82,549.0938 Q428.8825,548.5 430.07,548.5 Q430.7888,548.5 431.4138,548.75 Q432.0388,549 432.57,549.5 Z " fill="#000000"/><text fill="#000000" font-family="sans-serif" font-size="12" lengthAdjust="spacing" textLength="118" x="444.57" y="557.9102">GraphicGoodbyeView</text><line style="stroke:#A80036;stroke-width:1.5;" x1="416.57" x2="564.57" y1="569" y2="569"/><line style="stroke:#A80036;stroke-width:1.5;" x1="416.57" x2="564.57" y1="577" y2="577"/><!--MD5=[62c15cfab12ac8fa145eca8f1d1935ae]
class views.graphic.GraphicResumeView--><rect codeLine="134" fill="#FEFECE" filter="url(#ftu0tqhjtkmew)" height="48" id="views.graphic.GraphicResumeView" style="stroke:#A80036;stroke-width:1.5;" width="149" x="231.07" y="537"/><ellipse cx="246.07" cy="553" fill="#ADD1B2" rx="11" ry="11" style="stroke:#A80036;stroke-width:1.0;"/><path d="M248.07,549.5 Q248.2731,549 248.5075,548.75 Q248.7419,548.5 249.0075,548.5 Q249.4763,548.5 249.7731,548.7813 Q250.07,549.0625 250.07,549.7188 L250.07,551.2813 Q250.07,551.9375 249.7888,552.2188 Q249.5075,552.5 249.07,552.5 Q248.6794,552.5 248.4294,552.3281 Q248.1794,552.1563 248.07,551.7031 Q248.0231,551.3906 247.8513,551.2188 Q247.5388,550.8906 246.9763,550.7031 Q246.4138,550.5 245.8513,550.5 Q245.1481,550.5 244.5544,550.7813 Q243.9763,551.0625 243.5231,551.6875 Q243.07,552.3125 243.07,553.1719 L243.07,554.0938 Q243.07,555.125 243.9138,555.8125 Q244.7575,556.5 246.2575,556.5 Q247.1481,556.5 247.7731,556.2969 Q248.1325,556.1875 248.5388,555.8281 Q248.8044,555.625 248.945,555.5625 Q249.0856,555.5 249.2575,555.5 Q249.5856,555.5 249.82,555.7656 Q250.07,556.0156 250.07,556.375 Q250.07,556.7188 249.7263,557.125 Q249.2263,557.7188 248.4294,558.0469 Q247.3825,558.5 246.1013,558.5 Q244.6013,558.5 243.3981,557.9063 Q242.4294,557.4375 241.7419,556.4219 Q241.07,555.4063 241.07,554.2031 L241.07,553.1094 Q241.07,551.8594 241.6638,550.7656 Q242.2731,549.6719 243.32,549.0938 Q244.3825,548.5 245.57,548.5 Q246.2888,548.5 246.9138,548.75 Q247.5388,549 248.07,549.5 Z " fill="#000000"/><text fill="#000000" font-family="sans-serif" font-size="12" lengthAdjust="spacing" textLength="117" x="260.07" y="557.9102">GraphicResumeView</text><line style="stroke:#A80036;stroke-width:1.5;" x1="232.07" x2="379.07" y1="569" y2="569"/><line style="stroke:#A80036;stroke-width:1.5;" x1="232.07" x2="379.07" y1="577" y2="577"/><!--MD5=[1ea5cf3e691bb3552ec8d5f9a56af156]
class models.Game--><rect codeLine="17" fill="#FEFECE" filter="url(#ftu0tqhjtkmew)" height="131.0156" id="models.Game" style="stroke:#A80036;stroke-width:1.5;" width="215" x="1022.07" y="717"/><ellipse cx="1108.32" cy="733" fill="#ADD1B2" rx="11" ry="11" style="stroke:#A80036;stroke-width:1.0;"/><path d="M1110.32,729.5 Q1110.5231,729 1110.7575,728.75 Q1110.9919,728.5 1111.2575,728.5 Q1111.7263,728.5 1112.0231,728.7813 Q1112.32,729.0625 1112.32,729.7188 L1112.32,731.2813 Q1112.32,731.9375 1112.0388,732.2188 Q1111.7575,732.5 1111.32,732.5 Q1110.9294,732.5 1110.6794,732.3281 Q1110.4294,732.1563 1110.32,731.7031 Q1110.2731,731.3906 1110.1013,731.2188 Q1109.7888,730.8906 1109.2263,730.7031 Q1108.6638,730.5 1108.1013,730.5 Q1107.3981,730.5 1106.8044,730.7813 Q1106.2263,731.0625 1105.7731,731.6875 Q1105.32,732.3125 1105.32,733.1719 L1105.32,734.0938 Q1105.32,735.125 1106.1638,735.8125 Q1107.0075,736.5 1108.5075,736.5 Q1109.3981,736.5 1110.0231,736.2969 Q1110.3825,736.1875 1110.7888,735.8281 Q1111.0544,735.625 1111.195,735.5625 Q1111.3356,735.5 1111.5075,735.5 Q1111.8356,735.5 1112.07,735.7656 Q1112.32,736.0156 1112.32,736.375 Q1112.32,736.7188 1111.9763,737.125 Q1111.4763,737.7188 1110.6794,738.0469 Q1109.6325,738.5 1108.3513,738.5 Q1106.8513,738.5 1105.6481,737.9063 Q1104.6794,737.4375 1103.9919,736.4219 Q1103.32,735.4063 1103.32,734.2031 L1103.32,733.1094 Q1103.32,731.8594 1103.9138,730.7656 Q1104.5231,729.6719 1105.57,729.0938 Q1106.6325,728.5 1107.82,728.5 Q1108.5388,728.5 1109.1638,728.75 Q1109.7888,729 1110.32,729.5 Z " fill="#000000"/><text fill="#000000" font-family="sans-serif" font-size="12" lengthAdjust="spacing" textLength="34" x="1128.82" y="737.9102">Game</text><line style="stroke:#A80036;stroke-width:1.5;" x1="1023.07" x2="1236.07" y1="749" y2="749"/><line style="stroke:#A80036;stroke-width:1.5;" x1="1023.07" x2="1236.07" y1="757" y2="757"/><ellipse cx="1033.07" cy="768" fill="#84BE84" rx="3" ry="3" style="stroke:#038048;stroke-width:1.0;"/><text fill="#000000" font-family="sans-serif" font-size="11" lengthAdjust="spacing" textLength="92" x="1042.07" y="772.4189">hasWon(): boolean</text><ellipse cx="1033.07" cy="781.8359" fill="#84BE84" rx="3" ry="3" style="stroke:#038048;stroke-width:1.0;"/><text fill="#000000" font-family="sans-serif" font-size="11" lengthAdjust="spacing" textLength="90" x="1042.07" y="786.2549">isEnded(): boolean</text><ellipse cx="1033.07" cy="795.6719" fill="#84BE84" rx="3" ry="3" style="stroke:#038048;stroke-width:1.0;"/><text fill="#000000" font-family="sans-serif" font-size="11" lengthAdjust="spacing" textLength="88" x="1042.07" y="800.0908">totalAttempts(): int</text><ellipse cx="1033.07" cy="809.5078" fill="#84BE84" rx="3" ry="3" style="stroke:#038048;stroke-width:1.0;"/><text fill="#000000" font-family="sans-serif" font-size="11" lengthAdjust="spacing" textLength="189" x="1042.07" y="813.9268">getSecretCombinationAsString(): String</text><ellipse cx="1033.07" cy="823.3438" fill="#84BE84" rx="3" ry="3" style="stroke:#038048;stroke-width:1.0;"/><text fill="#000000" font-family="sans-serif" font-size="11" lengthAdjust="spacing" textLength="147" x="1042.07" y="827.7627">getAttemptAsString(int): String</text><ellipse cx="1033.07" cy="837.1797" fill="#84BE84" rx="3" ry="3" style="stroke:#038048;stroke-width:1.0;"/><text fill="#000000" font-family="sans-serif" font-size="11" lengthAdjust="spacing" textLength="135" x="1042.07" y="841.5986">recordAttempt(Combination)</text><!--MD5=[b89ed330bc8394929f0ad94fa56293db]
class models.SecretCombination--><rect codeLine="36" fill="#FEFECE" filter="url(#ftu0tqhjtkmew)" height="75.6719" id="models.SecretCombination" style="stroke:#A80036;stroke-width:1.5;" width="186" x="1138.57" y="1262"/><ellipse cx="1175.17" cy="1278" fill="#ADD1B2" rx="11" ry="11" style="stroke:#A80036;stroke-width:1.0;"/><path d="M1177.17,1274.5 Q1177.3731,1274 1177.6075,1273.75 Q1177.8419,1273.5 1178.1075,1273.5 Q1178.5762,1273.5 1178.8731,1273.7813 Q1179.17,1274.0625 1179.17,1274.7188 L1179.17,1276.2813 Q1179.17,1276.9375 1178.8887,1277.2188 Q1178.6075,1277.5 1178.17,1277.5 Q1177.7794,1277.5 1177.5294,1277.3281 Q1177.2794,1277.1563 1177.17,1276.7031 Q1177.1231,1276.3906 1176.9512,1276.2188 Q1176.6387,1275.8906 1176.0762,1275.7031 Q1175.5137,1275.5 1174.9512,1275.5 Q1174.2481,1275.5 1173.6544,1275.7813 Q1173.0762,1276.0625 1172.6231,1276.6875 Q1172.17,1277.3125 1172.17,1278.1719 L1172.17,1279.0938 Q1172.17,1280.125 1173.0137,1280.8125 Q1173.8575,1281.5 1175.3575,1281.5 Q1176.2481,1281.5 1176.8731,1281.2969 Q1177.2325,1281.1875 1177.6387,1280.8281 Q1177.9044,1280.625 1178.045,1280.5625 Q1178.1856,1280.5 1178.3575,1280.5 Q1178.6856,1280.5 1178.92,1280.7656 Q1179.17,1281.0156 1179.17,1281.375 Q1179.17,1281.7188 1178.8262,1282.125 Q1178.3262,1282.7188 1177.5294,1283.0469 Q1176.4825,1283.5 1175.2012,1283.5 Q1173.7012,1283.5 1172.4981,1282.9063 Q1171.5294,1282.4375 1170.8419,1281.4219 Q1170.17,1280.4063 1170.17,1279.2031 L1170.17,1278.1094 Q1170.17,1276.8594 1170.7637,1275.7656 Q1171.3731,1274.6719 1172.42,1274.0938 Q1173.4825,1273.5 1174.67,1273.5 Q1175.3887,1273.5 1176.0137,1273.75 Q1176.6387,1274 1177.17,1274.5 Z " fill="#000000"/><text fill="#000000" font-family="sans-serif" font-size="12" lengthAdjust="spacing" textLength="106" x="1193.97" y="1282.9102">SecretCombination</text><line style="stroke:#A80036;stroke-width:1.5;" x1="1139.57" x2="1323.57" y1="1294" y2="1294"/><line style="stroke:#A80036;stroke-width:1.5;" x1="1139.57" x2="1323.57" y1="1302" y2="1302"/><ellipse cx="1149.57" cy="1313" fill="#84BE84" rx="3" ry="3" style="stroke:#038048;stroke-width:1.0;"/><text fill="#000000" font-family="sans-serif" font-size="11" lengthAdjust="spacing" textLength="160" x="1158.57" y="1317.4189">match(Combination): MatchResult</text><ellipse cx="1149.57" cy="1326.8359" fill="#84BE84" rx="3" ry="3" style="stroke:#038048;stroke-width:1.0;"/><text fill="#000000" font-family="sans-serif" font-size="11" lengthAdjust="spacing" textLength="79" x="1158.57" y="1331.2549">toString(): String</text><!--MD5=[54d08704be622b91252e030e0f93b574]
class models.Attempt--><rect codeLine="45" fill="#FEFECE" filter="url(#ftu0tqhjtkmew)" height="89.5078" id="models.Attempt" style="stroke:#A80036;stroke-width:1.5;" width="202" x="1021.57" y="926"/><ellipse cx="1097.82" cy="942" fill="#ADD1B2" rx="11" ry="11" style="stroke:#A80036;stroke-width:1.0;"/><path d="M1099.82,938.5 Q1100.0231,938 1100.2575,937.75 Q1100.4919,937.5 1100.7575,937.5 Q1101.2263,937.5 1101.5231,937.7813 Q1101.82,938.0625 1101.82,938.7188 L1101.82,940.2813 Q1101.82,940.9375 1101.5388,941.2188 Q1101.2575,941.5 1100.82,941.5 Q1100.4294,941.5 1100.1794,941.3281 Q1099.9294,941.1563 1099.82,940.7031 Q1099.7731,940.3906 1099.6013,940.2188 Q1099.2888,939.8906 1098.7263,939.7031 Q1098.1638,939.5 1097.6013,939.5 Q1096.8981,939.5 1096.3044,939.7813 Q1095.7263,940.0625 1095.2731,940.6875 Q1094.82,941.3125 1094.82,942.1719 L1094.82,943.0938 Q1094.82,944.125 1095.6638,944.8125 Q1096.5075,945.5 1098.0075,945.5 Q1098.8981,945.5 1099.5231,945.2969 Q1099.8825,945.1875 1100.2888,944.8281 Q1100.5544,944.625 1100.695,944.5625 Q1100.8356,944.5 1101.0075,944.5 Q1101.3356,944.5 1101.57,944.7656 Q1101.82,945.0156 1101.82,945.375 Q1101.82,945.7188 1101.4763,946.125 Q1100.9763,946.7188 1100.1794,947.0469 Q1099.1325,947.5 1097.8513,947.5 Q1096.3513,947.5 1095.1481,946.9063 Q1094.1794,946.4375 1093.4919,945.4219 Q1092.82,944.4063 1092.82,943.2031 L1092.82,942.1094 Q1092.82,940.8594 1093.4138,939.7656 Q1094.0231,938.6719 1095.07,938.0938 Q1096.1325,937.5 1097.32,937.5 Q1098.0388,937.5 1098.6638,937.75 Q1099.2888,938 1099.82,938.5 Z " fill="#000000"/><text fill="#000000" font-family="sans-serif" font-size="12" lengthAdjust="spacing" textLength="41" x="1118.32" y="946.9102">Attempt</text><line style="stroke:#A80036;stroke-width:1.5;" x1="1022.57" x2="1222.57" y1="958" y2="958"/><line style="stroke:#A80036;stroke-width:1.5;" x1="1022.57" x2="1222.57" y1="966" y2="966"/><ellipse cx="1032.57" cy="977" fill="#84BE84" rx="3" ry="3" style="stroke:#038048;stroke-width:1.0;"/><text fill="#000000" font-family="sans-serif" font-size="11" lengthAdjust="spacing" textLength="176" x="1041.57" y="981.4189">validateMatches(SecretCombination)</text><ellipse cx="1032.57" cy="990.8359" fill="#84BE84" rx="3" ry="3" style="stroke:#038048;stroke-width:1.0;"/><text fill="#000000" font-family="sans-serif" font-size="11" lengthAdjust="spacing" textLength="118" x="1041.57" y="995.2549">hasFourBlack(): boolean</text><ellipse cx="1032.57" cy="1004.6719" fill="#84BE84" rx="3" ry="3" style="stroke:#038048;stroke-width:1.0;"/><text fill="#000000" font-family="sans-serif" font-size="11" lengthAdjust="spacing" textLength="76" x="1041.57" y="1009.0908">toString():String</text><!--MD5=[3ab7dea9c5f32da8266d9170b1b41dc7]
class models.Combination--><rect codeLine="29" fill="#FEFECE" filter="url(#ftu0tqhjtkmew)" height="89.5078" id="models.Combination" style="stroke:#A80036;stroke-width:1.5;" width="130" x="1186.57" y="1094"/><ellipse cx="1213.72" cy="1110" fill="#ADD1B2" rx="11" ry="11" style="stroke:#A80036;stroke-width:1.0;"/><path d="M1215.72,1106.5 Q1215.9231,1106 1216.1575,1105.75 Q1216.3919,1105.5 1216.6575,1105.5 Q1217.1263,1105.5 1217.4231,1105.7813 Q1217.72,1106.0625 1217.72,1106.7188 L1217.72,1108.2813 Q1217.72,1108.9375 1217.4388,1109.2188 Q1217.1575,1109.5 1216.72,1109.5 Q1216.3294,1109.5 1216.0794,1109.3281 Q1215.8294,1109.1563 1215.72,1108.7031 Q1215.6731,1108.3906 1215.5013,1108.2188 Q1215.1888,1107.8906 1214.6263,1107.7031 Q1214.0638,1107.5 1213.5013,1107.5 Q1212.7981,1107.5 1212.2044,1107.7813 Q1211.6263,1108.0625 1211.1731,1108.6875 Q1210.72,1109.3125 1210.72,1110.1719 L1210.72,1111.0938 Q1210.72,1112.125 1211.5638,1112.8125 Q1212.4075,1113.5 1213.9075,1113.5 Q1214.7981,1113.5 1215.4231,1113.2969 Q1215.7825,1113.1875 1216.1888,1112.8281 Q1216.4544,1112.625 1216.595,1112.5625 Q1216.7356,1112.5 1216.9075,1112.5 Q1217.2356,1112.5 1217.47,1112.7656 Q1217.72,1113.0156 1217.72,1113.375 Q1217.72,1113.7188 1217.3763,1114.125 Q1216.8763,1114.7188 1216.0794,1115.0469 Q1215.0325,1115.5 1213.7513,1115.5 Q1212.2513,1115.5 1211.0481,1114.9063 Q1210.0794,1114.4375 1209.3919,1113.4219 Q1208.72,1112.4063 1208.72,1111.2031 L1208.72,1110.1094 Q1208.72,1108.8594 1209.3138,1107.7656 Q1209.9231,1106.6719 1210.97,1106.0938 Q1212.0325,1105.5 1213.22,1105.5 Q1213.9388,1105.5 1214.5638,1105.75 Q1215.1888,1106 1215.72,1106.5 Z " fill="#000000"/><text fill="#000000" font-family="sans-serif" font-size="12" lengthAdjust="spacing" textLength="71" x="1230.42" y="1114.9102">Combination</text><line style="stroke:#A80036;stroke-width:1.5;" x1="1187.57" x2="1315.57" y1="1126" y2="1126"/><line style="stroke:#A80036;stroke-width:1.5;" x1="1187.57" x2="1315.57" y1="1134" y2="1134"/><ellipse cx="1197.57" cy="1145" fill="#84BE84" rx="3" ry="3" style="stroke:#038048;stroke-width:1.0;"/><text fill="#000000" font-family="sans-serif" font-size="11" lengthAdjust="spacing" textLength="76" x="1206.57" y="1149.4189">addColor(Color)</text><ellipse cx="1197.57" cy="1158.8359" fill="#84BE84" rx="3" ry="3" style="stroke:#038048;stroke-width:1.0;"/><text fill="#000000" font-family="sans-serif" font-size="11" lengthAdjust="spacing" textLength="104" x="1206.57" y="1163.2549">isComplete(): boolean</text><ellipse cx="1197.57" cy="1172.6719" fill="#84BE84" rx="3" ry="3" style="stroke:#038048;stroke-width:1.0;"/><text fill="#000000" font-family="sans-serif" font-size="11" lengthAdjust="spacing" textLength="79" x="1206.57" y="1177.0908">toString(): String</text><!--MD5=[d3be15b15195578bc5b8b929afb3b99a]
class models.MatchResult--><rect codeLine="54" fill="#FEFECE" filter="url(#ftu0tqhjtkmew)" height="103.3438" id="models.MatchResult" style="stroke:#A80036;stroke-width:1.5;" width="144" x="1080.57" y="1473"/><ellipse cx="1115.37" cy="1489" fill="#ADD1B2" rx="11" ry="11" style="stroke:#A80036;stroke-width:1.0;"/><path d="M1117.37,1485.5 Q1117.5731,1485 1117.8075,1484.75 Q1118.0419,1484.5 1118.3075,1484.5 Q1118.7763,1484.5 1119.0731,1484.7813 Q1119.37,1485.0625 1119.37,1485.7188 L1119.37,1487.2813 Q1119.37,1487.9375 1119.0888,1488.2188 Q1118.8075,1488.5 1118.37,1488.5 Q1117.9794,1488.5 1117.7294,1488.3281 Q1117.4794,1488.1563 1117.37,1487.7031 Q1117.3231,1487.3906 1117.1513,1487.2188 Q1116.8388,1486.8906 1116.2763,1486.7031 Q1115.7138,1486.5 1115.1513,1486.5 Q1114.4481,1486.5 1113.8544,1486.7813 Q1113.2763,1487.0625 1112.8231,1487.6875 Q1112.37,1488.3125 1112.37,1489.1719 L1112.37,1490.0938 Q1112.37,1491.125 1113.2138,1491.8125 Q1114.0575,1492.5 1115.5575,1492.5 Q1116.4481,1492.5 1117.0731,1492.2969 Q1117.4325,1492.1875 1117.8388,1491.8281 Q1118.1044,1491.625 1118.245,1491.5625 Q1118.3856,1491.5 1118.5575,1491.5 Q1118.8856,1491.5 1119.12,1491.7656 Q1119.37,1492.0156 1119.37,1492.375 Q1119.37,1492.7188 1119.0263,1493.125 Q1118.5263,1493.7188 1117.7294,1494.0469 Q1116.6825,1494.5 1115.4013,1494.5 Q1113.9013,1494.5 1112.6981,1493.9063 Q1111.7294,1493.4375 1111.0419,1492.4219 Q1110.37,1491.4063 1110.37,1490.2031 L1110.37,1489.1094 Q1110.37,1487.8594 1110.9638,1486.7656 Q1111.5731,1485.6719 1112.62,1485.0938 Q1113.6825,1484.5 1114.87,1484.5 Q1115.5888,1484.5 1116.2138,1484.75 Q1116.8388,1485 1117.37,1485.5 Z " fill="#000000"/><text fill="#000000" font-family="sans-serif" font-size="12" lengthAdjust="spacing" textLength="68" x="1133.77" y="1493.9102">MatchResult</text><line style="stroke:#A80036;stroke-width:1.5;" x1="1081.57" x2="1223.57" y1="1505" y2="1505"/><ellipse cx="1091.57" cy="1516" rx="3" ry="3" style="stroke:#038048;stroke-width:1.0;fill:none;"/><text fill="#000000" font-family="sans-serif" font-size="11" lengthAdjust="spacing" textLength="48" x="1100.57" y="1520.4189">blacks: int</text><ellipse cx="1091.57" cy="1529.8359" rx="3" ry="3" style="stroke:#038048;stroke-width:1.0;fill:none;"/><text fill="#000000" font-family="sans-serif" font-size="11" lengthAdjust="spacing" textLength="50" x="1100.57" y="1534.2549">whites: int</text><line style="stroke:#A80036;stroke-width:1.5;" x1="1081.57" x2="1223.57" y1="1540.6719" y2="1540.6719"/><ellipse cx="1091.57" cy="1551.6719" fill="#84BE84" rx="3" ry="3" style="stroke:#038048;stroke-width:1.0;"/><text fill="#000000" font-family="sans-serif" font-size="11" lengthAdjust="spacing" textLength="118" x="1100.57" y="1556.0908">hasFourBlack(): boolean</text><ellipse cx="1091.57" cy="1565.5078" fill="#84BE84" rx="3" ry="3" style="stroke:#038048;stroke-width:1.0;"/><text fill="#000000" font-family="sans-serif" font-size="11" lengthAdjust="spacing" textLength="79" x="1100.57" y="1569.9268">toString(): String</text><!--MD5=[e88a50b03f092bdcaf627b677de9be1f]
class types.Color--><rect codeLine="63" fill="#FEFECE" filter="url(#ftu0tqhjtkmew)" height="172.5234" id="types.Color" style="stroke:#A80036;stroke-width:1.5;" width="192" x="1409.57" y="1438"/><ellipse cx="1486.32" cy="1454" fill="#EB937F" rx="11" ry="11" style="stroke:#A80036;stroke-width:1.0;"/><path d="M1484.82,1455 L1484.82,1457 L1488.82,1457 L1488.82,1456 L1488.82,1455.5156 L1489.445,1455 L1489.82,1455 L1490.195,1455 L1490.82,1455.5156 L1490.82,1456 L1490.82,1459 L1482.82,1459 L1482.3356,1459 L1481.82,1458.375 L1481.82,1458 L1481.82,1457.625 L1482.3356,1457 L1482.82,1457 L1482.82,1457 L1482.82,1451 L1482.82,1451 L1482.3356,1451 L1481.82,1450.375 L1481.82,1450 L1481.82,1449.625 L1482.3356,1449 L1482.82,1449 L1490.82,1449 L1490.82,1452 L1490.82,1452.4844 L1490.195,1453 L1489.82,1453 L1489.445,1453 L1488.82,1452.4844 L1488.82,1452 L1488.82,1451 L1484.82,1451 L1484.82,1453 L1485.82,1453 L1485.82,1452.5156 L1485.82,1452.5156 L1486.445,1452 L1486.82,1452 L1487.195,1452 L1487.82,1452.5156 L1487.82,1453 L1487.82,1455 L1487.82,1455.4844 L1487.195,1456 L1487.195,1456 L1486.82,1456 L1486.445,1456 L1485.82,1455.4844 L1485.82,1455.4844 L1485.82,1455 L1484.82,1455 Z " fill="#000000"/><text fill="#000000" font-family="sans-serif" font-size="12" lengthAdjust="spacing" textLength="30" x="1506.82" y="1458.9102">Color</text><line style="stroke:#A80036;stroke-width:1.5;" x1="1410.57" x2="1600.57" y1="1470" y2="1470"/><ellipse cx="1420.57" cy="1481" rx="3" ry="3" style="stroke:#038048;stroke-width:1.0;fill:none;"/><text fill="#000000" font-family="sans-serif" font-size="11" lengthAdjust="spacing" textLength="20" x="1429.57" y="1485.4189">RED</text><ellipse cx="1420.57" cy="1494.8359" rx="3" ry="3" style="stroke:#038048;stroke-width:1.0;fill:none;"/><text fill="#000000" font-family="sans-serif" font-size="11" lengthAdjust="spacing" textLength="26" x="1429.57" y="1499.2549">BLUE</text><ellipse cx="1420.57" cy="1508.6719" rx="3" ry="3" style="stroke:#038048;stroke-width:1.0;fill:none;"/><text fill="#000000" font-family="sans-serif" font-size="11" lengthAdjust="spacing" textLength="44" x="1429.57" y="1513.0908">YELLOW</text><ellipse cx="1420.57" cy="1522.5078" rx="3" ry="3" style="stroke:#038048;stroke-width:1.0;fill:none;"/><text fill="#000000" font-family="sans-serif" font-size="11" lengthAdjust="spacing" textLength="34" x="1429.57" y="1526.9268">GREEN</text><ellipse cx="1420.57" cy="1536.3438" rx="3" ry="3" style="stroke:#038048;stroke-width:1.0;fill:none;"/><text fill="#000000" font-family="sans-serif" font-size="11" lengthAdjust="spacing" textLength="44" x="1429.57" y="1540.7627">ORANGE</text><ellipse cx="1420.57" cy="1550.1797" rx="3" ry="3" style="stroke:#038048;stroke-width:1.0;fill:none;"/><text fill="#000000" font-family="sans-serif" font-size="11" lengthAdjust="spacing" textLength="38" x="1429.57" y="1554.5986">PURPLE</text><line style="stroke:#A80036;stroke-width:1.5;" x1="1410.57" x2="1600.57" y1="1561.0156" y2="1561.0156"/><ellipse cx="1420.57" cy="1572.0156" fill="#84BE84" rx="3" ry="3" style="stroke:#038048;stroke-width:1.0;"/><text fill="#000000" font-family="sans-serif" font-size="11" lengthAdjust="spacing" text-decoration="underline" textLength="124" x="1429.57" y="1576.4346">parseSymbol(char): Color</text><ellipse cx="1420.57" cy="1585.8516" fill="#84BE84" rx="3" ry="3" style="stroke:#038048;stroke-width:1.0;"/><text fill="#000000" font-family="sans-serif" font-size="11" lengthAdjust="spacing" text-decoration="underline" textLength="166" x="1429.57" y="1590.2705">getAllowedSymbolsString(): String</text><ellipse cx="1420.57" cy="1599.6875" fill="#84BE84" rx="3" ry="3" style="stroke:#038048;stroke-width:1.0;"/><text fill="#000000" font-family="sans-serif" font-size="11" lengthAdjust="spacing" textLength="86" x="1429.57" y="1604.1064">getSymbol(): char</text><!--MD5=[8af4fdb787b135b7271f9ce04b92f747]
class utils.Console--><rect codeLine="139" fill="#FEFECE" filter="url(#ftu0tqhjtkmew)" height="75.6719" id="utils.Console" style="stroke:#A80036;stroke-width:1.5;" width="146" x="2284.57" y="194"/><ellipse cx="2329.82" cy="210" fill="#ADD1B2" rx="11" ry="11" style="stroke:#A80036;stroke-width:1.0;"/><path d="M2331.82,206.5 Q2332.0231,206 2332.2575,205.75 Q2332.4919,205.5 2332.7575,205.5 Q2333.2263,205.5 2333.5231,205.7813 Q2333.82,206.0625 2333.82,206.7188 L2333.82,208.2813 Q2333.82,208.9375 2333.5388,209.2188 Q2333.2575,209.5 2332.82,209.5 Q2332.4294,209.5 2332.1794,209.3281 Q2331.9294,209.1563 2331.82,208.7031 Q2331.7731,208.3906 2331.6013,208.2188 Q2331.2888,207.8906 2330.7263,207.7031 Q2330.1638,207.5 2329.6013,207.5 Q2328.8981,207.5 2328.3044,207.7813 Q2327.7263,208.0625 2327.2731,208.6875 Q2326.82,209.3125 2326.82,210.1719 L2326.82,211.0938 Q2326.82,212.125 2327.6638,212.8125 Q2328.5075,213.5 2330.0075,213.5 Q2330.8981,213.5 2331.5231,213.2969 Q2331.8825,213.1875 2332.2888,212.8281 Q2332.5544,212.625 2332.695,212.5625 Q2332.8356,212.5 2333.0075,212.5 Q2333.3356,212.5 2333.57,212.7656 Q2333.82,213.0156 2333.82,213.375 Q2333.82,213.7188 2333.4763,214.125 Q2332.9763,214.7188 2332.1794,215.0469 Q2331.1325,215.5 2329.8513,215.5 Q2328.3513,215.5 2327.1481,214.9063 Q2326.1794,214.4375 2325.4919,213.4219 Q2324.82,212.4063 2324.82,211.2031 L2324.82,210.1094 Q2324.82,208.8594 2325.4138,207.7656 Q2326.0231,206.6719 2327.07,206.0938 Q2328.1325,205.5 2329.32,205.5 Q2330.0388,205.5 2330.6638,205.75 Q2331.2888,206 2331.82,206.5 Z " fill="#000000"/><text fill="#000000" font-family="sans-serif" font-size="12" lengthAdjust="spacing" textLength="47" x="2350.32" y="214.9102">Console</text><line style="stroke:#A80036;stroke-width:1.5;" x1="2285.57" x2="2429.57" y1="226" y2="226"/><line style="stroke:#A80036;stroke-width:1.5;" x1="2285.57" x2="2429.57" y1="234" y2="234"/><ellipse cx="2295.57" cy="245" fill="#84BE84" rx="3" ry="3" style="stroke:#038048;stroke-width:1.0;"/><text fill="#000000" font-family="sans-serif" font-size="11" lengthAdjust="spacing" textLength="120" x="2304.57" y="249.4189">readString(String): String</text><ellipse cx="2295.57" cy="258.8359" fill="#84BE84" rx="3" ry="3" style="stroke:#038048;stroke-width:1.0;"/><text fill="#000000" font-family="sans-serif" font-size="11" lengthAdjust="spacing" textLength="69" x="2304.57" y="263.2549">writeln(String)</text><!--MD5=[3ba8557e5b2a0898ce87307185a19310]
link mastermind.Mastermind to views.MainView--><path codeLine="5" d="M1919.4918,82.2343 C1919.4918,82.2343 1111.25,192.86 902.96,221.37 " fill="none" id="mastermind.Mastermind-views.MainView" style="stroke:#A80036;stroke-width:1.0;"/><polygon fill="#A80036" points="889.83,223.16,899.2879,225.9073,894.7842,222.4844,898.207,217.9807,889.83,223.16" style="stroke:#A80036;stroke-width:1.0;"/><line style="stroke:#A80036;stroke-width:1.0;" x1="894.7842" x2="902.705" y1="222.4844" y2="221.4"/><polygon fill="#A80036" points="1931.38,80.6,1924.8911,77.4544,1919.4918,82.2343,1925.9807,85.3799,1931.38,80.6" style="stroke:#A80036;stroke-width:1.0;"/><!--MD5=[35c5f555007c474ca51d8184c5afaa67]
reverse link mastermind.Mastermind to mastermind.ConsoleMastermind--><path d="M2036.03,116.71 C2046.69,125.21 2057.61,134.22 2067.57,143 C2088.44,161.39 2110.69,183.39 2127.72,200.79 " fill="none" id="mastermind.Mastermind-backto-mastermind.ConsoleMastermind" style="stroke:#A80036;stroke-width:1.0;"/><polygon fill="none" points="2031.64,122.16,2020.22,104.31,2040.28,111.15,2031.64,122.16" style="stroke:#A80036;stroke-width:1.0;"/><!--MD5=[041c12c9cdc45ec4b589798bfc010878]
reverse link mastermind.Mastermind to mastermind.GraphicMastermind--><path d="M1979.57,124.51 C1979.57,149.67 1979.57,179.23 1979.57,200.82 " fill="none" id="mastermind.Mastermind-backto-mastermind.GraphicMastermind" style="stroke:#A80036;stroke-width:1.0;"/><polygon fill="none" points="1972.57,124.27,1979.57,104.27,1986.57,124.27,1972.57,124.27" style="stroke:#A80036;stroke-width:1.0;"/><!--MD5=[edc3d0228750d410110ee65407e59f37]
link models.Game to models.SecretCombination--><path codeLine="25" d="M1228.6029,856.2904 C1228.6029,856.2904 1272.95,900.73 1288.57,926 C1329.28,991.85 1324.26,1017.28 1334.57,1094 C1339.9,1133.64 1348.86,1146.64 1334.57,1184 C1324.7,1209.81 1306.08,1233.48 1287.36,1252.55 " fill="none" id="models.Game-models.SecretCombination" style="stroke:#A80036;stroke-width:1.0;"/><polygon fill="#A80036" points="1277.9,1261.81,1287.1276,1258.3675,1281.4711,1258.3104,1281.5282,1252.6538,1277.9,1261.81" style="stroke:#A80036;stroke-width:1.0;"/><line style="stroke:#A80036;stroke-width:1.0;" x1="1281.4711" x2="1287.185" y1="1258.3104" y2="1252.71"/><polygon fill="#A80036" points="1219.65,848.3,1221.463,855.2795,1228.6029,856.2904,1226.7899,849.3109,1219.65,848.3" style="stroke:#A80036;stroke-width:1.0;"/><!--MD5=[6582ae606042274016c5ca6600923c57]
link models.Game to models.Attempt--><path codeLine="26" d="M1126.6915,860.2016 C1126.6915,860.2016 1125.33,896.53 1124.72,912.75 " fill="none" id="models.Game-models.Attempt" style="stroke:#A80036;stroke-width:1.0;"/><polygon fill="#A80036" points="1124.22,925.92,1128.5536,917.0758,1124.4069,920.9235,1120.5592,916.7768,1124.22,925.92" style="stroke:#A80036;stroke-width:1.0;"/><line style="stroke:#A80036;stroke-width:1.0;" x1="1124.4069" x2="1124.715" y1="920.9235" y2="912.93"/><polygon fill="#A80036" points="1127.14,848.21,1122.9185,854.0563,1126.6915,860.2016,1130.9129,854.3553,1127.14,848.21" style="stroke:#A80036;stroke-width:1.0;"/><text fill="#000000" font-family="sans-serif" font-size="13" lengthAdjust="spacing" textLength="29" x="1093.172" y="915.0227">0..10</text><!--MD5=[e6aa0034d633bf90bf484dd85229e96d]
link models.Game to models.Combination--><path codeLine="27" d="M1194.07,848.1 C1212.83,870.86 1231.08,897.84 1241.57,926 C1261.33,979.03 1260.98,1044.73 1257.54,1088.82 " fill="none" id="models.Game-to-models.Combination" style="stroke:#A80036;stroke-width:1.0;stroke-dasharray:7.0,7.0;"/><polygon fill="#A80036" points="1257.12,1093.82,1261.8515,1085.1821,1257.534,1088.8372,1253.879,1084.5197,1257.12,1093.82" style="stroke:#A80036;stroke-width:1.0;"/><text fill="#000000" font-family="sans-serif" font-size="13" lengthAdjust="spacing" textLength="21" x="1258.57" y="976.4951">use</text><!--MD5=[4225d122d22a600eaad409f2ced2888e]
link models.Combination to types.Color--><path codeLine="34" d="M1293.2143,1193.8266 C1293.2143,1193.8266 1327.28,1239.61 1342.57,1262 C1379.02,1315.38 1417.38,1376.64 1447.72,1426.43 " fill="none" id="models.Combination-types.Color" style="stroke:#A80036;stroke-width:1.0;"/><polygon fill="#A80036" points="1454.66,1437.85,1453.4116,1428.0806,1452.0665,1433.5752,1446.5719,1432.2301,1454.66,1437.85" style="stroke:#A80036;stroke-width:1.0;"/><line style="stroke:#A80036;stroke-width:1.0;" x1="1452.0665" x2="1447.91" y1="1433.5752" y2="1426.74"/><polygon fill="#FFFFFF" points="1285.97,1184.26,1286.4032,1191.4581,1293.2143,1193.8266,1292.781,1186.6286,1285.97,1184.26" style="stroke:#A80036;stroke-width:1.0;"/><text fill="#000000" font-family="sans-serif" font-size="13" lengthAdjust="spacing" textLength="7" x="1442.9841" y="1427.2467">4</text><!--MD5=[e22aee69255bde2225bd5323591dfee1]
link models.SecretCombination to models.Combination--><path codeLine="40" d="M1223.7,1261.99 C1221.65,1247.01 1220.72,1229.6 1223.57,1214 C1225.06,1205.83 1227.41,1197.39 1230.13,1189.27 " fill="none" id="models.SecretCombination-to-models.Combination" style="stroke:#A80036;stroke-width:1.0;stroke-dasharray:7.0,7.0;"/><polygon fill="#A80036" points="1231.87,1184.26,1225.1311,1191.4424,1230.2246,1188.9815,1232.6855,1194.075,1231.87,1184.26" style="stroke:#A80036;stroke-width:1.0;"/><text fill="#000000" font-family="sans-serif" font-size="13" lengthAdjust="spacing" textLength="21" x="1224.57" y="1228.4951">use</text><!--MD5=[15f43ae688a3fcde37d838d03858a71c]
reverse link models.Combination to models.SecretCombination--><path codeLine="43" d="M1253.05,1204.18 C1252.64,1213.55 1251.87,1223.04 1250.57,1232 C1249.15,1241.81 1246.69,1252.21 1244,1261.82 " fill="none" id="models.Combination-backto-models.SecretCombination" style="stroke:#A80036;stroke-width:1.0;"/><polygon fill="none" points="1246.05,1204.03,1253.46,1184.17,1260.05,1204.31,1246.05,1204.03" style="stroke:#A80036;stroke-width:1.0;"/><!--MD5=[1338139518acc2e18bf59fda250ebdaa]
link models.SecretCombination to models.MatchResult--><path codeLine="41" d="M1218.21,1338.2 C1214.74,1347.9 1211.01,1358.34 1207.57,1368 C1195.81,1401.03 1182.73,1438.02 1172.27,1467.64 " fill="none" id="models.SecretCombination-to-models.MatchResult" style="stroke:#A80036;stroke-width:1.0;stroke-dasharray:7.0,7.0;"/><polygon fill="#A80036" points="1170.48,1472.71,1177.2575,1465.564,1172.1508,1467.9974,1169.7174,1462.8907,1170.48,1472.71" style="stroke:#A80036;stroke-width:1.0;"/><text fill="#000000" font-family="sans-serif" font-size="13" lengthAdjust="spacing" textLength="33" x="1208.57" y="1382.4951">return</text><!--MD5=[2d4b9d9f472e4584199fbaf64de2cf16]
link models.SecretCombination to types.Color--><path codeLine="42" d="M1269.52,1338.12 C1288.58,1354.93 1312.85,1373.74 1337.57,1386 C1350.7,1392.51 1356.73,1386.93 1369.57,1394 C1389.22,1404.81 1408.13,1419.16 1425.28,1434.37 " fill="none" id="models.SecretCombination-to-types.Color" style="stroke:#A80036;stroke-width:1.0;stroke-dasharray:7.0,7.0;"/><polygon fill="#A80036" points="1429.14,1437.84,1425.1262,1428.8461,1425.4235,1434.4952,1419.7745,1434.7925,1429.14,1437.84" style="stroke:#A80036;stroke-width:1.0;"/><text fill="#000000" font-family="sans-serif" font-size="13" lengthAdjust="spacing" textLength="21" x="1338.57" y="1382.4951">use</text><!--MD5=[d3ea8c62ac1a6e79e7ceabdf2cc7e885]
link models.Attempt to models.Combination--><path codeLine="50" d="M1164.1719,1025.5187 C1164.1719,1025.5187 1194.86,1065.03 1209.04,1083.27 " fill="none" id="models.Attempt-models.Combination" style="stroke:#A80036;stroke-width:1.0;"/><polygon fill="#A80036" points="1217.18,1093.75,1214.8156,1084.1892,1214.1118,1089.8021,1208.4989,1089.0982,1217.18,1093.75" style="stroke:#A80036;stroke-width:1.0;"/><line style="stroke:#A80036;stroke-width:1.0;" x1="1214.1118" x2="1209.2" y1="1089.8021" y2="1083.48"/><polygon fill="#A80036" points="1156.8,1016.05,1157.3297,1023.2416,1164.1719,1025.5187,1163.6422,1018.3271,1156.8,1016.05" style="stroke:#A80036;stroke-width:1.0;"/><!--MD5=[2d1ecd6ab193011457267f3e643ac455]
link models.Attempt to models.MatchResult--><path codeLine="51" d="M1115.0411,1028.0717 C1115.0411,1028.0717 1113.9,1040.55 1113.57,1046 C1113.09,1053.99 1113.45,1056 1113.57,1064 C1115.35,1185.82 1109.72,1216.75 1121.57,1338 C1125.55,1378.77 1133.08,1424.14 1139.72,1459.8 " fill="none" id="models.Attempt-models.MatchResult" style="stroke:#A80036;stroke-width:1.0;"/><polygon fill="#A80036" points="1142.21,1472.97,1144.4687,1463.3836,1141.2813,1468.057,1136.6079,1464.8696,1142.21,1472.97" style="stroke:#A80036;stroke-width:1.0;"/><line style="stroke:#A80036;stroke-width:1.0;" x1="1141.2813" x2="1139.79" y1="1468.057" y2="1460.195"/><polygon fill="#FFFFFF" points="1116.32,1016.14,1111.7033,1021.6795,1115.0411,1028.0717,1119.6578,1022.5321,1116.32,1016.14" style="stroke:#A80036;stroke-width:1.0;"/><!--MD5=[2842eeb7cb413ce4a0cae5dd91421a68]
link models.Attempt to models.SecretCombination--><path codeLine="52" d="M1121.01,1016.22 C1120.96,1060.25 1124.95,1129.02 1146.57,1184 C1157.17,1210.97 1175.78,1237.25 1192.88,1257.87 " fill="none" id="models.Attempt-to-models.SecretCombination" style="stroke:#A80036;stroke-width:1.0;stroke-dasharray:7.0,7.0;"/><polygon fill="#A80036" points="1196.28,1261.91,1193.5566,1252.4452,1193.065,1258.0806,1187.4296,1257.5891,1196.28,1261.91" style="stroke:#A80036;stroke-width:1.0;"/><text fill="#000000" font-family="sans-serif" font-size="13" lengthAdjust="spacing" textLength="21" x="1147.57" y="1144.4951">use</text><!--MD5=[8f58e3909a38741bef495b7818692869]
link views.MainView to views.GameView--><path codeLine="85" d="M766.0186,279.9726 C766.0186,279.9726 724.64,314.29 707.57,333 C692.29,349.75 678.09,370.49 666.97,388.48 " fill="none" id="views.MainView-views.GameView" style="stroke:#A80036;stroke-width:1.0;"/><polygon fill="#A80036" points="660.12,399.84,668.1911,394.1957,662.7005,395.5574,661.3389,390.0669,660.12,399.84" style="stroke:#A80036;stroke-width:1.0;"/><line style="stroke:#A80036;stroke-width:1.0;" x1="662.7005" x2="666.83" y1="395.5574" y2="388.71"/><polygon fill="#A80036" points="775.51,272.63,768.3168,273.1375,766.0186,279.9726,773.2119,279.4651,775.51,272.63" style="stroke:#A80036;stroke-width:1.0;"/><!--MD5=[ca056e7b13240b33ae68a44350a74167]
link views.MainView to views.ResumeView--><path codeLine="86" d="M816.9979,288.7665 C816.9979,288.7665 797.46,358.75 789.51,387.23 " fill="none" id="views.MainView-views.ResumeView" style="stroke:#A80036;stroke-width:1.0;"/><polygon fill="#A80036" points="785.95,400,792.2263,392.41,787.2967,395.1848,784.5219,390.2552,785.95,400" style="stroke:#A80036;stroke-width:1.0;"/><line style="stroke:#A80036;stroke-width:1.0;" x1="787.2967" x2="789.44" y1="395.1848" y2="387.475"/><polygon fill="#A80036" points="820.23,277.21,814.7618,281.9109,816.9979,288.7665,822.4661,284.0656,820.23,277.21" style="stroke:#A80036;stroke-width:1.0;"/><!--MD5=[cbcde0389361e5fdc6f80134aca8028c]
link views.MainView to views.GoodbyeView--><path codeLine="87" d="M856.9392,288.1866 C856.9392,288.1866 891.04,365.39 903.98,394.71 " fill="none" id="views.MainView-views.GoodbyeView" style="stroke:#A80036;stroke-width:1.0;"/><polygon fill="#A80036" points="909.33,406.8,909.352,396.9512,907.3095,402.2264,902.0342,400.184,909.33,406.8" style="stroke:#A80036;stroke-width:1.0;"/><line style="stroke:#A80036;stroke-width:1.0;" x1="907.3095" x2="904.075" y1="402.2264" y2="394.91"/><polygon fill="#A80036" points="852.09,277.21,850.8557,284.3147,856.9392,288.1866,858.1735,281.0819,852.09,277.21" style="stroke:#A80036;stroke-width:1.0;"/><!--MD5=[bbec567b89b348b1a313e660b162764d]
reverse link views.MainView to ConsoleMainView--><path d="M909.6,236.23 C996.2,243.23 1137.74,265.1 1237.57,333 C1259.44,347.88 1276.69,372.13 1288.47,392.66 " fill="none" id="views.MainView-backto-ConsoleMainView" style="stroke:#A80036;stroke-width:1.0;"/><polygon fill="none" points="909.06,243.21,889.61,234.8,910.06,229.24,909.06,243.21" style="stroke:#A80036;stroke-width:1.0;"/><!--MD5=[10c7525d88214481b3fe925798e46451]
link ConsoleMainView to ConsoleGameView--><path codeLine="104" d="M1244.67,469.02 C1209.73,489.92 1166.93,515.52 1135.64,534.24 " fill="none" id="ConsoleMainView-to-ConsoleGameView" style="stroke:#A80036;stroke-width:1.0;"/><polygon fill="#A80036" points="1131.11,536.95,1140.8883,535.7735,1135.4038,534.3881,1136.7892,528.9035,1131.11,536.95" style="stroke:#A80036;stroke-width:1.0;"/><!--MD5=[2267d9bc2725263f593377e426700a4d]
link ConsoleMainView to models.Game--><path codeLine="105" d="M1240.72,468.07 C1239.67,468.4 1238.62,468.71 1237.57,469 C1109.71,504.61 136,433.78 44.57,530 C6,570.6 7.32,614.19 44.57,656 C108.54,727.79 752.24,764.6 1016.88,776.8 " fill="none" id="ConsoleMainView-to-models.Game" style="stroke:#A80036;stroke-width:1.0;"/><polygon fill="#A80036" points="1021.9,777.03,1013.1047,772.5981,1016.9059,776.7874,1012.7165,780.5887,1021.9,777.03" style="stroke:#A80036;stroke-width:1.0;"/><!--MD5=[3956ceca6f82f53c66b4b1fe778d3b41]
reverse link ConsoleMainView to mastermind.ConsoleMastermind--><path codeLine="106" d="M1325.82,387.99 C1337.47,367.69 1354.39,345.15 1376.57,333 C1511.47,259.12 1922,343.64 2067.57,294 C2087.25,287.29 2106.6,274.93 2122.2,263.08 " fill="none" id="ConsoleMainView-backto-mastermind.ConsoleMastermind" style="stroke:#A80036;stroke-width:1.0;stroke-dasharray:7.0,7.0;"/><polygon fill="#A80036" points="1323.27,392.55,1331.1604,386.6558,1325.7152,388.1887,1324.1823,382.7435,1323.27,392.55" style="stroke:#A80036;stroke-width:1.0;"/><text fill="#000000" font-family="sans-serif" font-size="13" lengthAdjust="spacing" textLength="49" x="1992.57" y="321.4951">instance</text><!--MD5=[efcdcd999bffc7f646767f805f5d25a9]
link ConsoleMainView to ConsoleResumeView--><path codeLine="107" d="M1372.09,468 C1410.61,489.15 1458.39,515.4 1493.04,534.44 " fill="none" id="ConsoleMainView-to-ConsoleResumeView" style="stroke:#A80036;stroke-width:1.0;"/><polygon fill="#A80036" points="1497.63,536.96,1491.6855,529.1074,1493.2532,534.5427,1487.8179,536.1104,1497.63,536.96" style="stroke:#A80036;stroke-width:1.0;"/><!--MD5=[8ffc6faf3634202dda96ece98e968b90]
link ConsoleMainView to ConsoleGoodbyeView--><path codeLine="108" d="M1372.3,467.34 C1373.73,467.91 1375.15,468.47 1376.57,469 C1486.45,510.32 1520.41,498.75 1633.57,530 C1639.81,531.72 1646.26,533.59 1652.73,535.51 " fill="none" id="ConsoleMainView-to-ConsoleGoodbyeView" style="stroke:#A80036;stroke-width:1.0;"/><polygon fill="#A80036" points="1657.67,536.99,1650.1902,530.5828,1652.8789,535.5598,1647.9019,538.2486,1657.67,536.99" style="stroke:#A80036;stroke-width:1.0;"/><!--MD5=[791c53fb17f977ea61d57cbcdb5b85ec]
reverse link views.GameView to ConsoleGameView--><path d="M708.15,468.3 C825.07,518.24 947.73,540.84 1022.92,551.61 " fill="none" id="views.GameView-backto-ConsoleGameView" style="stroke:#A80036;stroke-width:1.0;stroke-dasharray:7.0,7.0;"/><polygon fill="none" points="705.3,474.69,689.82,460.22,710.95,461.88,705.3,474.69" style="stroke:#A80036;stroke-width:1.0;"/><!--MD5=[d93c5a5853239e4e4e0ecd8ae7e4d07b]
link ConsoleGameView to ConsoleProposedCombinationView--><path codeLine="111" d="M1174.18,561 C1174.18,561 1181.36,561 1184.35,561 " fill="none" id="ConsoleGameView-ConsoleProposedCombinationView" style="stroke:#A80036;stroke-width:1.0;"/><polygon fill="#A80036" points="1197.43,561,1188.43,557,1192.43,561,1188.43,565,1197.43,561" style="stroke:#A80036;stroke-width:1.0;"/><line style="stroke:#A80036;stroke-width:1.0;" x1="1192.43" x2="1184.43" y1="561" y2="561"/><polygon fill="#A80036" points="1162.18,561,1168.18,565,1174.18,561,1168.18,557,1162.18,561" style="stroke:#A80036;stroke-width:1.0;"/><!--MD5=[b083bb2d04e75b3f9fb45342c52771f3]
link ConsoleGameView to models.Game--><path codeLine="112" d="M1098.4499,596.9139 C1098.4499,596.9139 1110.44,668.01 1116.51,703.99 " fill="none" id="ConsoleGameView-models.Game" style="stroke:#A80036;stroke-width:1.0;"/><polygon fill="#A80036" points="1118.7,716.99,1121.1401,707.4482,1117.8646,712.0603,1113.2526,708.7848,1118.7,716.99" style="stroke:#A80036;stroke-width:1.0;"/><line style="stroke:#A80036;stroke-width:1.0;" x1="1117.8646" x2="1116.535" y1="712.0603" y2="704.17"/><polygon fill="#A80036" points="1096.46,585.08,1093.5103,591.6602,1098.4499,596.9139,1101.3996,590.3336,1096.46,585.08" style="stroke:#A80036;stroke-width:1.0;"/><!--MD5=[a4bc124689cd158cf286f4b67c9c0ec1]
link ConsoleProposedCombinationView to models.Combination--><path codeLine="117" d="M1280.39,592.08 C1255.04,613.84 1217.73,641.81 1179.57,656 C1142.95,669.62 1030.83,644.07 1004.57,673 C902.12,785.89 921.84,887.95 1004.57,1016 C1050.34,1086.84 1102.76,1055.05 1177.57,1094 C1179.03,1094.76 1180.5,1095.53 1181.98,1096.32 " fill="none" id="ConsoleProposedCombinationView-to-models.Combination" style="stroke:#A80036;stroke-width:1.0;stroke-dasharray:7.0,7.0;"/><polygon fill="#A80036" points="1186.43,1098.73,1180.4052,1090.9389,1182.0286,1096.3578,1176.6096,1097.9812,1186.43,1098.73" style="stroke:#A80036;stroke-width:1.0;"/><text fill="#000000" font-family="sans-serif" font-size="13" lengthAdjust="spacing" textLength="83" x="944.57" y="892.4951">use and return</text><!--MD5=[6a1b8ae06082260427f25761c70edfcf]
link ConsoleProposedCombinationView to types.Color--><path codeLine="118" d="M1355.66,592.29 C1404.25,630.37 1476.57,700.63 1476.57,781.5 C1476.57,781.5 1476.57,781.5 1476.57,1301 C1476.57,1344.53 1482.09,1392.44 1488.32,1432.63 " fill="none" id="ConsoleProposedCombinationView-to-types.Color" style="stroke:#A80036;stroke-width:1.0;stroke-dasharray:7.0,7.0;"/><polygon fill="#A80036" points="1489.16,1437.99,1491.7243,1428.4808,1488.389,1433.0498,1483.82,1429.7145,1489.16,1437.99" style="stroke:#A80036;stroke-width:1.0;"/><text fill="#000000" font-family="sans-serif" font-size="13" lengthAdjust="spacing" textLength="21" x="1477.57" y="1060.4951">use</text><!--MD5=[f9d6101df4c9a684f02c1ab2af4712d3]
reverse link views.ResumeView to ConsoleResumeView--><path d="M848.68,469.03 C892.63,487.82 905.74,492.62 945.57,500 C1164.47,540.55 1226.72,489.17 1445.57,530 C1455.08,531.77 1464.98,534.23 1474.62,536.97 " fill="none" id="views.ResumeView-backto-ConsoleResumeView" style="stroke:#A80036;stroke-width:1.0;stroke-dasharray:7.0,7.0;"/><polygon fill="none" points="845.83,475.42,830.21,461.11,851.35,462.56,845.83,475.42" style="stroke:#A80036;stroke-width:1.0;"/><!--MD5=[6ac93103acb580e0f036d3c6a4849909]
reverse link views.GoodbyeView to ConsoleGoodbyeView--><path d="M985.36,462.43 C992.42,464.96 999.58,467.22 1006.57,469 C1277.88,538.15 1359.25,473.98 1633.57,530 C1642.72,531.87 1652.24,534.28 1661.56,536.93 " fill="none" id="views.GoodbyeView-backto-ConsoleGoodbyeView" style="stroke:#A80036;stroke-width:1.0;stroke-dasharray:7.0,7.0;"/><polygon fill="none" points="982.59,468.87,966.52,455.05,987.7,455.83,982.59,468.87" style="stroke:#A80036;stroke-width:1.0;"/><!--MD5=[3d23bd642f910ff53bd0f5e06a8e3d1e]
reverse link views.MainView to views.graphic.GraphicMainView--><path d="M755.72,247.84 C697.14,262.1 616.87,288.25 558.57,333 C532.79,352.79 512.93,385.1 501.5,406.94 " fill="none" id="views.MainView-backto-views.graphic.GraphicMainView" style="stroke:#A80036;stroke-width:1.0;"/><polygon fill="none" points="754.4,240.96,775.47,243.28,757.55,254.6,754.4,240.96" style="stroke:#A80036;stroke-width:1.0;"/><!--MD5=[b0520c01c1d7b0186870e9f3e97ae265]
link mastermind.GraphicMastermind to views.graphic.GraphicMainView--><path codeLine="127" d="M1936.71,263.1 C1917.18,275.11 1893.17,287.59 1869.57,294 C1812.19,309.59 1393.57,299.64 1334.57,307 C1298.84,311.46 1291.33,320.77 1255.57,325 C1236.34,327.27 575.7,323.97 558.57,333 C531.06,347.51 512.32,378.73 501.59,401.86 " fill="none" id="mastermind.GraphicMastermind-to-views.graphic.GraphicMainView" style="stroke:#A80036;stroke-width:1.0;stroke-dasharray:7.0,7.0;"/><polygon fill="#A80036" points="499.42,406.66,506.7687,400.1028,501.4772,402.1028,499.4771,396.8113,499.42,406.66" style="stroke:#A80036;stroke-width:1.0;"/><text fill="#000000" font-family="sans-serif" font-size="13" lengthAdjust="spacing" textLength="49" x="1335.57" y="321.4951">instance</text><!--MD5=[6a2cd3007318eef713b888ade285e541]
link views.graphic.GraphicMainView to views.graphic.GraphicGameView--><path codeLine="128" d="M426.68,454.59 C362.79,477.18 264.77,511.84 198.74,535.19 " fill="none" id="views.graphic.GraphicMainView-to-views.graphic.GraphicGameView" style="stroke:#A80036;stroke-width:1.0;"/><polygon fill="#A80036" points="193.65,536.99,203.4672,537.779,198.3671,535.3319,200.8142,530.2317,193.65,536.99" style="stroke:#A80036;stroke-width:1.0;"/><!--MD5=[302965a0044879c14e80f6e5b90cc7f2]
link views.graphic.GraphicMainView to views.graphic.GraphicGoodbyeView--><path codeLine="129" d="M490.57,455.18 C490.57,476.75 490.57,508.93 490.57,531.94 " fill="none" id="views.graphic.GraphicMainView-to-views.graphic.GraphicGoodbyeView" style="stroke:#A80036;stroke-width:1.0;"/><polygon fill="#A80036" points="490.57,536.99,494.57,527.99,490.57,531.99,486.57,527.99,490.57,536.99" style="stroke:#A80036;stroke-width:1.0;"/><!--MD5=[fb9e04a73688d4584de69b49622ee524]
link views.graphic.GraphicMainView to views.graphic.GraphicResumeView--><path codeLine="130" d="M457.07,455.18 C424.98,477.38 376.64,510.83 343.23,533.94 " fill="none" id="views.graphic.GraphicMainView-to-views.graphic.GraphicResumeView" style="stroke:#A80036;stroke-width:1.0;"/><polygon fill="#A80036" points="338.82,536.99,348.4982,535.1646,342.9335,534.1477,343.9505,528.583,338.82,536.99" style="stroke:#A80036;stroke-width:1.0;"/><!--MD5=[b3f7cb5877713f23112f2206ba363d74]
reverse link views.GameView to views.graphic.GraphicGameView--><path d="M578.35,468.9 C421.8,523.3 368.02,490.27 213.57,530 C205.84,531.99 197.82,534.38 189.92,536.92 " fill="none" id="views.GameView-backto-views.graphic.GraphicGameView" style="stroke:#A80036;stroke-width:1.0;stroke-dasharray:7.0,7.0;"/><polygon fill="none" points="576.25,462.22,597.44,462.02,581,475.39,576.25,462.22" style="stroke:#A80036;stroke-width:1.0;"/><!--MD5=[618291005dbbaabf0859bf34a3df9d53]
reverse link views.GoodbyeView to views.graphic.GraphicGoodbyeView--><path d="M859.28,463.86 C855.35,465.66 851.42,467.39 847.57,469 C754,508.02 639.45,533.6 565.76,547.43 " fill="none" id="views.GoodbyeView-backto-views.graphic.GraphicGoodbyeView" style="stroke:#A80036;stroke-width:1.0;stroke-dasharray:7.0,7.0;"/><polygon fill="none" points="856.41,457.47,877.46,455.06,862.51,470.07,856.41,457.47" style="stroke:#A80036;stroke-width:1.0;"/><!--MD5=[e20e0183477b9e92cabffea97ef51b3f]
reverse link views.ResumeView to views.graphic.GraphicResumeView--><path d="M705.77,468.72 C572.62,516.34 528.57,498.19 398.57,530 C390.25,532.04 381.59,534.44 373.05,536.98 " fill="none" id="views.ResumeView-backto-views.graphic.GraphicResumeView" style="stroke:#A80036;stroke-width:1.0;stroke-dasharray:7.0,7.0;"/><polygon fill="none" points="703.53,462.09,724.72,461.73,708.38,475.22,703.53,462.09" style="stroke:#A80036;stroke-width:1.0;"/><!--MD5=[8505b08d5985ad2b6c54f9a5d567a73f]
reverse link utils.Console to v.c--><path codeLine="137" d="M2289.24,272.4 C2274.73,280.06 2259.33,287.66 2244.57,294 C2156.1,332.015 2053.2725,365.7825 1972.1062,390.1613 C1931.5231,402.3506 1896.3553,412.1928 1871.1052,419.0452 C1858.4801,422.4713 1848.3344,425.15 1841.231,427.001 C1840.343,427.2323 1839.5026,427.4508 1838.7109,427.6561 C1838.5129,427.7074 1838.318,427.7579 1838.1262,427.8076 " fill="none" id="utils.Console-backto-v.c" style="stroke:#A80036;stroke-width:1.0;stroke-dasharray:7.0,7.0;"/><polygon fill="#A80036" points="2293.72,270.03,2283.8951,270.7161,2289.3035,272.374,2287.6455,277.7825,2293.72,270.03" style="stroke:#A80036;stroke-width:1.0;"/><text fill="#000000" font-family="sans-serif" font-size="13" lengthAdjust="spacing" textLength="21" x="2212.57" y="321.4951">use</text><!--MD5=[35ed0851ba604e0f7834d275b46ec585]
@startuml
namespace mastermind {
    abstract class Mastermind {
        +play()
    }
    Mastermind *- -> views.MainView

    class ConsoleMastermind extends Mastermind {
        +{static} main(args: String[])
    }

    class GraphicMastermind extends Mastermind {
        +{static} main(args: String[])
    }
}

namespace models {
    class Game {
        +hasWon(): boolean
        +isEnded(): boolean
        +totalAttempts(): int
        +getSecretCombinationAsString(): String
        +getAttemptAsString(int): String
        +recordAttempt(Combination)
    }
    Game *- -> SecretCombination
    Game *- -> "0..10" Attempt
    Game ..> Combination : use

    class Combination {
        +addColor(Color)
        +isComplete(): boolean
        +toString(): String
    }
    Combination o- -> "4" types.Color

    class SecretCombination {
        +match(Combination): MatchResult
        +toString(): String
    }
    SecretCombination ..> Combination : use
    SecretCombination ..> MatchResult : return
    SecretCombination ..> types.Color : use
    SecretCombination -up-|> Combination

    class Attempt {
        +validateMatches(SecretCombination)
        +hasFourBlack(): boolean
        +toString():String
    }
    Attempt *- -> Combination
    Attempt o- -> MatchResult
    Attempt ..> SecretCombination : use

    class MatchResult {
        +blacks: int
        +whites: int
        +hasFourBlack(): boolean
        +toString(): String
    }
}

namespace types {
    enum Color {
        +RED
        +BLUE
        +YELLOW
        +GREEN
        +ORANGE
        +PURPLE

        +{static}parseSymbol(char): Color
        +{static}getAllowedSymbolsString(): String
        +getSymbol(): char
    }
}



package views {
    abstract class MainView {
        +start()
        +resume(): boolean
        +sayGoodBye()
    }
    MainView *- -> GameView
    MainView *- -> ResumeView
    MainView *- -> GoodbyeView

    interface GameView {
        +show()
    }

    interface ResumeView {
        interact(): boolean
    }

    interface GoodbyeView

    package console as v.c {
        class ConsoleMainView extends views.MainView {
            +show()
            +isResumed(): boolean
        }
        ConsoleMainView - -> ConsoleGameView
        ConsoleMainView - -> models.Game
        ConsoleMainView <.. mastermind.ConsoleMastermind : instance
        ConsoleMainView - ->  ConsoleResumeView
        ConsoleMainView - -> ConsoleGoodbyeView

        class ConsoleGameView implements views.GameView
        ConsoleGameView *-right-> ConsoleProposedCombinationView
        ConsoleGameView *- -> models.Game

        class ConsoleProposedCombinationView {
            +getProposedCombination(): Combination
        }
        ConsoleProposedCombinationView ..> models.Combination : use and return
        ConsoleProposedCombinationView ..> types.Color : use

        class ConsoleResumeView implements views.ResumeView
        class ConsoleGoodbyeView implements views.GoodbyeView
    }


    namespace graphic {
        class GraphicMainView extends views.MainView
        GraphicMainView <.up. mastermind.GraphicMastermind : instance
        GraphicMainView - -> GraphicGameView
        GraphicMainView - -> GraphicGoodbyeView
        GraphicMainView - -> GraphicResumeView

        class GraphicGameView implements views.GameView
        class GraphicGoodbyeView implements views.GoodbyeView
        class GraphicResumeView implements views.ResumeView
    }
}
v.c .up.> utils.Console : use

class utils.Console {
    +readString(String): String
    +writeln(String)
}
@enduml

PlantUML version 1.2021.5(Sun Apr 25 06:20:28 CDT 2021)
(GPL source distribution)
Java Runtime: OpenJDK Runtime Environment
JVM: Dynamic Code Evolution 64-Bit Server VM
Default Encoding: Cp1252
Language: en
Country: US
--></g></svg>