<?xml version="1.0" encoding="UTF-8" standalone="no"?><svg xmlns="http://www.w3.org/2000/svg" xmlns:xlink="http://www.w3.org/1999/xlink" contentScriptType="application/ecmascript" contentStyleType="text/css" height="1267px" preserveAspectRatio="none" style="width:792px;height:1267px;" version="1.1" viewBox="0 0 792 1267" width="792px" zoomAndPan="magnify"><defs><filter height="300%" id="flyjqxnq5mg0y" width="300%" x="-1" y="-1"><feGaussianBlur result="blurOut" stdDeviation="2.0"/><feColorMatrix in="blurOut" result="blurOut2" type="matrix" values="0 0 0 0 0 0 0 0 0 0 0 0 0 0 0 0 0 0 .4 0"/><feOffset dx="4.0" dy="4.0" in="blurOut2" result="blurOut3"/><feBlend in="SourceGraphic" in2="blurOut3" mode="normal"/></filter></defs><g><!--MD5=[b56d8ef9af079015670ad96965866810]
cluster mastermind--><polygon fill="#FFFFFF" filter="url(#flyjqxnq5mg0y)" points="597,6,685,6,692,29.6094,725,29.6094,725,120,597,120,597,6" style="stroke:#000000;stroke-width:1.5;"/><line style="stroke:#000000;stroke-width:1.5;" x1="597" x2="692" y1="29.6094" y2="29.6094"/><text fill="#000000" font-family="sans-serif" font-size="14" font-weight="bold" lengthAdjust="spacing" textLength="82" x="601" y="22.5332">mastermind</text><!--MD5=[e2a75efa8a0f57c2afae8bf75386f79c]
cluster views--><polygon fill="#FFFFFF" filter="url(#flyjqxnq5mg0y)" points="77,13,124,13,131,36.6094,573,36.6094,573,274,77,274,77,13" style="stroke:#000000;stroke-width:1.5;"/><line style="stroke:#000000;stroke-width:1.5;" x1="77" x2="131" y1="36.6094" y2="36.6094"/><text fill="#000000" font-family="sans-serif" font-size="14" font-weight="bold" lengthAdjust="spacing" textLength="41" x="81" y="29.5332">views</text><!--MD5=[a60570e4b426f702ccbb0d459e3b9417]
cluster models--><polygon fill="#FFFFFF" filter="url(#flyjqxnq5mg0y)" points="16,314,73,314,80,337.6094,380,337.6094,380,1225,16,1225,16,314" style="stroke:#000000;stroke-width:1.5;"/><line style="stroke:#000000;stroke-width:1.5;" x1="16" x2="80" y1="337.6094" y2="337.6094"/><text fill="#000000" font-family="sans-serif" font-size="14" font-weight="bold" lengthAdjust="spacing" textLength="51" x="20" y="330.5332">models</text><!--MD5=[67cd15ce44b6dd54f77054b62c31bf42]
cluster types--><polygon fill="#FFFFFF" filter="url(#flyjqxnq5mg0y)" points="404,1035,448,1035,455,1058.6094,628,1058.6094,628,1260,404,1260,404,1035" style="stroke:#000000;stroke-width:1.5;"/><line style="stroke:#000000;stroke-width:1.5;" x1="404" x2="455" y1="1058.6094" y2="1058.6094"/><text fill="#000000" font-family="sans-serif" font-size="14" font-weight="bold" lengthAdjust="spacing" textLength="38" x="408" y="1051.5332">types</text><!--MD5=[c52f45833d539af9e29a9d34b8b7302b]
cluster utils--><polygon fill="#FFFFFF" filter="url(#flyjqxnq5mg0y)" points="597,153,633,153,640,176.6094,775,176.6094,775,281,597,281,597,153" style="stroke:#000000;stroke-width:1.5;"/><line style="stroke:#000000;stroke-width:1.5;" x1="597" x2="640" y1="176.6094" y2="176.6094"/><text fill="#000000" font-family="sans-serif" font-size="14" font-weight="bold" lengthAdjust="spacing" textLength="30" x="601" y="169.5332">utils</text><!--MD5=[2644ebcd5d54ed4e26c0fd29d7c7c41f]
class mastermind.MasterMind--><rect codeLine="2" fill="#FEFECE" filter="url(#flyjqxnq5mg0y)" height="61.8359" id="mastermind.MasterMind" style="stroke:#A80036;stroke-width:1.5;" width="95" x="613.5" y="42"/><ellipse cx="628.5" cy="58" fill="#ADD1B2" rx="11" ry="11" style="stroke:#A80036;stroke-width:1.0;"/><path d="M630.5,54.5 Q630.7031,54 630.9375,53.75 Q631.1719,53.5 631.4375,53.5 Q631.9063,53.5 632.2031,53.7813 Q632.5,54.0625 632.5,54.7188 L632.5,56.2813 Q632.5,56.9375 632.2188,57.2188 Q631.9375,57.5 631.5,57.5 Q631.1094,57.5 630.8594,57.3281 Q630.6094,57.1563 630.5,56.7031 Q630.4531,56.3906 630.2813,56.2188 Q629.9688,55.8906 629.4063,55.7031 Q628.8438,55.5 628.2813,55.5 Q627.5781,55.5 626.9844,55.7813 Q626.4063,56.0625 625.9531,56.6875 Q625.5,57.3125 625.5,58.1719 L625.5,59.0938 Q625.5,60.125 626.3438,60.8125 Q627.1875,61.5 628.6875,61.5 Q629.5781,61.5 630.2031,61.2969 Q630.5625,61.1875 630.9688,60.8281 Q631.2344,60.625 631.375,60.5625 Q631.5156,60.5 631.6875,60.5 Q632.0156,60.5 632.25,60.7656 Q632.5,61.0156 632.5,61.375 Q632.5,61.7188 632.1563,62.125 Q631.6563,62.7188 630.8594,63.0469 Q629.8125,63.5 628.5313,63.5 Q627.0313,63.5 625.8281,62.9063 Q624.8594,62.4375 624.1719,61.4219 Q623.5,60.4063 623.5,59.2031 L623.5,58.1094 Q623.5,56.8594 624.0938,55.7656 Q624.7031,54.6719 625.75,54.0938 Q626.8125,53.5 628,53.5 Q628.7188,53.5 629.3438,53.75 Q629.9688,54 630.5,54.5 Z " fill="#000000"/><text fill="#000000" font-family="sans-serif" font-size="12" lengthAdjust="spacing" textLength="63" x="642.5" y="62.9102">MasterMind</text><line style="stroke:#A80036;stroke-width:1.5;" x1="614.5" x2="707.5" y1="74" y2="74"/><line style="stroke:#A80036;stroke-width:1.5;" x1="614.5" x2="707.5" y1="82" y2="82"/><ellipse cx="624.5" cy="93" fill="#84BE84" rx="3" ry="3" style="stroke:#038048;stroke-width:1.0;"/><text fill="#000000" font-family="sans-serif" font-size="11" lengthAdjust="spacing" textLength="28" x="633.5" y="97.4189">play()</text><!--MD5=[c08510981353a076a393ca6699f69b3d]
class views.MainView--><rect codeLine="81" fill="#FEFECE" filter="url(#flyjqxnq5mg0y)" height="61.8359" id="views.MainView" style="stroke:#A80036;stroke-width:1.5;" width="84" x="220" y="196"/><ellipse cx="235" cy="212" fill="#ADD1B2" rx="11" ry="11" style="stroke:#A80036;stroke-width:1.0;"/><path d="M237,208.5 Q237.2031,208 237.4375,207.75 Q237.6719,207.5 237.9375,207.5 Q238.4063,207.5 238.7031,207.7813 Q239,208.0625 239,208.7188 L239,210.2813 Q239,210.9375 238.7188,211.2188 Q238.4375,211.5 238,211.5 Q237.6094,211.5 237.3594,211.3281 Q237.1094,211.1563 237,210.7031 Q236.9531,210.3906 236.7813,210.2188 Q236.4688,209.8906 235.9063,209.7031 Q235.3438,209.5 234.7813,209.5 Q234.0781,209.5 233.4844,209.7813 Q232.9063,210.0625 232.4531,210.6875 Q232,211.3125 232,212.1719 L232,213.0938 Q232,214.125 232.8438,214.8125 Q233.6875,215.5 235.1875,215.5 Q236.0781,215.5 236.7031,215.2969 Q237.0625,215.1875 237.4688,214.8281 Q237.7344,214.625 237.875,214.5625 Q238.0156,214.5 238.1875,214.5 Q238.5156,214.5 238.75,214.7656 Q239,215.0156 239,215.375 Q239,215.7188 238.6563,216.125 Q238.1563,216.7188 237.3594,217.0469 Q236.3125,217.5 235.0313,217.5 Q233.5313,217.5 232.3281,216.9063 Q231.3594,216.4375 230.6719,215.4219 Q230,214.4063 230,213.2031 L230,212.1094 Q230,210.8594 230.5938,209.7656 Q231.2031,208.6719 232.25,208.0938 Q233.3125,207.5 234.5,207.5 Q235.2188,207.5 235.8438,207.75 Q236.4688,208 237,208.5 Z " fill="#000000"/><text fill="#000000" font-family="sans-serif" font-size="12" lengthAdjust="spacing" textLength="52" x="249" y="216.9102">MainView</text><line style="stroke:#A80036;stroke-width:1.5;" x1="221" x2="303" y1="228" y2="228"/><line style="stroke:#A80036;stroke-width:1.5;" x1="221" x2="303" y1="236" y2="236"/><ellipse cx="231" cy="247" fill="#84BE84" rx="3" ry="3" style="stroke:#038048;stroke-width:1.0;"/><text fill="#000000" font-family="sans-serif" font-size="11" lengthAdjust="spacing" textLength="36" x="240" y="251.4189">show()</text><!--MD5=[4867c87a481be1ae980c26fbb6d0e63a]
class views.ConsoleView--><rect codeLine="77" fill="#FEFECE" filter="url(#flyjqxnq5mg0y)" height="48" id="views.ConsoleView" style="stroke:#A80036;stroke-width:1.5;" width="104" x="288" y="49"/><ellipse cx="303" cy="65" fill="#A9DCDF" rx="11" ry="11" style="stroke:#A80036;stroke-width:1.0;"/><path d="M304.75,66.5 L301.4531,66.5 L301.0156,67.5 L301.0156,67.5 L301.4844,67.5 L302,68.125 L302,68.5 L302,68.875 L301.4844,69.5 L301.0156,69.5 L299.125,69.5 L298.5156,69.5 L298,68.875 L298,68.5 L298,68.125 L298.5156,67.5 L299.125,67.5 L301.4375,61.5 L300.5625,61.5 L299.5156,61.5 L299,60.875 L299,60.5 L299,60.125 L299.5156,59.5 L300.5625,59.5 L304.2344,59.5 L306.9219,67.5 L307.4844,67.5 L307.4844,67.5 L308,68.125 L308,68.5 L308,68.875 L307.4844,69.5 L306.9219,69.5 L305.0313,69.5 L304.5156,69.5 L304,68.875 L304,68.5 L304,68.125 L304.5156,67.5 L305.0313,67.5 L305.0313,67.5 L304.75,66.5 Z M304.2031,64.5 L303,60.9219 L301.9688,64.5 L304.2031,64.5 Z " fill="#000000"/><text fill="#000000" font-family="sans-serif" font-size="12" font-style="italic" lengthAdjust="spacing" textLength="72" x="317" y="69.9102">ConsoleView</text><line style="stroke:#A80036;stroke-width:1.5;" x1="289" x2="391" y1="81" y2="81"/><line style="stroke:#A80036;stroke-width:1.5;" x1="289" x2="391" y1="89" y2="89"/><!--MD5=[0e9cede7ddd4e4e36ab8b254b2681755]
class views.GameView--><rect codeLine="87" fill="#FEFECE" filter="url(#flyjqxnq5mg0y)" height="61.8359" id="views.GameView" style="stroke:#A80036;stroke-width:1.5;" width="92" x="93" y="196"/><ellipse cx="108" cy="212" fill="#ADD1B2" rx="11" ry="11" style="stroke:#A80036;stroke-width:1.0;"/><path d="M110,208.5 Q110.2031,208 110.4375,207.75 Q110.6719,207.5 110.9375,207.5 Q111.4063,207.5 111.7031,207.7813 Q112,208.0625 112,208.7188 L112,210.2813 Q112,210.9375 111.7188,211.2188 Q111.4375,211.5 111,211.5 Q110.6094,211.5 110.3594,211.3281 Q110.1094,211.1563 110,210.7031 Q109.9531,210.3906 109.7813,210.2188 Q109.4688,209.8906 108.9063,209.7031 Q108.3438,209.5 107.7813,209.5 Q107.0781,209.5 106.4844,209.7813 Q105.9063,210.0625 105.4531,210.6875 Q105,211.3125 105,212.1719 L105,213.0938 Q105,214.125 105.8438,214.8125 Q106.6875,215.5 108.1875,215.5 Q109.0781,215.5 109.7031,215.2969 Q110.0625,215.1875 110.4688,214.8281 Q110.7344,214.625 110.875,214.5625 Q111.0156,214.5 111.1875,214.5 Q111.5156,214.5 111.75,214.7656 Q112,215.0156 112,215.375 Q112,215.7188 111.6563,216.125 Q111.1563,216.7188 110.3594,217.0469 Q109.3125,217.5 108.0313,217.5 Q106.5313,217.5 105.3281,216.9063 Q104.3594,216.4375 103.6719,215.4219 Q103,214.4063 103,213.2031 L103,212.1094 Q103,210.8594 103.5938,209.7656 Q104.2031,208.6719 105.25,208.0938 Q106.3125,207.5 107.5,207.5 Q108.2188,207.5 108.8438,207.75 Q109.4688,208 110,208.5 Z " fill="#000000"/><text fill="#000000" font-family="sans-serif" font-size="12" lengthAdjust="spacing" textLength="60" x="122" y="216.9102">GameView</text><line style="stroke:#A80036;stroke-width:1.5;" x1="94" x2="184" y1="228" y2="228"/><line style="stroke:#A80036;stroke-width:1.5;" x1="94" x2="184" y1="236" y2="236"/><ellipse cx="104" cy="247" fill="#84BE84" rx="3" ry="3" style="stroke:#038048;stroke-width:1.0;"/><text fill="#000000" font-family="sans-serif" font-size="11" lengthAdjust="spacing" textLength="36" x="113" y="251.4189">show()</text><!--MD5=[3a2f13ab1c339ef90be8a72deeded993]
class views.ProposedCombinationView--><rect codeLine="93" fill="#FEFECE" filter="url(#flyjqxnq5mg0y)" height="61.8359" id="views.ProposedCombinationView" style="stroke:#A80036;stroke-width:1.5;" width="217" x="339.5" y="196"/><ellipse cx="369.8" cy="212" fill="#ADD1B2" rx="11" ry="11" style="stroke:#A80036;stroke-width:1.0;"/><path d="M371.8,208.5 Q372.0031,208 372.2375,207.75 Q372.4719,207.5 372.7375,207.5 Q373.2063,207.5 373.5031,207.7813 Q373.8,208.0625 373.8,208.7188 L373.8,210.2813 Q373.8,210.9375 373.5188,211.2188 Q373.2375,211.5 372.8,211.5 Q372.4094,211.5 372.1594,211.3281 Q371.9094,211.1563 371.8,210.7031 Q371.7531,210.3906 371.5813,210.2188 Q371.2688,209.8906 370.7063,209.7031 Q370.1438,209.5 369.5813,209.5 Q368.8781,209.5 368.2844,209.7813 Q367.7063,210.0625 367.2531,210.6875 Q366.8,211.3125 366.8,212.1719 L366.8,213.0938 Q366.8,214.125 367.6438,214.8125 Q368.4875,215.5 369.9875,215.5 Q370.8781,215.5 371.5031,215.2969 Q371.8625,215.1875 372.2688,214.8281 Q372.5344,214.625 372.675,214.5625 Q372.8156,214.5 372.9875,214.5 Q373.3156,214.5 373.55,214.7656 Q373.8,215.0156 373.8,215.375 Q373.8,215.7188 373.4563,216.125 Q372.9563,216.7188 372.1594,217.0469 Q371.1125,217.5 369.8313,217.5 Q368.3313,217.5 367.1281,216.9063 Q366.1594,216.4375 365.4719,215.4219 Q364.8,214.4063 364.8,213.2031 L364.8,212.1094 Q364.8,210.8594 365.3938,209.7656 Q366.0031,208.6719 367.05,208.0938 Q368.1125,207.5 369.3,207.5 Q370.0188,207.5 370.6438,207.75 Q371.2688,208 371.8,208.5 Z " fill="#000000"/><text fill="#000000" font-family="sans-serif" font-size="12" lengthAdjust="spacing" textLength="151" x="387.2" y="216.9102">ProposedCombinationView</text><line style="stroke:#A80036;stroke-width:1.5;" x1="340.5" x2="555.5" y1="228" y2="228"/><line style="stroke:#A80036;stroke-width:1.5;" x1="340.5" x2="555.5" y1="236" y2="236"/><ellipse cx="350.5" cy="247" fill="#84BE84" rx="3" ry="3" style="stroke:#038048;stroke-width:1.0;"/><text fill="#000000" font-family="sans-serif" font-size="11" lengthAdjust="spacing" textLength="191" x="359.5" y="251.4189">getProposedCombination(): Combination</text><!--MD5=[1ea5cf3e691bb3552ec8d5f9a56af156]
class models.Game--><rect codeLine="9" fill="#FEFECE" filter="url(#flyjqxnq5mg0y)" height="131.0156" id="models.Game" style="stroke:#A80036;stroke-width:1.5;" width="215" x="62.5" y="350"/><ellipse cx="148.75" cy="366" fill="#ADD1B2" rx="11" ry="11" style="stroke:#A80036;stroke-width:1.0;"/><path d="M150.75,362.5 Q150.9531,362 151.1875,361.75 Q151.4219,361.5 151.6875,361.5 Q152.1563,361.5 152.4531,361.7813 Q152.75,362.0625 152.75,362.7188 L152.75,364.2813 Q152.75,364.9375 152.4688,365.2188 Q152.1875,365.5 151.75,365.5 Q151.3594,365.5 151.1094,365.3281 Q150.8594,365.1563 150.75,364.7031 Q150.7031,364.3906 150.5313,364.2188 Q150.2188,363.8906 149.6563,363.7031 Q149.0938,363.5 148.5313,363.5 Q147.8281,363.5 147.2344,363.7813 Q146.6563,364.0625 146.2031,364.6875 Q145.75,365.3125 145.75,366.1719 L145.75,367.0938 Q145.75,368.125 146.5938,368.8125 Q147.4375,369.5 148.9375,369.5 Q149.8281,369.5 150.4531,369.2969 Q150.8125,369.1875 151.2188,368.8281 Q151.4844,368.625 151.625,368.5625 Q151.7656,368.5 151.9375,368.5 Q152.2656,368.5 152.5,368.7656 Q152.75,369.0156 152.75,369.375 Q152.75,369.7188 152.4063,370.125 Q151.9063,370.7188 151.1094,371.0469 Q150.0625,371.5 148.7813,371.5 Q147.2813,371.5 146.0781,370.9063 Q145.1094,370.4375 144.4219,369.4219 Q143.75,368.4063 143.75,367.2031 L143.75,366.1094 Q143.75,364.8594 144.3438,363.7656 Q144.9531,362.6719 146,362.0938 Q147.0625,361.5 148.25,361.5 Q148.9688,361.5 149.5938,361.75 Q150.2188,362 150.75,362.5 Z " fill="#000000"/><text fill="#000000" font-family="sans-serif" font-size="12" lengthAdjust="spacing" textLength="34" x="169.25" y="370.9102">Game</text><line style="stroke:#A80036;stroke-width:1.5;" x1="63.5" x2="276.5" y1="382" y2="382"/><line style="stroke:#A80036;stroke-width:1.5;" x1="63.5" x2="276.5" y1="390" y2="390"/><ellipse cx="73.5" cy="401" fill="#84BE84" rx="3" ry="3" style="stroke:#038048;stroke-width:1.0;"/><text fill="#000000" font-family="sans-serif" font-size="11" lengthAdjust="spacing" textLength="92" x="82.5" y="405.4189">hasWon(): boolean</text><ellipse cx="73.5" cy="414.8359" fill="#84BE84" rx="3" ry="3" style="stroke:#038048;stroke-width:1.0;"/><text fill="#000000" font-family="sans-serif" font-size="11" lengthAdjust="spacing" textLength="90" x="82.5" y="419.2549">isEnded(): boolean</text><ellipse cx="73.5" cy="428.6719" fill="#84BE84" rx="3" ry="3" style="stroke:#038048;stroke-width:1.0;"/><text fill="#000000" font-family="sans-serif" font-size="11" lengthAdjust="spacing" textLength="88" x="82.5" y="433.0908">totalAttempts(): int</text><ellipse cx="73.5" cy="442.5078" fill="#84BE84" rx="3" ry="3" style="stroke:#038048;stroke-width:1.0;"/><text fill="#000000" font-family="sans-serif" font-size="11" lengthAdjust="spacing" textLength="189" x="82.5" y="446.9268">getSecretCombinationAsString(): String</text><ellipse cx="73.5" cy="456.3438" fill="#84BE84" rx="3" ry="3" style="stroke:#038048;stroke-width:1.0;"/><text fill="#000000" font-family="sans-serif" font-size="11" lengthAdjust="spacing" textLength="147" x="82.5" y="460.7627">getAttemptAsString(int): String</text><ellipse cx="73.5" cy="470.1797" fill="#84BE84" rx="3" ry="3" style="stroke:#038048;stroke-width:1.0;"/><text fill="#000000" font-family="sans-serif" font-size="11" lengthAdjust="spacing" textLength="135" x="82.5" y="474.5986">recordAttempt(Combination)</text><!--MD5=[b89ed330bc8394929f0ad94fa56293db]
class models.SecretCombination--><rect codeLine="28" fill="#FEFECE" filter="url(#flyjqxnq5mg0y)" height="75.6719" id="models.SecretCombination" style="stroke:#A80036;stroke-width:1.5;" width="186" x="145" y="895"/><ellipse cx="181.6" cy="911" fill="#ADD1B2" rx="11" ry="11" style="stroke:#A80036;stroke-width:1.0;"/><path d="M183.6,907.5 Q183.8031,907 184.0375,906.75 Q184.2719,906.5 184.5375,906.5 Q185.0063,906.5 185.3031,906.7813 Q185.6,907.0625 185.6,907.7188 L185.6,909.2813 Q185.6,909.9375 185.3188,910.2188 Q185.0375,910.5 184.6,910.5 Q184.2094,910.5 183.9594,910.3281 Q183.7094,910.1563 183.6,909.7031 Q183.5531,909.3906 183.3813,909.2188 Q183.0688,908.8906 182.5063,908.7031 Q181.9438,908.5 181.3813,908.5 Q180.6781,908.5 180.0844,908.7813 Q179.5063,909.0625 179.0531,909.6875 Q178.6,910.3125 178.6,911.1719 L178.6,912.0938 Q178.6,913.125 179.4438,913.8125 Q180.2875,914.5 181.7875,914.5 Q182.6781,914.5 183.3031,914.2969 Q183.6625,914.1875 184.0688,913.8281 Q184.3344,913.625 184.475,913.5625 Q184.6156,913.5 184.7875,913.5 Q185.1156,913.5 185.35,913.7656 Q185.6,914.0156 185.6,914.375 Q185.6,914.7188 185.2563,915.125 Q184.7563,915.7188 183.9594,916.0469 Q182.9125,916.5 181.6313,916.5 Q180.1313,916.5 178.9281,915.9063 Q177.9594,915.4375 177.2719,914.4219 Q176.6,913.4063 176.6,912.2031 L176.6,911.1094 Q176.6,909.8594 177.1938,908.7656 Q177.8031,907.6719 178.85,907.0938 Q179.9125,906.5 181.1,906.5 Q181.8188,906.5 182.4438,906.75 Q183.0688,907 183.6,907.5 Z " fill="#000000"/><text fill="#000000" font-family="sans-serif" font-size="12" lengthAdjust="spacing" textLength="106" x="200.4" y="915.9102">SecretCombination</text><line style="stroke:#A80036;stroke-width:1.5;" x1="146" x2="330" y1="927" y2="927"/><line style="stroke:#A80036;stroke-width:1.5;" x1="146" x2="330" y1="935" y2="935"/><ellipse cx="156" cy="946" fill="#84BE84" rx="3" ry="3" style="stroke:#038048;stroke-width:1.0;"/><text fill="#000000" font-family="sans-serif" font-size="11" lengthAdjust="spacing" textLength="160" x="165" y="950.4189">match(Combination): MatchResult</text><ellipse cx="156" cy="959.8359" fill="#84BE84" rx="3" ry="3" style="stroke:#038048;stroke-width:1.0;"/><text fill="#000000" font-family="sans-serif" font-size="11" lengthAdjust="spacing" textLength="79" x="165" y="964.2549">toString(): String</text><!--MD5=[54d08704be622b91252e030e0f93b574]
class models.Attempt--><rect codeLine="37" fill="#FEFECE" filter="url(#flyjqxnq5mg0y)" height="89.5078" id="models.Attempt" style="stroke:#A80036;stroke-width:1.5;" width="202" x="69" y="559"/><ellipse cx="145.25" cy="575" fill="#ADD1B2" rx="11" ry="11" style="stroke:#A80036;stroke-width:1.0;"/><path d="M147.25,571.5 Q147.4531,571 147.6875,570.75 Q147.9219,570.5 148.1875,570.5 Q148.6563,570.5 148.9531,570.7813 Q149.25,571.0625 149.25,571.7188 L149.25,573.2813 Q149.25,573.9375 148.9688,574.2188 Q148.6875,574.5 148.25,574.5 Q147.8594,574.5 147.6094,574.3281 Q147.3594,574.1563 147.25,573.7031 Q147.2031,573.3906 147.0313,573.2188 Q146.7188,572.8906 146.1563,572.7031 Q145.5938,572.5 145.0313,572.5 Q144.3281,572.5 143.7344,572.7813 Q143.1563,573.0625 142.7031,573.6875 Q142.25,574.3125 142.25,575.1719 L142.25,576.0938 Q142.25,577.125 143.0938,577.8125 Q143.9375,578.5 145.4375,578.5 Q146.3281,578.5 146.9531,578.2969 Q147.3125,578.1875 147.7188,577.8281 Q147.9844,577.625 148.125,577.5625 Q148.2656,577.5 148.4375,577.5 Q148.7656,577.5 149,577.7656 Q149.25,578.0156 149.25,578.375 Q149.25,578.7188 148.9063,579.125 Q148.4063,579.7188 147.6094,580.0469 Q146.5625,580.5 145.2813,580.5 Q143.7813,580.5 142.5781,579.9063 Q141.6094,579.4375 140.9219,578.4219 Q140.25,577.4063 140.25,576.2031 L140.25,575.1094 Q140.25,573.8594 140.8438,572.7656 Q141.4531,571.6719 142.5,571.0938 Q143.5625,570.5 144.75,570.5 Q145.4688,570.5 146.0938,570.75 Q146.7188,571 147.25,571.5 Z " fill="#000000"/><text fill="#000000" font-family="sans-serif" font-size="12" lengthAdjust="spacing" textLength="41" x="165.75" y="579.9102">Attempt</text><line style="stroke:#A80036;stroke-width:1.5;" x1="70" x2="270" y1="591" y2="591"/><line style="stroke:#A80036;stroke-width:1.5;" x1="70" x2="270" y1="599" y2="599"/><ellipse cx="80" cy="610" fill="#84BE84" rx="3" ry="3" style="stroke:#038048;stroke-width:1.0;"/><text fill="#000000" font-family="sans-serif" font-size="11" lengthAdjust="spacing" textLength="176" x="89" y="614.4189">validateMatches(SecretCombination)</text><ellipse cx="80" cy="623.8359" fill="#84BE84" rx="3" ry="3" style="stroke:#038048;stroke-width:1.0;"/><text fill="#000000" font-family="sans-serif" font-size="11" lengthAdjust="spacing" textLength="118" x="89" y="628.2549">hasFourBlack(): boolean</text><ellipse cx="80" cy="637.6719" fill="#84BE84" rx="3" ry="3" style="stroke:#038048;stroke-width:1.0;"/><text fill="#000000" font-family="sans-serif" font-size="11" lengthAdjust="spacing" textLength="76" x="89" y="642.0908">toString():String</text><!--MD5=[3ab7dea9c5f32da8266d9170b1b41dc7]
class models.Combination--><rect codeLine="21" fill="#FEFECE" filter="url(#flyjqxnq5mg0y)" height="89.5078" id="models.Combination" style="stroke:#A80036;stroke-width:1.5;" width="130" x="234" y="727"/><ellipse cx="261.15" cy="743" fill="#ADD1B2" rx="11" ry="11" style="stroke:#A80036;stroke-width:1.0;"/><path d="M263.15,739.5 Q263.3531,739 263.5875,738.75 Q263.8219,738.5 264.0875,738.5 Q264.5563,738.5 264.8531,738.7813 Q265.15,739.0625 265.15,739.7188 L265.15,741.2813 Q265.15,741.9375 264.8688,742.2188 Q264.5875,742.5 264.15,742.5 Q263.7594,742.5 263.5094,742.3281 Q263.2594,742.1563 263.15,741.7031 Q263.1031,741.3906 262.9313,741.2188 Q262.6188,740.8906 262.0563,740.7031 Q261.4938,740.5 260.9313,740.5 Q260.2281,740.5 259.6344,740.7813 Q259.0563,741.0625 258.6031,741.6875 Q258.15,742.3125 258.15,743.1719 L258.15,744.0938 Q258.15,745.125 258.9938,745.8125 Q259.8375,746.5 261.3375,746.5 Q262.2281,746.5 262.8531,746.2969 Q263.2125,746.1875 263.6188,745.8281 Q263.8844,745.625 264.025,745.5625 Q264.1656,745.5 264.3375,745.5 Q264.6656,745.5 264.9,745.7656 Q265.15,746.0156 265.15,746.375 Q265.15,746.7188 264.8063,747.125 Q264.3063,747.7188 263.5094,748.0469 Q262.4625,748.5 261.1813,748.5 Q259.6813,748.5 258.4781,747.9063 Q257.5094,747.4375 256.8219,746.4219 Q256.15,745.4063 256.15,744.2031 L256.15,743.1094 Q256.15,741.8594 256.7438,740.7656 Q257.3531,739.6719 258.4,739.0938 Q259.4625,738.5 260.65,738.5 Q261.3688,738.5 261.9938,738.75 Q262.6188,739 263.15,739.5 Z " fill="#000000"/><text fill="#000000" font-family="sans-serif" font-size="12" lengthAdjust="spacing" textLength="71" x="277.85" y="747.9102">Combination</text><line style="stroke:#A80036;stroke-width:1.5;" x1="235" x2="363" y1="759" y2="759"/><line style="stroke:#A80036;stroke-width:1.5;" x1="235" x2="363" y1="767" y2="767"/><ellipse cx="245" cy="778" fill="#84BE84" rx="3" ry="3" style="stroke:#038048;stroke-width:1.0;"/><text fill="#000000" font-family="sans-serif" font-size="11" lengthAdjust="spacing" textLength="76" x="254" y="782.4189">addColor(Color)</text><ellipse cx="245" cy="791.8359" fill="#84BE84" rx="3" ry="3" style="stroke:#038048;stroke-width:1.0;"/><text fill="#000000" font-family="sans-serif" font-size="11" lengthAdjust="spacing" textLength="104" x="254" y="796.2549">isComplete(): boolean</text><ellipse cx="245" cy="805.6719" fill="#84BE84" rx="3" ry="3" style="stroke:#038048;stroke-width:1.0;"/><text fill="#000000" font-family="sans-serif" font-size="11" lengthAdjust="spacing" textLength="79" x="254" y="810.0908">toString(): String</text><!--MD5=[d3be15b15195578bc5b8b929afb3b99a]
class models.MatchResult--><rect codeLine="46" fill="#FEFECE" filter="url(#flyjqxnq5mg0y)" height="103.3438" id="models.MatchResult" style="stroke:#A80036;stroke-width:1.5;" width="144" x="76" y="1106"/><ellipse cx="110.8" cy="1122" fill="#ADD1B2" rx="11" ry="11" style="stroke:#A80036;stroke-width:1.0;"/><path d="M112.8,1118.5 Q113.0031,1118 113.2375,1117.75 Q113.4719,1117.5 113.7375,1117.5 Q114.2063,1117.5 114.5031,1117.7813 Q114.8,1118.0625 114.8,1118.7188 L114.8,1120.2813 Q114.8,1120.9375 114.5188,1121.2188 Q114.2375,1121.5 113.8,1121.5 Q113.4094,1121.5 113.1594,1121.3281 Q112.9094,1121.1563 112.8,1120.7031 Q112.7531,1120.3906 112.5813,1120.2188 Q112.2688,1119.8906 111.7063,1119.7031 Q111.1438,1119.5 110.5813,1119.5 Q109.8781,1119.5 109.2844,1119.7813 Q108.7063,1120.0625 108.2531,1120.6875 Q107.8,1121.3125 107.8,1122.1719 L107.8,1123.0938 Q107.8,1124.125 108.6438,1124.8125 Q109.4875,1125.5 110.9875,1125.5 Q111.8781,1125.5 112.5031,1125.2969 Q112.8625,1125.1875 113.2688,1124.8281 Q113.5344,1124.625 113.675,1124.5625 Q113.8156,1124.5 113.9875,1124.5 Q114.3156,1124.5 114.55,1124.7656 Q114.8,1125.0156 114.8,1125.375 Q114.8,1125.7188 114.4563,1126.125 Q113.9563,1126.7188 113.1594,1127.0469 Q112.1125,1127.5 110.8313,1127.5 Q109.3313,1127.5 108.1281,1126.9063 Q107.1594,1126.4375 106.4719,1125.4219 Q105.8,1124.4063 105.8,1123.2031 L105.8,1122.1094 Q105.8,1120.8594 106.3938,1119.7656 Q107.0031,1118.6719 108.05,1118.0938 Q109.1125,1117.5 110.3,1117.5 Q111.0188,1117.5 111.6438,1117.75 Q112.2688,1118 112.8,1118.5 Z " fill="#000000"/><text fill="#000000" font-family="sans-serif" font-size="12" lengthAdjust="spacing" textLength="68" x="129.2" y="1126.9102">MatchResult</text><line style="stroke:#A80036;stroke-width:1.5;" x1="77" x2="219" y1="1138" y2="1138"/><ellipse cx="87" cy="1149" rx="3" ry="3" style="stroke:#038048;stroke-width:1.0;fill:none;"/><text fill="#000000" font-family="sans-serif" font-size="11" lengthAdjust="spacing" textLength="48" x="96" y="1153.4189">blacks: int</text><ellipse cx="87" cy="1162.8359" rx="3" ry="3" style="stroke:#038048;stroke-width:1.0;fill:none;"/><text fill="#000000" font-family="sans-serif" font-size="11" lengthAdjust="spacing" textLength="50" x="96" y="1167.2549">whites: int</text><line style="stroke:#A80036;stroke-width:1.5;" x1="77" x2="219" y1="1173.6719" y2="1173.6719"/><ellipse cx="87" cy="1184.6719" fill="#84BE84" rx="3" ry="3" style="stroke:#038048;stroke-width:1.0;"/><text fill="#000000" font-family="sans-serif" font-size="11" lengthAdjust="spacing" textLength="118" x="96" y="1189.0908">hasFourBlack(): boolean</text><ellipse cx="87" cy="1198.5078" fill="#84BE84" rx="3" ry="3" style="stroke:#038048;stroke-width:1.0;"/><text fill="#000000" font-family="sans-serif" font-size="11" lengthAdjust="spacing" textLength="79" x="96" y="1202.9268">toString(): String</text><!--MD5=[e88a50b03f092bdcaf627b677de9be1f]
class types.Color--><rect codeLine="55" fill="#FEFECE" filter="url(#flyjqxnq5mg0y)" height="172.5234" id="types.Color" style="stroke:#A80036;stroke-width:1.5;" width="192" x="420" y="1071"/><ellipse cx="496.75" cy="1087" fill="#EB937F" rx="11" ry="11" style="stroke:#A80036;stroke-width:1.0;"/><path d="M495.25,1088 L495.25,1090 L499.25,1090 L499.25,1089 L499.25,1088.5156 L499.875,1088 L500.25,1088 L500.625,1088 L501.25,1088.5156 L501.25,1089 L501.25,1092 L493.25,1092 L492.7656,1092 L492.25,1091.375 L492.25,1091 L492.25,1090.625 L492.7656,1090 L493.25,1090 L493.25,1090 L493.25,1084 L493.25,1084 L492.7656,1084 L492.25,1083.375 L492.25,1083 L492.25,1082.625 L492.7656,1082 L493.25,1082 L501.25,1082 L501.25,1085 L501.25,1085.4844 L500.625,1086 L500.25,1086 L499.875,1086 L499.25,1085.4844 L499.25,1085 L499.25,1084 L495.25,1084 L495.25,1086 L496.25,1086 L496.25,1085.5156 L496.25,1085.5156 L496.875,1085 L497.25,1085 L497.625,1085 L498.25,1085.5156 L498.25,1086 L498.25,1088 L498.25,1088.4844 L497.625,1089 L497.625,1089 L497.25,1089 L496.875,1089 L496.25,1088.4844 L496.25,1088.4844 L496.25,1088 L495.25,1088 Z " fill="#000000"/><text fill="#000000" font-family="sans-serif" font-size="12" lengthAdjust="spacing" textLength="30" x="517.25" y="1091.9102">Color</text><line style="stroke:#A80036;stroke-width:1.5;" x1="421" x2="611" y1="1103" y2="1103"/><ellipse cx="431" cy="1114" rx="3" ry="3" style="stroke:#038048;stroke-width:1.0;fill:none;"/><text fill="#000000" font-family="sans-serif" font-size="11" lengthAdjust="spacing" textLength="20" x="440" y="1118.4189">RED</text><ellipse cx="431" cy="1127.8359" rx="3" ry="3" style="stroke:#038048;stroke-width:1.0;fill:none;"/><text fill="#000000" font-family="sans-serif" font-size="11" lengthAdjust="spacing" textLength="26" x="440" y="1132.2549">BLUE</text><ellipse cx="431" cy="1141.6719" rx="3" ry="3" style="stroke:#038048;stroke-width:1.0;fill:none;"/><text fill="#000000" font-family="sans-serif" font-size="11" lengthAdjust="spacing" textLength="44" x="440" y="1146.0908">YELLOW</text><ellipse cx="431" cy="1155.5078" rx="3" ry="3" style="stroke:#038048;stroke-width:1.0;fill:none;"/><text fill="#000000" font-family="sans-serif" font-size="11" lengthAdjust="spacing" textLength="34" x="440" y="1159.9268">GREEN</text><ellipse cx="431" cy="1169.3438" rx="3" ry="3" style="stroke:#038048;stroke-width:1.0;fill:none;"/><text fill="#000000" font-family="sans-serif" font-size="11" lengthAdjust="spacing" textLength="44" x="440" y="1173.7627">ORANGE</text><ellipse cx="431" cy="1183.1797" rx="3" ry="3" style="stroke:#038048;stroke-width:1.0;fill:none;"/><text fill="#000000" font-family="sans-serif" font-size="11" lengthAdjust="spacing" textLength="38" x="440" y="1187.5986">PURPLE</text><line style="stroke:#A80036;stroke-width:1.5;" x1="421" x2="611" y1="1194.0156" y2="1194.0156"/><ellipse cx="431" cy="1205.0156" fill="#84BE84" rx="3" ry="3" style="stroke:#038048;stroke-width:1.0;"/><text fill="#000000" font-family="sans-serif" font-size="11" lengthAdjust="spacing" text-decoration="underline" textLength="124" x="440" y="1209.4346">parseSymbol(char): Color</text><ellipse cx="431" cy="1218.8516" fill="#84BE84" rx="3" ry="3" style="stroke:#038048;stroke-width:1.0;"/><text fill="#000000" font-family="sans-serif" font-size="11" lengthAdjust="spacing" text-decoration="underline" textLength="166" x="440" y="1223.2705">getAllowedSymbolsString(): String</text><ellipse cx="431" cy="1232.6875" fill="#84BE84" rx="3" ry="3" style="stroke:#038048;stroke-width:1.0;"/><text fill="#000000" font-family="sans-serif" font-size="11" lengthAdjust="spacing" textLength="86" x="440" y="1237.1064">getSymbol(): char</text><!--MD5=[8af4fdb787b135b7271f9ce04b92f747]
class utils.Console--><rect codeLine="70" fill="#FEFECE" filter="url(#flyjqxnq5mg0y)" height="75.6719" id="utils.Console" style="stroke:#A80036;stroke-width:1.5;" width="146" x="613" y="189"/><ellipse cx="658.25" cy="205" fill="#ADD1B2" rx="11" ry="11" style="stroke:#A80036;stroke-width:1.0;"/><path d="M660.25,201.5 Q660.4531,201 660.6875,200.75 Q660.9219,200.5 661.1875,200.5 Q661.6563,200.5 661.9531,200.7813 Q662.25,201.0625 662.25,201.7188 L662.25,203.2813 Q662.25,203.9375 661.9688,204.2188 Q661.6875,204.5 661.25,204.5 Q660.8594,204.5 660.6094,204.3281 Q660.3594,204.1563 660.25,203.7031 Q660.2031,203.3906 660.0313,203.2188 Q659.7188,202.8906 659.1563,202.7031 Q658.5938,202.5 658.0313,202.5 Q657.3281,202.5 656.7344,202.7813 Q656.1563,203.0625 655.7031,203.6875 Q655.25,204.3125 655.25,205.1719 L655.25,206.0938 Q655.25,207.125 656.0938,207.8125 Q656.9375,208.5 658.4375,208.5 Q659.3281,208.5 659.9531,208.2969 Q660.3125,208.1875 660.7188,207.8281 Q660.9844,207.625 661.125,207.5625 Q661.2656,207.5 661.4375,207.5 Q661.7656,207.5 662,207.7656 Q662.25,208.0156 662.25,208.375 Q662.25,208.7188 661.9063,209.125 Q661.4063,209.7188 660.6094,210.0469 Q659.5625,210.5 658.2813,210.5 Q656.7813,210.5 655.5781,209.9063 Q654.6094,209.4375 653.9219,208.4219 Q653.25,207.4063 653.25,206.2031 L653.25,205.1094 Q653.25,203.8594 653.8438,202.7656 Q654.4531,201.6719 655.5,201.0938 Q656.5625,200.5 657.75,200.5 Q658.4688,200.5 659.0938,200.75 Q659.7188,201 660.25,201.5 Z " fill="#000000"/><text fill="#000000" font-family="sans-serif" font-size="12" lengthAdjust="spacing" textLength="47" x="678.75" y="209.9102">Console</text><line style="stroke:#A80036;stroke-width:1.5;" x1="614" x2="758" y1="221" y2="221"/><line style="stroke:#A80036;stroke-width:1.5;" x1="614" x2="758" y1="229" y2="229"/><ellipse cx="624" cy="240" fill="#84BE84" rx="3" ry="3" style="stroke:#038048;stroke-width:1.0;"/><text fill="#000000" font-family="sans-serif" font-size="11" lengthAdjust="spacing" textLength="120" x="633" y="244.4189">readString(String): String</text><ellipse cx="624" cy="253.8359" fill="#84BE84" rx="3" ry="3" style="stroke:#038048;stroke-width:1.0;"/><text fill="#000000" font-family="sans-serif" font-size="11" lengthAdjust="spacing" textLength="69" x="633" y="258.2549">writeln(String)</text><!--MD5=[d3fa7c7ea1b89bf0d4934c0ae585aa29]
link mastermind.MasterMind to views.MainView--><path codeLine="5" d="M610.7147,110.4903 C610.7147,110.4903 585.55,123.99 573,128 C519.74,145 371.05,118.18 322,145 C305.73,153.9 292.64,169.31 282.9,184.32 " fill="none" id="mastermind.MasterMind-views.MainView" style="stroke:#A80036;stroke-width:1.0;"/><polygon fill="#A80036" points="276.1,195.61,284.1711,189.9657,278.6805,191.3274,277.3189,185.8369,276.1,195.61" style="stroke:#A80036;stroke-width:1.0;"/><line style="stroke:#A80036;stroke-width:1.0;" x1="278.6805" x2="282.81" y1="191.3274" y2="184.47"/><polygon fill="#A80036" points="620.94,104.21,613.7339,103.9417,610.7147,110.4903,617.9208,110.7586,620.94,104.21" style="stroke:#A80036;stroke-width:1.0;"/><!--MD5=[edc3d0228750d410110ee65407e59f37]
link models.Game to models.SecretCombination--><path codeLine="17" d="M92.0235,490.4231 C92.0235,490.4231 59.84,534.63 51,559 C37.36,596.6 39.49,610.69 51,649 C78.81,741.53 147.78,831.69 193.73,884.52 " fill="none" id="models.Game-models.SecretCombination" style="stroke:#A80036;stroke-width:1.0;"/><polygon fill="#A80036" points="202.59,894.57,199.6398,885.1734,199.2839,890.819,193.6382,890.4632,202.59,894.57" style="stroke:#A80036;stroke-width:1.0;"/><line style="stroke:#A80036;stroke-width:1.0;" x1="199.2839" x2="193.995" y1="890.819" y2="884.82"/><polygon fill="#A80036" points="99.76,481.25,92.834,483.2577,92.0235,490.4231,98.9494,488.4154,99.76,481.25" style="stroke:#A80036;stroke-width:1.0;"/><!--MD5=[6582ae606042274016c5ca6600923c57]
link models.Game to models.Attempt--><path codeLine="18" d="M170,493.21 C170,493.21 170,529.53 170,545.75 " fill="none" id="models.Game-models.Attempt" style="stroke:#A80036;stroke-width:1.0;"/><polygon fill="#A80036" points="170,558.92,174,549.92,170,553.92,166,549.92,170,558.92" style="stroke:#A80036;stroke-width:1.0;"/><line style="stroke:#A80036;stroke-width:1.0;" x1="170" x2="170" y1="553.92" y2="545.92"/><polygon fill="#A80036" points="170,481.21,166,487.21,170,493.21,174,487.21,170,481.21" style="stroke:#A80036;stroke-width:1.0;"/><text fill="#000000" font-family="sans-serif" font-size="13" lengthAdjust="spacing" textLength="29" x="138.6891" y="548.0227">0..10</text><!--MD5=[e6aa0034d633bf90bf484dd85229e96d]
link models.Game to models.Combination--><path codeLine="19" d="M239.13,481.2 C258.84,503.77 277.94,530.62 289,559 C309.54,611.73 309.03,677.49 305.34,721.67 " fill="none" id="models.Game-to-models.Combination" style="stroke:#A80036;stroke-width:1.0;stroke-dasharray:7.0,7.0;"/><polygon fill="#A80036" points="304.9,726.68,309.6828,718.0704,305.3436,721.6997,301.7143,717.3606,304.9,726.68" style="stroke:#A80036;stroke-width:1.0;"/><text fill="#000000" font-family="sans-serif" font-size="13" lengthAdjust="spacing" textLength="21" x="307" y="609.4951">use</text><!--MD5=[4225d122d22a600eaad409f2ced2888e]
link models.Combination to types.Color--><path codeLine="26" d="M330.0082,827.8148 C330.0082,827.8148 419.82,986.51 461.1,1059.48 " fill="none" id="models.Combination-types.Color" style="stroke:#A80036;stroke-width:1.0;"/><polygon fill="#A80036" points="467.61,1070.97,466.6605,1061.167,465.1483,1066.618,459.6973,1065.1058,467.61,1070.97" style="stroke:#A80036;stroke-width:1.0;"/><line style="stroke:#A80036;stroke-width:1.0;" x1="465.1483" x2="461.2" y1="1066.618" y2="1059.66"/><polygon fill="#FFFFFF" points="324.1,817.37,323.5725,824.5618,330.0082,827.8148,330.5357,820.623,324.1,817.37" style="stroke:#A80036;stroke-width:1.0;"/><text fill="#000000" font-family="sans-serif" font-size="13" lengthAdjust="spacing" textLength="7" x="455.9885" y="1060.0829">4</text><!--MD5=[e22aee69255bde2225bd5323591dfee1]
link models.SecretCombination to models.Combination--><path codeLine="32" d="M239.08,894.69 C240.47,879.51 243.32,862.03 249,847 C252.24,838.43 256.64,829.88 261.51,821.79 " fill="none" id="models.SecretCombination-to-models.Combination" style="stroke:#A80036;stroke-width:1.0;stroke-dasharray:7.0,7.0;"/><polygon fill="#A80036" points="264.25,817.35,256.1182,822.9064,261.6231,821.6044,262.9252,827.1093,264.25,817.35" style="stroke:#A80036;stroke-width:1.0;"/><text fill="#000000" font-family="sans-serif" font-size="13" lengthAdjust="spacing" textLength="21" x="250" y="861.4951">use</text><!--MD5=[15f43ae688a3fcde37d838d03858a71c]
reverse link models.Combination to models.SecretCombination--><path codeLine="35" d="M285.48,836.68 C282.75,846.3 279.59,856.01 276,865 C271.98,875.06 266.7,885.46 261.36,894.98 " fill="none" id="models.Combination-backto-models.SecretCombination" style="stroke:#A80036;stroke-width:1.0;"/><polygon fill="none" points="278.71,834.9,290.49,817.29,292.26,838.4,278.71,834.9" style="stroke:#A80036;stroke-width:1.0;"/><!--MD5=[1338139518acc2e18bf59fda250ebdaa]
link models.SecretCombination to models.MatchResult--><path codeLine="33" d="M222.94,971.24 C208.61,1006.67 186.86,1060.42 170.48,1100.91 " fill="none" id="models.SecretCombination-to-models.MatchResult" style="stroke:#A80036;stroke-width:1.0;stroke-dasharray:7.0,7.0;"/><polygon fill="#A80036" points="168.51,1105.78,175.5919,1098.9356,170.3842,1101.1446,168.1752,1095.9368,168.51,1105.78" style="stroke:#A80036;stroke-width:1.0;"/><text fill="#000000" font-family="sans-serif" font-size="13" lengthAdjust="spacing" textLength="33" x="209" y="1015.4951">return</text><!--MD5=[2d4b9d9f472e4584199fbaf64de2cf16]
link models.SecretCombination to types.Color--><path codeLine="34" d="M299.79,971.04 C325.35,987.22 354.83,1007.04 380,1027 C395.66,1039.42 411.62,1053.31 426.84,1067.27 " fill="none" id="models.SecretCombination-to-types.Color" style="stroke:#A80036;stroke-width:1.0;stroke-dasharray:7.0,7.0;"/><polygon fill="#A80036" points="430.69,1070.82,426.768,1061.7857,427.0078,1067.4375,421.356,1067.6773,430.69,1070.82" style="stroke:#A80036;stroke-width:1.0;"/><text fill="#000000" font-family="sans-serif" font-size="13" lengthAdjust="spacing" textLength="21" x="370" y="1015.4951">use</text><!--MD5=[d3ea8c62ac1a6e79e7ceabdf2cc7e885]
link models.Attempt to models.Combination--><path codeLine="42" d="M211.6019,658.5187 C211.6019,658.5187 242.29,698.03 256.47,716.27 " fill="none" id="models.Attempt-models.Combination" style="stroke:#A80036;stroke-width:1.0;"/><polygon fill="#A80036" points="264.61,726.75,262.2456,717.1892,261.5418,722.8021,255.9289,722.0982,264.61,726.75" style="stroke:#A80036;stroke-width:1.0;"/><line style="stroke:#A80036;stroke-width:1.0;" x1="261.5418" x2="256.63" y1="722.8021" y2="716.48"/><polygon fill="#A80036" points="204.23,649.05,204.7597,656.2416,211.6019,658.5187,211.0722,651.3271,204.23,649.05" style="stroke:#A80036;stroke-width:1.0;"/><!--MD5=[2d1ecd6ab193011457267f3e643ac455]
link models.Attempt to models.MatchResult--><path codeLine="43" d="M157.3725,660.8236 C157.3725,660.8236 120.8,861.1 127,971 C129.29,1011.6 134.38,1056.96 138.98,1092.67 " fill="none" id="models.Attempt-models.MatchResult" style="stroke:#A80036;stroke-width:1.0;"/><polygon fill="#A80036" points="140.71,1105.85,143.5088,1096.4072,140.0614,1100.8922,135.5764,1097.4449,140.71,1105.85" style="stroke:#A80036;stroke-width:1.0;"/><line style="stroke:#A80036;stroke-width:1.0;" x1="140.0614" x2="139.01" y1="1100.8922" y2="1092.96"/><polygon fill="#FFFFFF" points="159.84,649.08,154.6917,654.1293,157.3725,660.8236,162.5208,655.7743,159.84,649.08" style="stroke:#A80036;stroke-width:1.0;"/><!--MD5=[2842eeb7cb413ce4a0cae5dd91421a68]
link models.Attempt to models.SecretCombination--><path codeLine="44" d="M171.74,649.01 C174.21,692.28 180.1,759.96 194,817 C200.07,841.91 210.11,868.72 219.07,890.18 " fill="none" id="models.Attempt-to-models.SecretCombination" style="stroke:#A80036;stroke-width:1.0;stroke-dasharray:7.0,7.0;"/><polygon fill="#A80036" points="221.08,894.95,221.2631,885.1028,219.1346,890.344,213.8935,888.2155,221.08,894.95" style="stroke:#A80036;stroke-width:1.0;"/><text fill="#000000" font-family="sans-serif" font-size="13" lengthAdjust="spacing" textLength="21" x="195" y="777.4951">use</text><!--MD5=[e593e2ea9cbddfb59cbab6d2c711a0d8]
link views.ConsoleView to utils.Console--><path codeLine="79" d="M403.9588,87.528 C403.9588,87.528 519,118.32 573,145 C592.99,154.87 613.26,168.17 631.01,181.12 " fill="none" id="views.ConsoleView-utils.Console" style="stroke:#A80036;stroke-width:1.0;"/><polygon fill="#A80036" points="641.43,188.9,636.6092,180.3116,637.4228,185.9097,631.8247,186.7232,641.43,188.9" style="stroke:#A80036;stroke-width:1.0;"/><line style="stroke:#A80036;stroke-width:1.0;" x1="637.4228" x2="631.01" y1="185.9097" y2="181.125"/><polygon fill="#A80036" points="392.28,84.77,397.2,90.0419,403.9588,87.528,399.0387,82.2561,392.28,84.77" style="stroke:#A80036;stroke-width:1.0;"/><!--MD5=[64bae147e02fa419dcfd7c1e5dd372c3]
reverse link views.ConsoleView to views.MainView--><path d="M318.95,115.01 C305.87,140.51 289.34,172.73 277.46,195.88 " fill="none" id="views.ConsoleView-backto-views.MainView" style="stroke:#A80036;stroke-width:1.0;"/><polygon fill="none" points="312.79,111.68,328.15,97.09,325.25,118.08,312.79,111.68" style="stroke:#A80036;stroke-width:1.0;"/><!--MD5=[8f58e3909a38741bef495b7818692869]
link views.MainView to views.GameView--><path codeLine="84" d="M219.96,227 C210.07,227 200.18,227 190.3,227 " fill="none" id="views.MainView-to-views.GameView" style="stroke:#A80036;stroke-width:1.0;"/><polygon fill="#A80036" points="185.12,227,194.1314,230.9743,190.12,226.9857,194.1085,222.9743,185.12,227" style="stroke:#A80036;stroke-width:1.0;"/><text fill="#000000" font-family="sans-serif" font-size="13" lengthAdjust="spacing" textLength="20" x="193.0119" y="223.4064">1..*</text><!--MD5=[940a966022d3f1c7ccc94d2e2ef5c009]
link views.MainView to models.Game--><path codeLine="85" d="M247.01,258.38 C235.46,281.8 219.03,315.11 204.3,344.96 " fill="none" id="views.MainView-to-models.Game" style="stroke:#A80036;stroke-width:1.0;"/><polygon fill="#A80036" points="201.96,349.72,209.5305,343.4203,204.1732,345.2365,202.3569,339.8791,201.96,349.72" style="stroke:#A80036;stroke-width:1.0;"/><text fill="#000000" font-family="sans-serif" font-size="13" lengthAdjust="spacing" textLength="20" x="184.3619" y="339.1638">1..*</text><!--MD5=[0336330f3d60764414539568bb772131]
reverse link views.ConsoleView to views.GameView--><path d="M269.38,103.45 C246.91,114.64 222.77,128.68 203,145 C185.59,159.38 169.81,179.22 158.28,195.67 " fill="none" id="views.ConsoleView-backto-views.GameView" style="stroke:#A80036;stroke-width:1.0;"/><polygon fill="none" points="266.66,96.99,287.73,94.74,272.67,109.64,266.66,96.99" style="stroke:#A80036;stroke-width:1.0;"/><!--MD5=[df0ea06be5256b6352c8fe1ef17e44c0]
link views.GameView to views.ProposedCombinationView--><path codeLine="90" d="M165.3273,185.9541 C165.3273,185.9541 189.15,156.2 203,145 C209.72,139.56 212.07,138.44 220.5,136.5 C256.88,128.13 268.12,128.13 304.5,136.5 C340.96,144.88 376.56,167.22 403.18,187.61 " fill="none" id="views.GameView-views.ProposedCombinationView" style="stroke:#A80036;stroke-width:1.0;"/><polygon fill="#A80036" points="413.65,195.88,409.067,187.1624,409.7264,192.7807,404.1081,193.4401,413.65,195.88" style="stroke:#A80036;stroke-width:1.0;"/><line style="stroke:#A80036;stroke-width:1.0;" x1="409.7264" x2="403.45" y1="192.7807" y2="187.82"/><polygon fill="#A80036" points="158.34,195.71,165.0856,193.1612,165.3273,185.9541,158.5817,188.5029,158.34,195.71" style="stroke:#A80036;stroke-width:1.0;"/><!--MD5=[752a683eed86f349808342f1f810b866]
link views.GameView to models.Game--><path codeLine="91" d="M146.0142,270.2181 C146.0142,270.2181 153.36,314.38 157.07,336.74 " fill="none" id="views.GameView-models.Game" style="stroke:#A80036;stroke-width:1.0;"/><polygon fill="#A80036" points="159.23,349.72,161.7029,340.1866,158.4116,344.7874,153.8108,341.4961,159.23,349.72" style="stroke:#A80036;stroke-width:1.0;"/><line style="stroke:#A80036;stroke-width:1.0;" x1="158.4116" x2="157.1" y1="344.7874" y2="336.895"/><polygon fill="#A80036" points="144.05,258.38,141.0861,264.9538,146.0142,270.2181,148.9782,263.6443,144.05,258.38" style="stroke:#A80036;stroke-width:1.0;"/><!--MD5=[695143cd320ae26681752a32ce686fc4]
reverse link views.ConsoleView to views.ProposedCombinationView--><path d="M368.08,113.52 C386.36,139.24 409.83,172.28 426.6,195.88 " fill="none" id="views.ConsoleView-backto-views.ProposedCombinationView" style="stroke:#A80036;stroke-width:1.0;"/><polygon fill="none" points="362.28,117.44,356.4,97.09,373.69,109.33,362.28,117.44" style="stroke:#A80036;stroke-width:1.0;"/><!--MD5=[c755cf72bfc60d7c76530484b92aac1f]
link views.ProposedCombinationView to models.Combination--><path codeLine="96" d="M440.51,258.24 C423.24,327.6 378.86,503.34 337,649 C330.08,673.08 321.87,699.67 314.85,721.85 " fill="none" id="views.ProposedCombinationView-to-models.Combination" style="stroke:#A80036;stroke-width:1.0;stroke-dasharray:7.0,7.0;"/><polygon fill="#A80036" points="313.28,726.81,319.8151,719.4416,314.7925,722.0442,312.1899,717.0217,313.28,726.81" style="stroke:#A80036;stroke-width:1.0;"/><text fill="#000000" font-family="sans-serif" font-size="13" lengthAdjust="spacing" textLength="83" x="376" y="525.4951">use and return</text><!--MD5=[1547d93e28245d71913d112ab84a954b]
link views.ProposedCombinationView to types.Color--><path codeLine="97" d="M469.04,258.1 C491.84,293.72 525,355.65 525,414.5 C525,414.5 525,414.5 525,934 C525,977.29 523.28,1025.28 521.34,1065.57 " fill="none" id="views.ProposedCombinationView-to-types.Color" style="stroke:#A80036;stroke-width:1.0;stroke-dasharray:7.0,7.0;"/><polygon fill="#A80036" points="521.08,1070.95,525.5119,1062.1547,521.3226,1065.9559,517.5213,1061.7665,521.08,1070.95" style="stroke:#A80036;stroke-width:1.0;"/><text fill="#000000" font-family="sans-serif" font-size="13" lengthAdjust="spacing" textLength="21" x="526" y="693.4951">use</text><!--MD5=[5c3a79032787b719d1f27943d2388db7]
@startuml
namespace mastermind {
    class MasterMind {
        +play()
    }
    MasterMind *- -> views.MainView
}

namespace models {
    class Game {
        +hasWon(): boolean
        +isEnded(): boolean
        +totalAttempts(): int
        +getSecretCombinationAsString(): String
        +getAttemptAsString(int): String
        +recordAttempt(Combination)
    }
    Game *- -> SecretCombination
    Game *- -> "0..10" Attempt
    Game ..> Combination : use

    class Combination {
        +addColor(Color)
        +isComplete(): boolean
        +toString(): String
    }
    Combination o- -> "4" types.Color

    class SecretCombination {
        +match(Combination): MatchResult
        +toString(): String
    }
    SecretCombination ..> Combination : use
    SecretCombination ..> MatchResult : return
    SecretCombination ..> types.Color : use
    SecretCombination -up-|> Combination

    class Attempt {
        +validateMatches(SecretCombination)
        +hasFourBlack(): boolean
        +toString():String
    }
    Attempt *- -> Combination
    Attempt o- -> MatchResult
    Attempt ..> SecretCombination : use

    class MatchResult {
        +blacks: int
        +whites: int
        +hasFourBlack(): boolean
        +toString(): String
    }
}

namespace types {
    enum Color {
        +RED
        +BLUE
        +YELLOW
        +GREEN
        +ORANGE
        +PURPLE

        +{static}parseSymbol(char): Color
        +{static}getAllowedSymbolsString(): String
        +getSymbol(): char
    }
}

namespace utils {
    class Console {
        +readString(String): String
        +writeln(String)
    }
}

namespace views {
    abstract class ConsoleView {
    }
    ConsoleView *- -> utils.Console

    class MainView extends ConsoleView {
        +show()
    }
    MainView -right-> "1..*" GameView
    MainView -down-> "1..*" models.Game

    class GameView extends ConsoleView {
        +show()
    }
    GameView *-right-> ProposedCombinationView
    GameView *- -> models.Game

    class ProposedCombinationView extends ConsoleView {
        +getProposedCombination(): Combination
    }
    ProposedCombinationView ..> models.Combination : use and return
    ProposedCombinationView ..> types.Color : use
}
@enduml

PlantUML version 1.2021.4(Sun Apr 04 03:49:39 CDT 2021)
(GPL source distribution)
Java Runtime: OpenJDK Runtime Environment
JVM: Dynamic Code Evolution 64-Bit Server VM
Default Encoding: Cp1252
Language: en
Country: US
--></g></svg>