<?xml version="1.0" encoding="UTF-8" standalone="no"?><svg xmlns="http://www.w3.org/2000/svg" xmlns:xlink="http://www.w3.org/1999/xlink" contentScriptType="application/ecmascript" contentStyleType="text/css" height="1224px" preserveAspectRatio="none" style="width:883px;height:1224px;" version="1.1" viewBox="0 0 883 1224" width="883px" zoomAndPan="magnify"><defs><filter height="300%" id="f14aizu3dawipf" width="300%" x="-1" y="-1"><feGaussianBlur result="blurOut" stdDeviation="2.0"/><feColorMatrix in="blurOut" result="blurOut2" type="matrix" values="0 0 0 0 0 0 0 0 0 0 0 0 0 0 0 0 0 0 .4 0"/><feOffset dx="4.0" dy="4.0" in="blurOut2" result="blurOut3"/><feBlend in="SourceGraphic" in2="blurOut3" mode="normal"/></filter></defs><g><!--MD5=[b56d8ef9af079015670ad96965866810]
cluster mastermind--><polygon fill="#FFFFFF" filter="url(#f14aizu3dawipf)" points="738,6,826,6,833,29.6094,866,29.6094,866,120,738,120,738,6" style="stroke:#000000;stroke-width:1.5;"/><line style="stroke:#000000;stroke-width:1.5;" x1="738" x2="833" y1="29.6094" y2="29.6094"/><text fill="#000000" font-family="sans-serif" font-size="14" font-weight="bold" lengthAdjust="spacing" textLength="82" x="742" y="22.5332">mastermind</text><!--MD5=[e2a75efa8a0f57c2afae8bf75386f79c]
cluster views--><polygon fill="#FFFFFF" filter="url(#f14aizu3dawipf)" points="218,13,265,13,272,36.6094,714,36.6094,714,274,218,274,218,13" style="stroke:#000000;stroke-width:1.5;"/><line style="stroke:#000000;stroke-width:1.5;" x1="218" x2="272" y1="36.6094" y2="36.6094"/><text fill="#000000" font-family="sans-serif" font-size="14" font-weight="bold" lengthAdjust="spacing" textLength="41" x="222" y="29.5332">views</text><!--MD5=[a60570e4b426f702ccbb0d459e3b9417]
cluster models--><polygon fill="#FFFFFF" filter="url(#f14aizu3dawipf)" points="108,314,165,314,172,337.6094,542,337.6094,542,1217,108,1217,108,314" style="stroke:#000000;stroke-width:1.5;"/><line style="stroke:#000000;stroke-width:1.5;" x1="108" x2="172" y1="337.6094" y2="337.6094"/><text fill="#000000" font-family="sans-serif" font-size="14" font-weight="bold" lengthAdjust="spacing" textLength="51" x="112" y="330.5332">models</text><!--MD5=[c52f45833d539af9e29a9d34b8b7302b]
cluster utils--><polygon fill="#FFFFFF" filter="url(#f14aizu3dawipf)" points="16,153,52,153,59,176.6094,194,176.6094,194,281,16,281,16,153" style="stroke:#000000;stroke-width:1.5;"/><line style="stroke:#000000;stroke-width:1.5;" x1="16" x2="59" y1="176.6094" y2="176.6094"/><text fill="#000000" font-family="sans-serif" font-size="14" font-weight="bold" lengthAdjust="spacing" textLength="30" x="20" y="169.5332">utils</text><!--MD5=[2644ebcd5d54ed4e26c0fd29d7c7c41f]
class mastermind.MasterMind--><rect codeLine="2" fill="#FEFECE" filter="url(#f14aizu3dawipf)" height="61.8359" id="mastermind.MasterMind" style="stroke:#A80036;stroke-width:1.5;" width="95" x="754.5" y="42"/><ellipse cx="769.5" cy="58" fill="#ADD1B2" rx="11" ry="11" style="stroke:#A80036;stroke-width:1.0;"/><path d="M771.5,54.5 Q771.7031,54 771.9375,53.75 Q772.1719,53.5 772.4375,53.5 Q772.9063,53.5 773.2031,53.7813 Q773.5,54.0625 773.5,54.7188 L773.5,56.2813 Q773.5,56.9375 773.2188,57.2188 Q772.9375,57.5 772.5,57.5 Q772.1094,57.5 771.8594,57.3281 Q771.6094,57.1563 771.5,56.7031 Q771.4531,56.3906 771.2813,56.2188 Q770.9688,55.8906 770.4063,55.7031 Q769.8438,55.5 769.2813,55.5 Q768.5781,55.5 767.9844,55.7813 Q767.4063,56.0625 766.9531,56.6875 Q766.5,57.3125 766.5,58.1719 L766.5,59.0938 Q766.5,60.125 767.3438,60.8125 Q768.1875,61.5 769.6875,61.5 Q770.5781,61.5 771.2031,61.2969 Q771.5625,61.1875 771.9688,60.8281 Q772.2344,60.625 772.375,60.5625 Q772.5156,60.5 772.6875,60.5 Q773.0156,60.5 773.25,60.7656 Q773.5,61.0156 773.5,61.375 Q773.5,61.7188 773.1563,62.125 Q772.6563,62.7188 771.8594,63.0469 Q770.8125,63.5 769.5313,63.5 Q768.0313,63.5 766.8281,62.9063 Q765.8594,62.4375 765.1719,61.4219 Q764.5,60.4063 764.5,59.2031 L764.5,58.1094 Q764.5,56.8594 765.0938,55.7656 Q765.7031,54.6719 766.75,54.0938 Q767.8125,53.5 769,53.5 Q769.7188,53.5 770.3438,53.75 Q770.9688,54 771.5,54.5 Z " fill="#000000"/><text fill="#000000" font-family="sans-serif" font-size="12" lengthAdjust="spacing" textLength="63" x="783.5" y="62.9102">MasterMind</text><line style="stroke:#A80036;stroke-width:1.5;" x1="755.5" x2="848.5" y1="74" y2="74"/><line style="stroke:#A80036;stroke-width:1.5;" x1="755.5" x2="848.5" y1="82" y2="82"/><ellipse cx="765.5" cy="93" fill="#84BE84" rx="3" ry="3" style="stroke:#038048;stroke-width:1.0;"/><text fill="#000000" font-family="sans-serif" font-size="11" lengthAdjust="spacing" textLength="28" x="774.5" y="97.4189">play()</text><!--MD5=[c08510981353a076a393ca6699f69b3d]
class views.MainView--><rect codeLine="78" fill="#FEFECE" filter="url(#f14aizu3dawipf)" height="61.8359" id="views.MainView" style="stroke:#A80036;stroke-width:1.5;" width="84" x="361" y="196"/><ellipse cx="376" cy="212" fill="#ADD1B2" rx="11" ry="11" style="stroke:#A80036;stroke-width:1.0;"/><path d="M378,208.5 Q378.2031,208 378.4375,207.75 Q378.6719,207.5 378.9375,207.5 Q379.4063,207.5 379.7031,207.7813 Q380,208.0625 380,208.7188 L380,210.2813 Q380,210.9375 379.7188,211.2188 Q379.4375,211.5 379,211.5 Q378.6094,211.5 378.3594,211.3281 Q378.1094,211.1563 378,210.7031 Q377.9531,210.3906 377.7813,210.2188 Q377.4688,209.8906 376.9063,209.7031 Q376.3438,209.5 375.7813,209.5 Q375.0781,209.5 374.4844,209.7813 Q373.9063,210.0625 373.4531,210.6875 Q373,211.3125 373,212.1719 L373,213.0938 Q373,214.125 373.8438,214.8125 Q374.6875,215.5 376.1875,215.5 Q377.0781,215.5 377.7031,215.2969 Q378.0625,215.1875 378.4688,214.8281 Q378.7344,214.625 378.875,214.5625 Q379.0156,214.5 379.1875,214.5 Q379.5156,214.5 379.75,214.7656 Q380,215.0156 380,215.375 Q380,215.7188 379.6563,216.125 Q379.1563,216.7188 378.3594,217.0469 Q377.3125,217.5 376.0313,217.5 Q374.5313,217.5 373.3281,216.9063 Q372.3594,216.4375 371.6719,215.4219 Q371,214.4063 371,213.2031 L371,212.1094 Q371,210.8594 371.5938,209.7656 Q372.2031,208.6719 373.25,208.0938 Q374.3125,207.5 375.5,207.5 Q376.2188,207.5 376.8438,207.75 Q377.4688,208 378,208.5 Z " fill="#000000"/><text fill="#000000" font-family="sans-serif" font-size="12" lengthAdjust="spacing" textLength="52" x="390" y="216.9102">MainView</text><line style="stroke:#A80036;stroke-width:1.5;" x1="362" x2="444" y1="228" y2="228"/><line style="stroke:#A80036;stroke-width:1.5;" x1="362" x2="444" y1="236" y2="236"/><ellipse cx="372" cy="247" fill="#84BE84" rx="3" ry="3" style="stroke:#038048;stroke-width:1.0;"/><text fill="#000000" font-family="sans-serif" font-size="11" lengthAdjust="spacing" textLength="36" x="381" y="251.4189">show()</text><!--MD5=[4867c87a481be1ae980c26fbb6d0e63a]
class views.ConsoleView--><rect codeLine="74" fill="#FEFECE" filter="url(#f14aizu3dawipf)" height="48" id="views.ConsoleView" style="stroke:#A80036;stroke-width:1.5;" width="104" x="295" y="49"/><ellipse cx="310" cy="65" fill="#A9DCDF" rx="11" ry="11" style="stroke:#A80036;stroke-width:1.0;"/><path d="M311.75,66.5 L308.4531,66.5 L308.0156,67.5 L308.0156,67.5 L308.4844,67.5 L309,68.125 L309,68.5 L309,68.875 L308.4844,69.5 L308.0156,69.5 L306.125,69.5 L305.5156,69.5 L305,68.875 L305,68.5 L305,68.125 L305.5156,67.5 L306.125,67.5 L308.4375,61.5 L307.5625,61.5 L306.5156,61.5 L306,60.875 L306,60.5 L306,60.125 L306.5156,59.5 L307.5625,59.5 L311.2344,59.5 L313.9219,67.5 L314.4844,67.5 L314.4844,67.5 L315,68.125 L315,68.5 L315,68.875 L314.4844,69.5 L313.9219,69.5 L312.0313,69.5 L311.5156,69.5 L311,68.875 L311,68.5 L311,68.125 L311.5156,67.5 L312.0313,67.5 L312.0313,67.5 L311.75,66.5 Z M311.2031,64.5 L310,60.9219 L308.9688,64.5 L311.2031,64.5 Z " fill="#000000"/><text fill="#000000" font-family="sans-serif" font-size="12" font-style="italic" lengthAdjust="spacing" textLength="72" x="324" y="69.9102">ConsoleView</text><line style="stroke:#A80036;stroke-width:1.5;" x1="296" x2="398" y1="81" y2="81"/><line style="stroke:#A80036;stroke-width:1.5;" x1="296" x2="398" y1="89" y2="89"/><!--MD5=[0e9cede7ddd4e4e36ab8b254b2681755]
class views.GameView--><rect codeLine="84" fill="#FEFECE" filter="url(#f14aizu3dawipf)" height="61.8359" id="views.GameView" style="stroke:#A80036;stroke-width:1.5;" width="92" x="234" y="196"/><ellipse cx="249" cy="212" fill="#ADD1B2" rx="11" ry="11" style="stroke:#A80036;stroke-width:1.0;"/><path d="M251,208.5 Q251.2031,208 251.4375,207.75 Q251.6719,207.5 251.9375,207.5 Q252.4063,207.5 252.7031,207.7813 Q253,208.0625 253,208.7188 L253,210.2813 Q253,210.9375 252.7188,211.2188 Q252.4375,211.5 252,211.5 Q251.6094,211.5 251.3594,211.3281 Q251.1094,211.1563 251,210.7031 Q250.9531,210.3906 250.7813,210.2188 Q250.4688,209.8906 249.9063,209.7031 Q249.3438,209.5 248.7813,209.5 Q248.0781,209.5 247.4844,209.7813 Q246.9063,210.0625 246.4531,210.6875 Q246,211.3125 246,212.1719 L246,213.0938 Q246,214.125 246.8438,214.8125 Q247.6875,215.5 249.1875,215.5 Q250.0781,215.5 250.7031,215.2969 Q251.0625,215.1875 251.4688,214.8281 Q251.7344,214.625 251.875,214.5625 Q252.0156,214.5 252.1875,214.5 Q252.5156,214.5 252.75,214.7656 Q253,215.0156 253,215.375 Q253,215.7188 252.6563,216.125 Q252.1563,216.7188 251.3594,217.0469 Q250.3125,217.5 249.0313,217.5 Q247.5313,217.5 246.3281,216.9063 Q245.3594,216.4375 244.6719,215.4219 Q244,214.4063 244,213.2031 L244,212.1094 Q244,210.8594 244.5938,209.7656 Q245.2031,208.6719 246.25,208.0938 Q247.3125,207.5 248.5,207.5 Q249.2188,207.5 249.8438,207.75 Q250.4688,208 251,208.5 Z " fill="#000000"/><text fill="#000000" font-family="sans-serif" font-size="12" lengthAdjust="spacing" textLength="60" x="263" y="216.9102">GameView</text><line style="stroke:#A80036;stroke-width:1.5;" x1="235" x2="325" y1="228" y2="228"/><line style="stroke:#A80036;stroke-width:1.5;" x1="235" x2="325" y1="236" y2="236"/><ellipse cx="245" cy="247" fill="#84BE84" rx="3" ry="3" style="stroke:#038048;stroke-width:1.0;"/><text fill="#000000" font-family="sans-serif" font-size="11" lengthAdjust="spacing" textLength="36" x="254" y="251.4189">show()</text><!--MD5=[3a2f13ab1c339ef90be8a72deeded993]
class views.ProposedCombinationView--><rect codeLine="90" fill="#FEFECE" filter="url(#f14aizu3dawipf)" height="61.8359" id="views.ProposedCombinationView" style="stroke:#A80036;stroke-width:1.5;" width="217" x="480.5" y="196"/><ellipse cx="510.8" cy="212" fill="#ADD1B2" rx="11" ry="11" style="stroke:#A80036;stroke-width:1.0;"/><path d="M512.8,208.5 Q513.0031,208 513.2375,207.75 Q513.4719,207.5 513.7375,207.5 Q514.2063,207.5 514.5031,207.7813 Q514.8,208.0625 514.8,208.7188 L514.8,210.2813 Q514.8,210.9375 514.5188,211.2188 Q514.2375,211.5 513.8,211.5 Q513.4094,211.5 513.1594,211.3281 Q512.9094,211.1563 512.8,210.7031 Q512.7531,210.3906 512.5813,210.2188 Q512.2688,209.8906 511.7063,209.7031 Q511.1438,209.5 510.5813,209.5 Q509.8781,209.5 509.2844,209.7813 Q508.7063,210.0625 508.2531,210.6875 Q507.8,211.3125 507.8,212.1719 L507.8,213.0938 Q507.8,214.125 508.6438,214.8125 Q509.4875,215.5 510.9875,215.5 Q511.8781,215.5 512.5031,215.2969 Q512.8625,215.1875 513.2688,214.8281 Q513.5344,214.625 513.675,214.5625 Q513.8156,214.5 513.9875,214.5 Q514.3156,214.5 514.55,214.7656 Q514.8,215.0156 514.8,215.375 Q514.8,215.7188 514.4563,216.125 Q513.9563,216.7188 513.1594,217.0469 Q512.1125,217.5 510.8313,217.5 Q509.3313,217.5 508.1281,216.9063 Q507.1594,216.4375 506.4719,215.4219 Q505.8,214.4063 505.8,213.2031 L505.8,212.1094 Q505.8,210.8594 506.3938,209.7656 Q507.0031,208.6719 508.05,208.0938 Q509.1125,207.5 510.3,207.5 Q511.0188,207.5 511.6438,207.75 Q512.2688,208 512.8,208.5 Z " fill="#000000"/><text fill="#000000" font-family="sans-serif" font-size="12" lengthAdjust="spacing" textLength="151" x="528.2" y="216.9102">ProposedCombinationView</text><line style="stroke:#A80036;stroke-width:1.5;" x1="481.5" x2="696.5" y1="228" y2="228"/><line style="stroke:#A80036;stroke-width:1.5;" x1="481.5" x2="696.5" y1="236" y2="236"/><ellipse cx="491.5" cy="247" fill="#84BE84" rx="3" ry="3" style="stroke:#038048;stroke-width:1.0;"/><text fill="#000000" font-family="sans-serif" font-size="11" lengthAdjust="spacing" textLength="191" x="500.5" y="251.4189">getProposedCombination(): Combination</text><!--MD5=[1ea5cf3e691bb3552ec8d5f9a56af156]
class models.Game--><rect codeLine="9" fill="#FEFECE" filter="url(#f14aizu3dawipf)" height="131.0156" id="models.Game" style="stroke:#A80036;stroke-width:1.5;" width="215" x="218.5" y="350"/><ellipse cx="304.75" cy="366" fill="#ADD1B2" rx="11" ry="11" style="stroke:#A80036;stroke-width:1.0;"/><path d="M306.75,362.5 Q306.9531,362 307.1875,361.75 Q307.4219,361.5 307.6875,361.5 Q308.1563,361.5 308.4531,361.7813 Q308.75,362.0625 308.75,362.7188 L308.75,364.2813 Q308.75,364.9375 308.4688,365.2188 Q308.1875,365.5 307.75,365.5 Q307.3594,365.5 307.1094,365.3281 Q306.8594,365.1563 306.75,364.7031 Q306.7031,364.3906 306.5313,364.2188 Q306.2188,363.8906 305.6563,363.7031 Q305.0938,363.5 304.5313,363.5 Q303.8281,363.5 303.2344,363.7813 Q302.6563,364.0625 302.2031,364.6875 Q301.75,365.3125 301.75,366.1719 L301.75,367.0938 Q301.75,368.125 302.5938,368.8125 Q303.4375,369.5 304.9375,369.5 Q305.8281,369.5 306.4531,369.2969 Q306.8125,369.1875 307.2188,368.8281 Q307.4844,368.625 307.625,368.5625 Q307.7656,368.5 307.9375,368.5 Q308.2656,368.5 308.5,368.7656 Q308.75,369.0156 308.75,369.375 Q308.75,369.7188 308.4063,370.125 Q307.9063,370.7188 307.1094,371.0469 Q306.0625,371.5 304.7813,371.5 Q303.2813,371.5 302.0781,370.9063 Q301.1094,370.4375 300.4219,369.4219 Q299.75,368.4063 299.75,367.2031 L299.75,366.1094 Q299.75,364.8594 300.3438,363.7656 Q300.9531,362.6719 302,362.0938 Q303.0625,361.5 304.25,361.5 Q304.9688,361.5 305.5938,361.75 Q306.2188,362 306.75,362.5 Z " fill="#000000"/><text fill="#000000" font-family="sans-serif" font-size="12" lengthAdjust="spacing" textLength="34" x="325.25" y="370.9102">Game</text><line style="stroke:#A80036;stroke-width:1.5;" x1="219.5" x2="432.5" y1="382" y2="382"/><line style="stroke:#A80036;stroke-width:1.5;" x1="219.5" x2="432.5" y1="390" y2="390"/><ellipse cx="229.5" cy="401" fill="#84BE84" rx="3" ry="3" style="stroke:#038048;stroke-width:1.0;"/><text fill="#000000" font-family="sans-serif" font-size="11" lengthAdjust="spacing" textLength="92" x="238.5" y="405.4189">hasWon(): boolean</text><ellipse cx="229.5" cy="414.8359" fill="#84BE84" rx="3" ry="3" style="stroke:#038048;stroke-width:1.0;"/><text fill="#000000" font-family="sans-serif" font-size="11" lengthAdjust="spacing" textLength="90" x="238.5" y="419.2549">isEnded(): boolean</text><ellipse cx="229.5" cy="428.6719" fill="#84BE84" rx="3" ry="3" style="stroke:#038048;stroke-width:1.0;"/><text fill="#000000" font-family="sans-serif" font-size="11" lengthAdjust="spacing" textLength="88" x="238.5" y="433.0908">totalAttempts(): int</text><ellipse cx="229.5" cy="442.5078" fill="#84BE84" rx="3" ry="3" style="stroke:#038048;stroke-width:1.0;"/><text fill="#000000" font-family="sans-serif" font-size="11" lengthAdjust="spacing" textLength="189" x="238.5" y="446.9268">getSecretCombinationAsString(): String</text><ellipse cx="229.5" cy="456.3438" fill="#84BE84" rx="3" ry="3" style="stroke:#038048;stroke-width:1.0;"/><text fill="#000000" font-family="sans-serif" font-size="11" lengthAdjust="spacing" textLength="147" x="238.5" y="460.7627">getAttemptAsString(int): String</text><ellipse cx="229.5" cy="470.1797" fill="#84BE84" rx="3" ry="3" style="stroke:#038048;stroke-width:1.0;"/><text fill="#000000" font-family="sans-serif" font-size="11" lengthAdjust="spacing" textLength="135" x="238.5" y="474.5986">recordAttempt(Combination)</text><!--MD5=[b89ed330bc8394929f0ad94fa56293db]
class models.SecretCombination--><rect codeLine="28" fill="#FEFECE" filter="url(#f14aizu3dawipf)" height="75.6719" id="models.SecretCombination" style="stroke:#A80036;stroke-width:1.5;" width="186" x="232" y="710"/><ellipse cx="268.6" cy="726" fill="#ADD1B2" rx="11" ry="11" style="stroke:#A80036;stroke-width:1.0;"/><path d="M270.6,722.5 Q270.8031,722 271.0375,721.75 Q271.2719,721.5 271.5375,721.5 Q272.0063,721.5 272.3031,721.7813 Q272.6,722.0625 272.6,722.7188 L272.6,724.2813 Q272.6,724.9375 272.3188,725.2188 Q272.0375,725.5 271.6,725.5 Q271.2094,725.5 270.9594,725.3281 Q270.7094,725.1563 270.6,724.7031 Q270.5531,724.3906 270.3813,724.2188 Q270.0688,723.8906 269.5063,723.7031 Q268.9438,723.5 268.3813,723.5 Q267.6781,723.5 267.0844,723.7813 Q266.5063,724.0625 266.0531,724.6875 Q265.6,725.3125 265.6,726.1719 L265.6,727.0938 Q265.6,728.125 266.4438,728.8125 Q267.2875,729.5 268.7875,729.5 Q269.6781,729.5 270.3031,729.2969 Q270.6625,729.1875 271.0688,728.8281 Q271.3344,728.625 271.475,728.5625 Q271.6156,728.5 271.7875,728.5 Q272.1156,728.5 272.35,728.7656 Q272.6,729.0156 272.6,729.375 Q272.6,729.7188 272.2563,730.125 Q271.7563,730.7188 270.9594,731.0469 Q269.9125,731.5 268.6313,731.5 Q267.1313,731.5 265.9281,730.9063 Q264.9594,730.4375 264.2719,729.4219 Q263.6,728.4063 263.6,727.2031 L263.6,726.1094 Q263.6,724.8594 264.1938,723.7656 Q264.8031,722.6719 265.85,722.0938 Q266.9125,721.5 268.1,721.5 Q268.8188,721.5 269.4438,721.75 Q270.0688,722 270.6,722.5 Z " fill="#000000"/><text fill="#000000" font-family="sans-serif" font-size="12" lengthAdjust="spacing" textLength="106" x="287.4" y="730.9102">SecretCombination</text><line style="stroke:#A80036;stroke-width:1.5;" x1="233" x2="417" y1="742" y2="742"/><line style="stroke:#A80036;stroke-width:1.5;" x1="233" x2="417" y1="750" y2="750"/><ellipse cx="243" cy="761" fill="#84BE84" rx="3" ry="3" style="stroke:#038048;stroke-width:1.0;"/><text fill="#000000" font-family="sans-serif" font-size="11" lengthAdjust="spacing" textLength="160" x="252" y="765.4189">match(Combination): MatchResult</text><ellipse cx="243" cy="774.8359" fill="#84BE84" rx="3" ry="3" style="stroke:#038048;stroke-width:1.0;"/><text fill="#000000" font-family="sans-serif" font-size="11" lengthAdjust="spacing" textLength="79" x="252" y="779.2549">toString(): String</text><!--MD5=[54d08704be622b91252e030e0f93b574]
class models.Attempt--><rect codeLine="49" fill="#FEFECE" filter="url(#f14aizu3dawipf)" height="89.5078" id="models.Attempt" style="stroke:#A80036;stroke-width:1.5;" width="202" x="225" y="542"/><ellipse cx="301.25" cy="558" fill="#ADD1B2" rx="11" ry="11" style="stroke:#A80036;stroke-width:1.0;"/><path d="M303.25,554.5 Q303.4531,554 303.6875,553.75 Q303.9219,553.5 304.1875,553.5 Q304.6563,553.5 304.9531,553.7813 Q305.25,554.0625 305.25,554.7188 L305.25,556.2813 Q305.25,556.9375 304.9688,557.2188 Q304.6875,557.5 304.25,557.5 Q303.8594,557.5 303.6094,557.3281 Q303.3594,557.1563 303.25,556.7031 Q303.2031,556.3906 303.0313,556.2188 Q302.7188,555.8906 302.1563,555.7031 Q301.5938,555.5 301.0313,555.5 Q300.3281,555.5 299.7344,555.7813 Q299.1563,556.0625 298.7031,556.6875 Q298.25,557.3125 298.25,558.1719 L298.25,559.0938 Q298.25,560.125 299.0938,560.8125 Q299.9375,561.5 301.4375,561.5 Q302.3281,561.5 302.9531,561.2969 Q303.3125,561.1875 303.7188,560.8281 Q303.9844,560.625 304.125,560.5625 Q304.2656,560.5 304.4375,560.5 Q304.7656,560.5 305,560.7656 Q305.25,561.0156 305.25,561.375 Q305.25,561.7188 304.9063,562.125 Q304.4063,562.7188 303.6094,563.0469 Q302.5625,563.5 301.2813,563.5 Q299.7813,563.5 298.5781,562.9063 Q297.6094,562.4375 296.9219,561.4219 Q296.25,560.4063 296.25,559.2031 L296.25,558.1094 Q296.25,556.8594 296.8438,555.7656 Q297.4531,554.6719 298.5,554.0938 Q299.5625,553.5 300.75,553.5 Q301.4688,553.5 302.0938,553.75 Q302.7188,554 303.25,554.5 Z " fill="#000000"/><text fill="#000000" font-family="sans-serif" font-size="12" lengthAdjust="spacing" textLength="41" x="321.75" y="562.9102">Attempt</text><line style="stroke:#A80036;stroke-width:1.5;" x1="226" x2="426" y1="574" y2="574"/><line style="stroke:#A80036;stroke-width:1.5;" x1="226" x2="426" y1="582" y2="582"/><ellipse cx="236" cy="593" fill="#84BE84" rx="3" ry="3" style="stroke:#038048;stroke-width:1.0;"/><text fill="#000000" font-family="sans-serif" font-size="11" lengthAdjust="spacing" textLength="176" x="245" y="597.4189">validateMatches(SecretCombination)</text><ellipse cx="236" cy="606.8359" fill="#84BE84" rx="3" ry="3" style="stroke:#038048;stroke-width:1.0;"/><text fill="#000000" font-family="sans-serif" font-size="11" lengthAdjust="spacing" textLength="118" x="245" y="611.2549">hasFourBlack(): boolean</text><ellipse cx="236" cy="620.6719" fill="#84BE84" rx="3" ry="3" style="stroke:#038048;stroke-width:1.0;"/><text fill="#000000" font-family="sans-serif" font-size="11" lengthAdjust="spacing" textLength="76" x="245" y="625.0908">toString():String</text><!--MD5=[3ab7dea9c5f32da8266d9170b1b41dc7]
class models.Combination--><rect codeLine="21" fill="#FEFECE" filter="url(#f14aizu3dawipf)" height="89.5078" id="models.Combination" style="stroke:#A80036;stroke-width:1.5;" width="130" x="396" y="870.5"/><ellipse cx="423.15" cy="886.5" fill="#ADD1B2" rx="11" ry="11" style="stroke:#A80036;stroke-width:1.0;"/><path d="M425.15,883 Q425.3531,882.5 425.5875,882.25 Q425.8219,882 426.0875,882 Q426.5563,882 426.8531,882.2813 Q427.15,882.5625 427.15,883.2188 L427.15,884.7813 Q427.15,885.4375 426.8688,885.7188 Q426.5875,886 426.15,886 Q425.7594,886 425.5094,885.8281 Q425.2594,885.6563 425.15,885.2031 Q425.1031,884.8906 424.9313,884.7188 Q424.6188,884.3906 424.0563,884.2031 Q423.4938,884 422.9313,884 Q422.2281,884 421.6344,884.2813 Q421.0563,884.5625 420.6031,885.1875 Q420.15,885.8125 420.15,886.6719 L420.15,887.5938 Q420.15,888.625 420.9938,889.3125 Q421.8375,890 423.3375,890 Q424.2281,890 424.8531,889.7969 Q425.2125,889.6875 425.6188,889.3281 Q425.8844,889.125 426.025,889.0625 Q426.1656,889 426.3375,889 Q426.6656,889 426.9,889.2656 Q427.15,889.5156 427.15,889.875 Q427.15,890.2188 426.8063,890.625 Q426.3063,891.2188 425.5094,891.5469 Q424.4625,892 423.1813,892 Q421.6813,892 420.4781,891.4063 Q419.5094,890.9375 418.8219,889.9219 Q418.15,888.9063 418.15,887.7031 L418.15,886.6094 Q418.15,885.3594 418.7438,884.2656 Q419.3531,883.1719 420.4,882.5938 Q421.4625,882 422.65,882 Q423.3688,882 423.9938,882.25 Q424.6188,882.5 425.15,883 Z " fill="#000000"/><text fill="#000000" font-family="sans-serif" font-size="12" lengthAdjust="spacing" textLength="71" x="439.85" y="891.4102">Combination</text><line style="stroke:#A80036;stroke-width:1.5;" x1="397" x2="525" y1="902.5" y2="902.5"/><line style="stroke:#A80036;stroke-width:1.5;" x1="397" x2="525" y1="910.5" y2="910.5"/><ellipse cx="407" cy="921.5" fill="#84BE84" rx="3" ry="3" style="stroke:#038048;stroke-width:1.0;"/><text fill="#000000" font-family="sans-serif" font-size="11" lengthAdjust="spacing" textLength="76" x="416" y="925.9189">addColor(Color)</text><ellipse cx="407" cy="935.3359" fill="#84BE84" rx="3" ry="3" style="stroke:#038048;stroke-width:1.0;"/><text fill="#000000" font-family="sans-serif" font-size="11" lengthAdjust="spacing" textLength="104" x="416" y="939.7549">isComplete(): boolean</text><ellipse cx="407" cy="949.1719" fill="#84BE84" rx="3" ry="3" style="stroke:#038048;stroke-width:1.0;"/><text fill="#000000" font-family="sans-serif" font-size="11" lengthAdjust="spacing" textLength="79" x="416" y="953.5908">toString(): String</text><!--MD5=[58499357d4445bcc3ecc978ad55497c9]
class models.Color--><rect codeLine="36" fill="#FEFECE" filter="url(#f14aizu3dawipf)" height="172.5234" id="models.Color" style="stroke:#A80036;stroke-width:1.5;" width="192" x="334" y="1028"/><ellipse cx="410.75" cy="1044" fill="#EB937F" rx="11" ry="11" style="stroke:#A80036;stroke-width:1.0;"/><path d="M409.25,1045 L409.25,1047 L413.25,1047 L413.25,1046 L413.25,1045.5156 L413.875,1045 L414.25,1045 L414.625,1045 L415.25,1045.5156 L415.25,1046 L415.25,1049 L407.25,1049 L406.7656,1049 L406.25,1048.375 L406.25,1048 L406.25,1047.625 L406.7656,1047 L407.25,1047 L407.25,1047 L407.25,1041 L407.25,1041 L406.7656,1041 L406.25,1040.375 L406.25,1040 L406.25,1039.625 L406.7656,1039 L407.25,1039 L415.25,1039 L415.25,1042 L415.25,1042.4844 L414.625,1043 L414.25,1043 L413.875,1043 L413.25,1042.4844 L413.25,1042 L413.25,1041 L409.25,1041 L409.25,1043 L410.25,1043 L410.25,1042.5156 L410.25,1042.5156 L410.875,1042 L411.25,1042 L411.625,1042 L412.25,1042.5156 L412.25,1043 L412.25,1045 L412.25,1045.4844 L411.625,1046 L411.625,1046 L411.25,1046 L410.875,1046 L410.25,1045.4844 L410.25,1045.4844 L410.25,1045 L409.25,1045 Z " fill="#000000"/><text fill="#000000" font-family="sans-serif" font-size="12" lengthAdjust="spacing" textLength="30" x="431.25" y="1048.9102">Color</text><line style="stroke:#A80036;stroke-width:1.5;" x1="335" x2="525" y1="1060" y2="1060"/><ellipse cx="345" cy="1071" rx="3" ry="3" style="stroke:#038048;stroke-width:1.0;fill:none;"/><text fill="#000000" font-family="sans-serif" font-size="11" lengthAdjust="spacing" textLength="20" x="354" y="1075.4189">RED</text><ellipse cx="345" cy="1084.8359" rx="3" ry="3" style="stroke:#038048;stroke-width:1.0;fill:none;"/><text fill="#000000" font-family="sans-serif" font-size="11" lengthAdjust="spacing" textLength="26" x="354" y="1089.2549">BLUE</text><ellipse cx="345" cy="1098.6719" rx="3" ry="3" style="stroke:#038048;stroke-width:1.0;fill:none;"/><text fill="#000000" font-family="sans-serif" font-size="11" lengthAdjust="spacing" textLength="44" x="354" y="1103.0908">YELLOW</text><ellipse cx="345" cy="1112.5078" rx="3" ry="3" style="stroke:#038048;stroke-width:1.0;fill:none;"/><text fill="#000000" font-family="sans-serif" font-size="11" lengthAdjust="spacing" textLength="34" x="354" y="1116.9268">GREEN</text><ellipse cx="345" cy="1126.3438" rx="3" ry="3" style="stroke:#038048;stroke-width:1.0;fill:none;"/><text fill="#000000" font-family="sans-serif" font-size="11" lengthAdjust="spacing" textLength="44" x="354" y="1130.7627">ORANGE</text><ellipse cx="345" cy="1140.1797" rx="3" ry="3" style="stroke:#038048;stroke-width:1.0;fill:none;"/><text fill="#000000" font-family="sans-serif" font-size="11" lengthAdjust="spacing" textLength="38" x="354" y="1144.5986">PURPLE</text><line style="stroke:#A80036;stroke-width:1.5;" x1="335" x2="525" y1="1151.0156" y2="1151.0156"/><ellipse cx="345" cy="1162.0156" fill="#84BE84" rx="3" ry="3" style="stroke:#038048;stroke-width:1.0;"/><text fill="#000000" font-family="sans-serif" font-size="11" lengthAdjust="spacing" text-decoration="underline" textLength="124" x="354" y="1166.4346">parseSymbol(char): Color</text><ellipse cx="345" cy="1175.8516" fill="#84BE84" rx="3" ry="3" style="stroke:#038048;stroke-width:1.0;"/><text fill="#000000" font-family="sans-serif" font-size="11" lengthAdjust="spacing" text-decoration="underline" textLength="166" x="354" y="1180.2705">getAllowedSymbolsString(): String</text><ellipse cx="345" cy="1189.6875" fill="#84BE84" rx="3" ry="3" style="stroke:#038048;stroke-width:1.0;"/><text fill="#000000" font-family="sans-serif" font-size="11" lengthAdjust="spacing" textLength="86" x="354" y="1194.1064">getSymbol(): char</text><!--MD5=[d3be15b15195578bc5b8b929afb3b99a]
class models.MatchResult--><rect codeLine="58" fill="#FEFECE" filter="url(#f14aizu3dawipf)" height="103.3438" id="models.MatchResult" style="stroke:#A80036;stroke-width:1.5;" width="144" x="124" y="864"/><ellipse cx="158.8" cy="880" fill="#ADD1B2" rx="11" ry="11" style="stroke:#A80036;stroke-width:1.0;"/><path d="M160.8,876.5 Q161.0031,876 161.2375,875.75 Q161.4719,875.5 161.7375,875.5 Q162.2063,875.5 162.5031,875.7813 Q162.8,876.0625 162.8,876.7188 L162.8,878.2813 Q162.8,878.9375 162.5188,879.2188 Q162.2375,879.5 161.8,879.5 Q161.4094,879.5 161.1594,879.3281 Q160.9094,879.1563 160.8,878.7031 Q160.7531,878.3906 160.5813,878.2188 Q160.2688,877.8906 159.7063,877.7031 Q159.1438,877.5 158.5813,877.5 Q157.8781,877.5 157.2844,877.7813 Q156.7063,878.0625 156.2531,878.6875 Q155.8,879.3125 155.8,880.1719 L155.8,881.0938 Q155.8,882.125 156.6438,882.8125 Q157.4875,883.5 158.9875,883.5 Q159.8781,883.5 160.5031,883.2969 Q160.8625,883.1875 161.2688,882.8281 Q161.5344,882.625 161.675,882.5625 Q161.8156,882.5 161.9875,882.5 Q162.3156,882.5 162.55,882.7656 Q162.8,883.0156 162.8,883.375 Q162.8,883.7188 162.4563,884.125 Q161.9563,884.7188 161.1594,885.0469 Q160.1125,885.5 158.8313,885.5 Q157.3313,885.5 156.1281,884.9063 Q155.1594,884.4375 154.4719,883.4219 Q153.8,882.4063 153.8,881.2031 L153.8,880.1094 Q153.8,878.8594 154.3938,877.7656 Q155.0031,876.6719 156.05,876.0938 Q157.1125,875.5 158.3,875.5 Q159.0188,875.5 159.6438,875.75 Q160.2688,876 160.8,876.5 Z " fill="#000000"/><text fill="#000000" font-family="sans-serif" font-size="12" lengthAdjust="spacing" textLength="68" x="177.2" y="884.9102">MatchResult</text><line style="stroke:#A80036;stroke-width:1.5;" x1="125" x2="267" y1="896" y2="896"/><ellipse cx="135" cy="907" rx="3" ry="3" style="stroke:#038048;stroke-width:1.0;fill:none;"/><text fill="#000000" font-family="sans-serif" font-size="11" lengthAdjust="spacing" textLength="48" x="144" y="911.4189">blacks: int</text><ellipse cx="135" cy="920.8359" rx="3" ry="3" style="stroke:#038048;stroke-width:1.0;fill:none;"/><text fill="#000000" font-family="sans-serif" font-size="11" lengthAdjust="spacing" textLength="50" x="144" y="925.2549">whites: int</text><line style="stroke:#A80036;stroke-width:1.5;" x1="125" x2="267" y1="931.6719" y2="931.6719"/><ellipse cx="135" cy="942.6719" fill="#84BE84" rx="3" ry="3" style="stroke:#038048;stroke-width:1.0;"/><text fill="#000000" font-family="sans-serif" font-size="11" lengthAdjust="spacing" textLength="118" x="144" y="947.0908">hasFourBlack(): boolean</text><ellipse cx="135" cy="956.5078" fill="#84BE84" rx="3" ry="3" style="stroke:#038048;stroke-width:1.0;"/><text fill="#000000" font-family="sans-serif" font-size="11" lengthAdjust="spacing" textLength="79" x="144" y="960.9268">toString(): String</text><!--MD5=[8af4fdb787b135b7271f9ce04b92f747]
class utils.Console--><rect codeLine="67" fill="#FEFECE" filter="url(#f14aizu3dawipf)" height="75.6719" id="utils.Console" style="stroke:#A80036;stroke-width:1.5;" width="146" x="32" y="189"/><ellipse cx="77.25" cy="205" fill="#ADD1B2" rx="11" ry="11" style="stroke:#A80036;stroke-width:1.0;"/><path d="M79.25,201.5 Q79.4531,201 79.6875,200.75 Q79.9219,200.5 80.1875,200.5 Q80.6563,200.5 80.9531,200.7813 Q81.25,201.0625 81.25,201.7188 L81.25,203.2813 Q81.25,203.9375 80.9688,204.2188 Q80.6875,204.5 80.25,204.5 Q79.8594,204.5 79.6094,204.3281 Q79.3594,204.1563 79.25,203.7031 Q79.2031,203.3906 79.0313,203.2188 Q78.7188,202.8906 78.1563,202.7031 Q77.5938,202.5 77.0313,202.5 Q76.3281,202.5 75.7344,202.7813 Q75.1563,203.0625 74.7031,203.6875 Q74.25,204.3125 74.25,205.1719 L74.25,206.0938 Q74.25,207.125 75.0938,207.8125 Q75.9375,208.5 77.4375,208.5 Q78.3281,208.5 78.9531,208.2969 Q79.3125,208.1875 79.7188,207.8281 Q79.9844,207.625 80.125,207.5625 Q80.2656,207.5 80.4375,207.5 Q80.7656,207.5 81,207.7656 Q81.25,208.0156 81.25,208.375 Q81.25,208.7188 80.9063,209.125 Q80.4063,209.7188 79.6094,210.0469 Q78.5625,210.5 77.2813,210.5 Q75.7813,210.5 74.5781,209.9063 Q73.6094,209.4375 72.9219,208.4219 Q72.25,207.4063 72.25,206.2031 L72.25,205.1094 Q72.25,203.8594 72.8438,202.7656 Q73.4531,201.6719 74.5,201.0938 Q75.5625,200.5 76.75,200.5 Q77.4688,200.5 78.0938,200.75 Q78.7188,201 79.25,201.5 Z " fill="#000000"/><text fill="#000000" font-family="sans-serif" font-size="12" lengthAdjust="spacing" textLength="47" x="97.75" y="209.9102">Console</text><line style="stroke:#A80036;stroke-width:1.5;" x1="33" x2="177" y1="221" y2="221"/><line style="stroke:#A80036;stroke-width:1.5;" x1="33" x2="177" y1="229" y2="229"/><ellipse cx="43" cy="240" fill="#84BE84" rx="3" ry="3" style="stroke:#038048;stroke-width:1.0;"/><text fill="#000000" font-family="sans-serif" font-size="11" lengthAdjust="spacing" textLength="120" x="52" y="244.4189">readString(String): String</text><ellipse cx="43" cy="253.8359" fill="#84BE84" rx="3" ry="3" style="stroke:#038048;stroke-width:1.0;"/><text fill="#000000" font-family="sans-serif" font-size="11" lengthAdjust="spacing" textLength="69" x="52" y="258.2549">writeln(String)</text><!--MD5=[d3fa7c7ea1b89bf0d4934c0ae585aa29]
link mastermind.MasterMind to views.MainView--><path codeLine="5" d="M751.7147,110.4903 C751.7147,110.4903 726.55,123.99 714,128 C660.74,145 512.05,118.18 463,145 C446.73,153.9 433.64,169.31 423.9,184.32 " fill="none" id="mastermind.MasterMind-views.MainView" style="stroke:#A80036;stroke-width:1.0;"/><polygon fill="#A80036" points="417.1,195.61,425.1711,189.9657,419.6805,191.3274,418.3189,185.8369,417.1,195.61" style="stroke:#A80036;stroke-width:1.0;"/><line style="stroke:#A80036;stroke-width:1.0;" x1="419.6805" x2="423.81" y1="191.3274" y2="184.47"/><polygon fill="#A80036" points="761.94,104.21,754.7339,103.9417,751.7147,110.4903,758.9208,110.7586,761.94,104.21" style="stroke:#A80036;stroke-width:1.0;"/><!--MD5=[edc3d0228750d410110ee65407e59f37]
link models.Game to models.SecretCombination--><path codeLine="17" d="M239.3067,490.2711 C239.3067,490.2711 214.3,523.7 207,542 C192.19,579.16 191.46,595.14 207,632 C218.32,658.85 239.32,682.54 260.5,701.33 " fill="none" id="models.Game-models.SecretCombination" style="stroke:#A80036;stroke-width:1.0;"/><polygon fill="#A80036" points="270.54,709.89,266.2802,701.01,266.7329,706.6487,261.0942,707.1014,270.54,709.89" style="stroke:#A80036;stroke-width:1.0;"/><line style="stroke:#A80036;stroke-width:1.0;" x1="266.7329" x2="260.64" y1="706.6487" y2="701.455"/><polygon fill="#A80036" points="247.22,481.25,240.2563,483.1228,239.3067,490.2711,246.2704,488.3983,247.22,481.25" style="stroke:#A80036;stroke-width:1.0;"/><!--MD5=[6582ae606042274016c5ca6600923c57]
link models.Game to models.Attempt--><path codeLine="18" d="M326,493.06 C326,493.06 326,517.57 326,528.69 " fill="none" id="models.Game-models.Attempt" style="stroke:#A80036;stroke-width:1.0;"/><polygon fill="#A80036" points="326,541.85,330,532.85,326,536.85,322,532.85,326,541.85" style="stroke:#A80036;stroke-width:1.0;"/><line style="stroke:#A80036;stroke-width:1.0;" x1="326" x2="326" y1="536.85" y2="528.85"/><polygon fill="#A80036" points="326,481.06,322,487.06,326,493.06,330,487.06,326,481.06" style="stroke:#A80036;stroke-width:1.0;"/><text fill="#000000" font-family="sans-serif" font-size="13" lengthAdjust="spacing" textLength="29" x="294.7797" y="531.2711">0..10</text><!--MD5=[e6aa0034d633bf90bf484dd85229e96d]
link models.Game to models.Combination--><path codeLine="19" d="M402.74,481.19 C419.38,499.14 434.97,519.84 445,542 C493.4,648.98 481.24,791.38 470.05,865.29 " fill="none" id="models.Game-to-models.Combination" style="stroke:#A80036;stroke-width:1.0;stroke-dasharray:7.0,7.0;"/><polygon fill="#A80036" points="469.24,870.49,474.58,862.2145,470.011,865.5498,466.6757,860.9808,469.24,870.49" style="stroke:#A80036;stroke-width:1.0;"/><text fill="#000000" font-family="sans-serif" font-size="13" lengthAdjust="spacing" textLength="21" x="478" y="676.4951">use</text><!--MD5=[c7181f6df9357bb60e274c04665004a0]
link models.Combination to models.Color--><path codeLine="26" d="M452.1806,972.5651 C452.1806,972.5651 447.73,1000.84 445.51,1014.94 " fill="none" id="models.Combination-models.Color" style="stroke:#A80036;stroke-width:1.0;"/><polygon fill="#A80036" points="443.48,1027.86,448.8262,1019.5885,444.2547,1022.9204,440.9228,1018.3489,443.48,1027.86" style="stroke:#A80036;stroke-width:1.0;"/><line style="stroke:#A80036;stroke-width:1.0;" x1="444.2547" x2="445.495" y1="1022.9204" y2="1015.015"/><polygon fill="#FFFFFF" points="454.04,960.71,449.1586,966.0177,452.1806,972.5651,457.062,967.2573,454.04,960.71" style="stroke:#A80036;stroke-width:1.0;"/><text fill="#000000" font-family="sans-serif" font-size="13" lengthAdjust="spacing" textLength="7" x="437.3377" y="1017.2576">4</text><!--MD5=[15f43ae688a3fcde37d838d03858a71c]
reverse link models.Combination to models.SecretCombination--><path d="M391.75,856.17 C384.73,849.02 377.99,841.56 372,834 C360.48,819.46 350.18,801.73 342.18,786.22 " fill="none" id="models.Combination-backto-models.SecretCombination" style="stroke:#A80036;stroke-width:1.0;"/><polygon fill="none" points="396.89,851.4,406.39,870.34,387.15,861.46,396.89,851.4" style="stroke:#A80036;stroke-width:1.0;"/><!--MD5=[e22aee69255bde2225bd5323591dfee1]
link models.SecretCombination to models.Combination--><path codeLine="32" d="M355.52,786.14 C375,809.84 400.44,840.8 421.46,866.38 " fill="none" id="models.SecretCombination-to-models.Combination" style="stroke:#A80036;stroke-width:1.0;stroke-dasharray:7.0,7.0;"/><polygon fill="#A80036" points="424.79,870.44,422.181,860.943,421.6215,866.5721,415.9924,866.0126,424.79,870.44" style="stroke:#A80036;stroke-width:1.0;"/><text fill="#000000" font-family="sans-serif" font-size="13" lengthAdjust="spacing" textLength="21" x="394" y="830.4951">use</text><!--MD5=[1338139518acc2e18bf59fda250ebdaa]
link models.SecretCombination to models.MatchResult--><path codeLine="33" d="M296.05,786.14 C279.13,807.85 257.45,835.66 238.61,859.83 " fill="none" id="models.SecretCombination-to-models.MatchResult" style="stroke:#A80036;stroke-width:1.0;stroke-dasharray:7.0,7.0;"/><polygon fill="#A80036" points="235.37,863.99,244.0564,859.3481,238.4427,860.0455,237.7452,854.4319,235.37,863.99" style="stroke:#A80036;stroke-width:1.0;"/><text fill="#000000" font-family="sans-serif" font-size="13" lengthAdjust="spacing" textLength="33" x="273" y="830.4951">return</text><!--MD5=[16d2a07dc2d5c8bab0fae916f82863ec]
link models.SecretCombination to models.Color--><path codeLine="34" d="M326.6,786.07 C329.32,830.1 336.63,905.37 356,967 C361.91,985.8 370.02,1005.12 378.72,1023.33 " fill="none" id="models.SecretCombination-to-models.Color" style="stroke:#A80036;stroke-width:1.0;stroke-dasharray:7.0,7.0;"/><polygon fill="#A80036" points="380.94,1027.93,380.6312,1018.086,378.7671,1023.4269,373.4262,1021.5627,380.94,1027.93" style="stroke:#A80036;stroke-width:1.0;"/><text fill="#000000" font-family="sans-serif" font-size="13" lengthAdjust="spacing" textLength="21" x="357" y="920.9951">use</text><!--MD5=[d3ea8c62ac1a6e79e7ceabdf2cc7e885]
link models.Attempt to models.Combination--><path codeLine="54" d="M386.5159,640.784 C386.5159,640.784 424.51,684.8 436,710 C457.15,756.4 462.5,814.55 463.08,856.96 " fill="none" id="models.Attempt-models.Combination" style="stroke:#A80036;stroke-width:1.0;"/><polygon fill="#A80036" points="463.12,870.15,467.0903,861.1369,463.1035,865.15,459.0904,861.1632,463.12,870.15" style="stroke:#A80036;stroke-width:1.0;"/><line style="stroke:#A80036;stroke-width:1.0;" x1="463.1035" x2="463.08" y1="865.15" y2="857.145"/><polygon fill="#A80036" points="378.11,632.22,379.4583,639.3039,386.5159,640.784,385.1676,633.7,378.11,632.22" style="stroke:#A80036;stroke-width:1.0;"/><!--MD5=[2d1ecd6ab193011457267f3e643ac455]
link models.Attempt to models.MatchResult--><path codeLine="55" d="M263.675,640.5955 C263.675,640.5955 225.21,684.56 214,710 C194.47,754.29 190.6,809.14 191.26,850.88 " fill="none" id="models.Attempt-models.MatchResult" style="stroke:#A80036;stroke-width:1.0;"/><polygon fill="#A80036" points="191.63,863.94,195.3811,854.8334,191.4925,858.9419,187.3841,855.0534,191.63,863.94" style="stroke:#A80036;stroke-width:1.0;"/><line style="stroke:#A80036;stroke-width:1.0;" x1="191.4925" x2="191.265" y1="858.9419" y2="850.945"/><polygon fill="#FFFFFF" points="272.18,632.13,265.1057,633.5277,263.675,640.5955,270.7493,639.1978,272.18,632.13" style="stroke:#A80036;stroke-width:1.0;"/><!--MD5=[2842eeb7cb413ce4a0cae5dd91421a68]
link models.Attempt to models.SecretCombination--><path codeLine="56" d="M325.72,632.29 C325.58,654.92 325.41,682.32 325.27,704.66 " fill="none" id="models.Attempt-to-models.SecretCombination" style="stroke:#A80036;stroke-width:1.0;stroke-dasharray:7.0,7.0;"/><polygon fill="#A80036" points="325.23,709.93,329.2814,700.953,325.2586,704.9301,321.2815,700.9073,325.23,709.93" style="stroke:#A80036;stroke-width:1.0;"/><text fill="#000000" font-family="sans-serif" font-size="13" lengthAdjust="spacing" textLength="21" x="326" y="676.4951">use</text><!--MD5=[e593e2ea9cbddfb59cbab6d2c711a0d8]
link views.ConsoleView to utils.Console--><path codeLine="76" d="M291.4803,102.6843 C291.4803,102.6843 241.2,130.37 218,145 C200.41,156.09 181.87,168.88 165,180.98 " fill="none" id="views.ConsoleView-utils.Console" style="stroke:#A80036;stroke-width:1.0;"/><polygon fill="#A80036" points="154.19,188.81,163.825,186.7685,158.2389,185.8763,159.1311,180.2903,154.19,188.81" style="stroke:#A80036;stroke-width:1.0;"/><line style="stroke:#A80036;stroke-width:1.0;" x1="158.2389" x2="164.72" y1="185.8763" y2="181.185"/><polygon fill="#A80036" points="302.07,97.04,294.8937,96.3323,291.4803,102.6843,298.6566,103.3921,302.07,97.04" style="stroke:#A80036;stroke-width:1.0;"/><!--MD5=[64bae147e02fa419dcfd7c1e5dd372c3]
reverse link views.ConsoleView to views.MainView--><path d="M362.53,116.14 C371.85,141.46 383.5,173.07 391.9,195.88 " fill="none" id="views.ConsoleView-backto-views.MainView" style="stroke:#A80036;stroke-width:1.0;"/><polygon fill="none" points="355.85,118.27,355.51,97.09,368.99,113.43,355.85,118.27" style="stroke:#A80036;stroke-width:1.0;"/><!--MD5=[8f58e3909a38741bef495b7818692869]
link views.MainView to views.GameView--><path codeLine="81" d="M360.96,227 C351.07,227 341.18,227 331.3,227 " fill="none" id="views.MainView-to-views.GameView" style="stroke:#A80036;stroke-width:1.0;"/><polygon fill="#A80036" points="326.12,227,335.1314,230.9743,331.12,226.9857,335.1085,222.9743,326.12,227" style="stroke:#A80036;stroke-width:1.0;"/><text fill="#000000" font-family="sans-serif" font-size="13" lengthAdjust="spacing" textLength="20" x="334.0119" y="223.4064">1..*</text><!--MD5=[940a966022d3f1c7ccc94d2e2ef5c009]
link views.MainView to models.Game--><path codeLine="82" d="M390.46,258.38 C380.79,281.8 367.03,315.11 354.71,344.96 " fill="none" id="views.MainView-to-models.Game" style="stroke:#A80036;stroke-width:1.0;"/><polygon fill="#A80036" points="352.75,349.72,359.8755,342.9209,354.6537,345.0966,352.478,339.8749,352.75,349.72" style="stroke:#A80036;stroke-width:1.0;"/><text fill="#000000" font-family="sans-serif" font-size="13" lengthAdjust="spacing" textLength="20" x="334.582" y="339.1638">1..*</text><!--MD5=[0336330f3d60764414539568bb772131]
reverse link views.ConsoleView to views.GameView--><path d="M328.76,115.39 C317.54,140.83 303.43,172.84 293.28,195.88 " fill="none" id="views.ConsoleView-backto-views.GameView" style="stroke:#A80036;stroke-width:1.0;"/><polygon fill="none" points="322.35,112.56,336.82,97.09,335.16,118.21,322.35,112.56" style="stroke:#A80036;stroke-width:1.0;"/><!--MD5=[df0ea06be5256b6352c8fe1ef17e44c0]
link views.GameView to views.ProposedCombinationView--><path codeLine="87" d="M306.3273,185.9541 C306.3273,185.9541 330.15,156.2 344,145 C350.72,139.56 353.07,138.44 361.5,136.5 C397.88,128.13 409.12,128.13 445.5,136.5 C481.96,144.88 517.56,167.22 544.18,187.61 " fill="none" id="views.GameView-views.ProposedCombinationView" style="stroke:#A80036;stroke-width:1.0;"/><polygon fill="#A80036" points="554.65,195.88,550.067,187.1624,550.7264,192.7807,545.1081,193.4401,554.65,195.88" style="stroke:#A80036;stroke-width:1.0;"/><line style="stroke:#A80036;stroke-width:1.0;" x1="550.7264" x2="544.45" y1="192.7807" y2="187.82"/><polygon fill="#A80036" points="299.34,195.71,306.0856,193.1612,306.3273,185.9541,299.5817,188.5029,299.34,195.71" style="stroke:#A80036;stroke-width:1.0;"/><!--MD5=[752a683eed86f349808342f1f810b866]
link views.GameView to models.Game--><path codeLine="88" d="M290.3663,270.0302 C290.3663,270.0302 301.32,314.43 306.88,336.99 " fill="none" id="views.GameView-models.Game" style="stroke:#A80036;stroke-width:1.0;"/><polygon fill="#A80036" points="310.02,349.72,311.7488,340.0241,308.8228,344.8654,303.9814,341.9395,310.02,349.72" style="stroke:#A80036;stroke-width:1.0;"/><line style="stroke:#A80036;stroke-width:1.0;" x1="308.8228" x2="306.91" y1="344.8654" y2="337.09"/><polygon fill="#A80036" points="287.49,258.38,285.0447,265.1639,290.3663,270.0302,292.8115,263.2463,287.49,258.38" style="stroke:#A80036;stroke-width:1.0;"/><!--MD5=[695143cd320ae26681752a32ce686fc4]
reverse link views.ConsoleView to views.ProposedCombinationView--><path d="M402.46,107.61 C421.69,119.35 443.35,132.67 463,145 C489.54,161.65 519.02,180.58 542.78,195.94 " fill="none" id="views.ConsoleView-backto-views.ProposedCombinationView" style="stroke:#A80036;stroke-width:1.0;"/><polygon fill="none" points="398.71,113.52,385.27,97.13,405.99,101.56,398.71,113.52" style="stroke:#A80036;stroke-width:1.0;"/><!--MD5=[c755cf72bfc60d7c76530484b92aac1f]
link views.ProposedCombinationView to models.Combination--><path codeLine="93" d="M581.91,258.17 C573.91,294.89 562,358.88 562,414.5 C562,414.5 562,414.5 562,749 C562,793.13 535.51,835.47 509.66,866.28 " fill="none" id="views.ProposedCombinationView-to-models.Combination" style="stroke:#A80036;stroke-width:1.0;stroke-dasharray:7.0,7.0;"/><polygon fill="#A80036" points="506.18,870.36,515.0571,866.0941,509.4187,866.5507,508.9621,860.9123,506.18,870.36" style="stroke:#A80036;stroke-width:1.0;"/><text fill="#000000" font-family="sans-serif" font-size="13" lengthAdjust="spacing" textLength="83" x="563" y="592.4951">use and return</text><!--MD5=[4cc0cafa34dc0c713c6e00f91541e9ec]
link views.ProposedCombinationView to models.Color--><path codeLine="94" d="M620.81,258.06 C653.61,292.46 700,352.14 700,414.5 C700,414.5 700,414.5 700,916.5 C700,1003.23 607.96,1055.84 531.36,1084.61 " fill="none" id="views.ProposedCombinationView-to-models.Color" style="stroke:#A80036;stroke-width:1.0;stroke-dasharray:7.0,7.0;"/><polygon fill="#A80036" points="526.33,1086.47,536.1599,1087.0815,531.0163,1084.7269,533.3709,1079.5834,526.33,1086.47" style="stroke:#A80036;stroke-width:1.0;"/><text fill="#000000" font-family="sans-serif" font-size="13" lengthAdjust="spacing" textLength="21" x="701" y="676.4951">use</text><!--MD5=[454aa38809cc9032197e3203cadca336]
@startuml
namespace mastermind {
    class MasterMind {
        +play()
    }
    MasterMind *- -> views.MainView
}

namespace models {
    class Game {
        +hasWon(): boolean
        +isEnded(): boolean
        +totalAttempts(): int
        +getSecretCombinationAsString(): String
        +getAttemptAsString(int): String
        +recordAttempt(Combination)
    }
    Game *- -> SecretCombination
    Game *- -> "0..10" Attempt
    Game ..> Combination : use

    class Combination {
        +addColor(Color)
        +isComplete(): boolean
        +toString(): String
    }
    Combination o- -> "4" Color

    class SecretCombination extends Combination {
        +match(Combination): MatchResult
        +toString(): String
    }
    SecretCombination ..> Combination : use
    SecretCombination ..> MatchResult : return
    SecretCombination ..> Color : use

    enum Color {
        +RED
        +BLUE
        +YELLOW
        +GREEN
        +ORANGE
        +PURPLE

        +{static}parseSymbol(char): Color
        +{static}getAllowedSymbolsString(): String
        +getSymbol(): char
    }

    class Attempt {
        +validateMatches(SecretCombination)
        +hasFourBlack(): boolean
        +toString():String
    }
    Attempt *- -> Combination
    Attempt o- -> MatchResult
    Attempt ..> SecretCombination : use

    class MatchResult {
        +blacks: int
        +whites: int
        +hasFourBlack(): boolean
        +toString(): String
    }
}

namespace utils {
    class Console {
        +readString(String): String
        +writeln(String)
    }
}

namespace views {
    abstract class ConsoleView {
    }
    ConsoleView *- -> utils.Console

    class MainView extends ConsoleView {
        +show()
    }
    MainView -right-> "1..*" GameView
    MainView -down-> "1..*" models.Game

    class GameView extends ConsoleView {
        +show()
    }
    GameView *-right-> ProposedCombinationView
    GameView *- -> models.Game

    class ProposedCombinationView extends ConsoleView {
        +getProposedCombination(): Combination
    }
    ProposedCombinationView ..> models.Combination : use and return
    ProposedCombinationView ..> models.Color : use
}
@enduml

PlantUML version 1.2021.4(Sun Apr 04 03:49:39 CDT 2021)
(GPL source distribution)
Java Runtime: OpenJDK Runtime Environment
JVM: Dynamic Code Evolution 64-Bit Server VM
Default Encoding: Cp1252
Language: en
Country: US
--></g></svg>